<svg width="530" height="106" viewBox="0 0 530 106" fill="none" xmlns="http://www.w3.org/2000/svg">
<rect width="530" height="106" rx="53" fill="#009672"/>
<path d="M235.872 47.704C235.872 47.832 235.936 47.896 236.064 47.896H239.104C239.637 47.896 240.085 48.0773 240.448 48.44C240.832 48.8027 241.024 49.2613 241.024 49.816C241.024 51.1813 241.013 52.5467 240.992 53.912C240.971 55.2773 240.939 56.5573 240.896 57.752C240.875 58.9467 240.843 59.992 240.8 60.888C240.779 61.7627 240.747 62.4133 240.704 62.84C240.619 64.184 240.405 65.2827 240.064 66.136C239.723 66.9893 239.189 67.6187 238.464 68.024C237.739 68.4293 236.736 68.6427 235.456 68.664C235.115 68.664 234.827 68.536 234.592 68.28C234.357 68.0453 234.229 67.7573 234.208 67.416C234.208 67.096 234.325 66.8187 234.56 66.584C234.795 66.3493 235.072 66.232 235.392 66.232C236.224 66.232 236.832 66.136 237.216 65.944C237.6 65.7307 237.856 65.368 237.984 64.856C238.112 64.3227 238.219 63.576 238.304 62.616C238.347 62.1467 238.389 61.304 238.432 60.088C238.475 58.872 238.507 57.4213 238.528 55.736C238.571 54.0507 238.603 52.2907 238.624 50.456C238.624 50.328 238.56 50.264 238.432 50.264H236.032C235.904 50.264 235.84 50.328 235.84 50.456C235.712 53.656 235.307 56.4507 234.624 58.84C233.963 61.2293 233.152 63.224 232.192 64.824C231.232 66.424 230.261 67.6507 229.28 68.504C229.109 68.6533 228.885 68.728 228.608 68.728C228.203 68.728 227.883 68.5573 227.648 68.216C227.499 68.0027 227.424 67.7573 227.424 67.48C227.424 67.0533 227.584 66.712 227.904 66.456C228.928 65.5173 229.781 64.4187 230.464 63.16C231.168 61.9013 231.723 60.5573 232.128 59.128C232.555 57.6987 232.864 56.248 233.056 54.776C233.269 53.2827 233.408 51.8427 233.472 50.456C233.472 50.328 233.408 50.264 233.28 50.264H230.688C230.368 50.264 230.091 50.1467 229.856 49.912C229.621 49.6773 229.504 49.4 229.504 49.08C229.504 48.7387 229.621 48.4613 229.856 48.248C230.091 48.0133 230.368 47.896 230.688 47.896H233.312C233.44 47.896 233.504 47.832 233.504 47.704V42.232C233.504 41.912 233.611 41.6347 233.824 41.4C234.059 41.1653 234.347 41.048 234.688 41.048C235.008 41.048 235.285 41.1653 235.52 41.4C235.755 41.6347 235.872 41.912 235.872 42.232V47.704ZM228.48 64.792C228.48 65.048 228.405 65.2827 228.256 65.496C228.107 65.7093 227.904 65.848 227.648 65.912C226.56 66.2107 225.333 66.488 223.968 66.744C222.603 67 221.195 67.224 219.744 67.416C218.293 67.608 216.896 67.768 215.552 67.896C215.253 67.9173 214.987 67.8213 214.752 67.608C214.539 67.3947 214.432 67.1387 214.432 66.84C214.432 66.5413 214.528 66.296 214.72 66.104C214.933 65.8907 215.179 65.7733 215.456 65.752C216.203 65.7093 217.035 65.6347 217.952 65.528C218.869 65.4213 219.819 65.2933 220.8 65.144C220.928 65.1013 220.992 65.0267 220.992 64.92V62.904C220.992 62.776 220.928 62.712 220.8 62.712H216.704C216.405 62.712 216.149 62.6053 215.936 62.392C215.723 62.1787 215.616 61.9333 215.616 61.656C215.616 61.3573 215.723 61.112 215.936 60.92C216.149 60.7067 216.405 60.6 216.704 60.6H220.8C220.928 60.6 220.992 60.536 220.992 60.408V59.32C220.992 59.192 220.928 59.128 220.8 59.128H217.664C217.131 59.128 216.672 58.9467 216.288 58.584C215.925 58.2 215.744 57.7413 215.744 57.208V51.768C215.744 51.2347 215.925 50.7867 216.288 50.424C216.672 50.04 217.131 49.848 217.664 49.848H220.8C220.928 49.848 220.992 49.784 220.992 49.656V48.792C220.992 48.664 220.928 48.6 220.8 48.6H215.552C215.253 48.6 214.997 48.4933 214.784 48.28C214.571 48.0667 214.464 47.8107 214.464 47.512C214.464 47.2133 214.571 46.9573 214.784 46.744C214.997 46.5307 215.253 46.424 215.552 46.424H220.8C220.928 46.424 220.992 46.36 220.992 46.232V45.432C220.992 45.2827 220.928 45.2293 220.8 45.272C220.181 45.3573 219.563 45.432 218.944 45.496C218.325 45.56 217.717 45.6133 217.12 45.656C216.779 45.6773 216.48 45.5707 216.224 45.336C215.989 45.1013 215.872 44.8133 215.872 44.472C215.872 44.1947 215.968 43.96 216.16 43.768C216.352 43.5547 216.597 43.4373 216.896 43.416C218.496 43.3093 220.117 43.1173 221.76 42.84C223.424 42.5413 225.056 42.1893 226.656 41.784C226.976 41.6987 227.285 41.7627 227.584 41.976C227.883 42.1893 228.032 42.4773 228.032 42.84C228.032 43.096 227.947 43.3413 227.776 43.576C227.627 43.7893 227.424 43.928 227.168 43.992C226.549 44.1627 225.92 44.3227 225.28 44.472C224.64 44.6 223.989 44.728 223.328 44.856C223.221 44.8987 223.168 44.9627 223.168 45.048V46.232C223.168 46.36 223.232 46.424 223.36 46.424H228.416C228.715 46.424 228.971 46.5307 229.184 46.744C229.397 46.9573 229.504 47.2133 229.504 47.512C229.504 47.8107 229.397 48.0667 229.184 48.28C228.971 48.4933 228.715 48.6 228.416 48.6H223.36C223.232 48.6 223.168 48.664 223.168 48.792V49.656C223.168 49.784 223.232 49.848 223.36 49.848H226.72C227.253 49.848 227.701 50.04 228.064 50.424C228.448 50.7867 228.64 51.2347 228.64 51.768V57.208C228.64 57.7413 228.448 58.2 228.064 58.584C227.701 58.9467 227.253 59.128 226.72 59.128H223.36C223.232 59.128 223.168 59.192 223.168 59.32V60.408C223.168 60.536 223.232 60.6 223.36 60.6H227.264C227.563 60.6 227.808 60.7067 228 60.92C228.213 61.112 228.32 61.3573 228.32 61.656C228.32 61.9333 228.213 62.1787 228 62.392C227.808 62.6053 227.563 62.712 227.264 62.712H223.36C223.232 62.712 223.168 62.776 223.168 62.904V64.504C223.168 64.6533 223.243 64.7173 223.392 64.696C224.757 64.3973 225.995 64.088 227.104 63.768C227.168 63.7467 227.221 63.736 227.264 63.736C227.328 63.7147 227.392 63.704 227.456 63.704C227.733 63.704 227.968 63.8 228.16 63.992C228.373 64.184 228.48 64.4507 228.48 64.792ZM220.8 53.4C220.928 53.4 220.992 53.336 220.992 53.208V52.152C220.992 52.024 220.928 51.96 220.8 51.96H218.176C218.048 51.96 217.984 52.024 217.984 52.152V53.208C217.984 53.336 218.048 53.4 218.176 53.4H220.8ZM226.176 53.4C226.304 53.4 226.368 53.336 226.368 53.208V52.152C226.368 52.024 226.304 51.96 226.176 51.96H223.36C223.232 51.96 223.168 52.024 223.168 52.152V53.208C223.168 53.336 223.232 53.4 223.36 53.4H226.176ZM218.176 55.544C218.048 55.544 217.984 55.608 217.984 55.736V56.792C217.984 56.92 218.048 56.984 218.176 56.984H220.8C220.928 56.984 220.992 56.92 220.992 56.792V55.736C220.992 55.608 220.928 55.544 220.8 55.544H218.176ZM223.36 55.544C223.232 55.544 223.168 55.608 223.168 55.736V56.792C223.168 56.92 223.232 56.984 223.36 56.984H226.176C226.304 56.984 226.368 56.92 226.368 56.792V55.736C226.368 55.608 226.304 55.544 226.176 55.544H223.36ZM248.096 42.232H271.904C272.224 42.232 272.491 42.3493 272.704 42.584C272.939 42.7973 273.056 43.064 273.056 43.384C273.056 43.704 272.939 43.9813 272.704 44.216C272.491 44.4293 272.224 44.536 271.904 44.536H261.344C261.216 44.536 261.152 44.6 261.152 44.728V48.088C261.152 48.216 261.216 48.28 261.344 48.28H265.28C265.813 48.28 266.261 48.472 266.624 48.856C267.008 49.2187 267.2 49.6667 267.2 50.2V61.112C267.2 61.6453 267.008 62.104 266.624 62.488C266.261 62.8507 265.813 63.032 265.28 63.032H254.72C254.187 63.032 253.728 62.8507 253.344 62.488C252.981 62.104 252.8 61.6453 252.8 61.112V50.2C252.8 49.6667 252.981 49.2187 253.344 48.856C253.728 48.472 254.187 48.28 254.72 48.28H258.656C258.784 48.28 258.848 48.216 258.848 48.088V44.728C258.848 44.6 258.784 44.536 258.656 44.536H248.096C247.776 44.536 247.499 44.4293 247.264 44.216C247.051 43.9813 246.944 43.704 246.944 43.384C246.944 43.064 247.051 42.7973 247.264 42.584C247.499 42.3493 247.776 42.232 248.096 42.232ZM271.328 47.832C271.648 47.832 271.925 47.9493 272.16 48.184C272.395 48.3973 272.512 48.6747 272.512 49.016V66.68C272.512 67.2133 272.32 67.6613 271.936 68.024C271.573 68.408 271.125 68.6 270.592 68.6H249.408C248.875 68.6 248.416 68.408 248.032 68.024C247.669 67.6613 247.488 67.2133 247.488 66.68V49.016C247.488 48.6747 247.605 48.3973 247.84 48.184C248.075 47.9493 248.352 47.832 248.672 47.832C248.992 47.832 249.269 47.9493 249.504 48.184C249.739 48.3973 249.856 48.6747 249.856 49.016V66.136C249.856 66.264 249.92 66.328 250.048 66.328H269.952C270.08 66.328 270.144 66.264 270.144 66.136V49.016C270.144 48.6747 270.261 48.3973 270.496 48.184C270.731 47.9493 271.008 47.832 271.328 47.832ZM258.656 54.328C258.784 54.328 258.848 54.264 258.848 54.136V50.648C258.848 50.52 258.784 50.456 258.656 50.456H255.264C255.136 50.456 255.072 50.52 255.072 50.648V54.136C255.072 54.264 255.136 54.328 255.264 54.328H258.656ZM264.736 54.328C264.864 54.328 264.928 54.264 264.928 54.136V50.648C264.928 50.52 264.864 50.456 264.736 50.456H261.344C261.216 50.456 261.152 50.52 261.152 50.648V54.136C261.152 54.264 261.216 54.328 261.344 54.328H264.736ZM258.848 56.696C258.848 56.568 258.784 56.504 258.656 56.504H255.264C255.136 56.504 255.072 56.568 255.072 56.696V60.664C255.072 60.792 255.136 60.856 255.264 60.856H258.656C258.784 60.856 258.848 60.792 258.848 60.664V56.696ZM261.344 56.504C261.216 56.504 261.152 56.568 261.152 56.696V60.664C261.152 60.792 261.216 60.856 261.344 60.856H264.736C264.864 60.856 264.928 60.792 264.928 60.664V56.696C264.928 56.568 264.864 56.504 264.736 56.504H261.344ZM299.872 64.312C300.256 64.2693 300.587 64.376 300.864 64.632C301.163 64.888 301.312 65.208 301.312 65.592C301.312 65.9333 301.195 66.232 300.96 66.488C300.747 66.744 300.459 66.8933 300.096 66.936C299.243 67.0213 298.016 67.1067 296.416 67.192C294.837 67.2987 293.035 67.352 291.008 67.352C289.365 67.352 288.021 67.128 286.976 66.68C285.952 66.2107 285.269 65.464 284.928 64.44C284.779 63.992 284.704 63.5333 284.704 63.064C284.704 61.9547 285.227 60.8347 286.272 59.704C287.339 58.5733 289.163 57.3253 291.744 55.96C291.979 55.8747 292.021 55.7467 291.872 55.576C291.403 54.8933 290.688 54.552 289.728 54.552C289.152 54.552 288.523 54.6693 287.84 54.904C287.157 55.1173 286.443 55.416 285.696 55.8C285.611 55.8427 285.515 55.9173 285.408 56.024C285.323 56.088 285.237 56.1627 285.152 56.248C285.067 56.312 284.971 56.376 284.864 56.44C284.693 56.5893 284.469 56.664 284.192 56.664C283.765 56.664 283.435 56.472 283.2 56.088C283.072 55.8533 283.008 55.6293 283.008 55.416C283.008 54.9893 283.179 54.6373 283.52 54.36C284.203 53.8267 284.832 53.2187 285.408 52.536C285.984 51.8533 286.507 51.0747 286.976 50.2C287.019 50.1147 287.04 50.0613 287.04 50.04C287.04 49.8907 286.944 49.8373 286.752 49.88C286.091 49.9653 285.461 50.04 284.864 50.104C284.267 50.1467 283.712 50.1893 283.2 50.232C282.859 50.2533 282.571 50.1467 282.336 49.912C282.101 49.6773 281.984 49.3893 281.984 49.048C281.984 48.7067 282.101 48.4187 282.336 48.184C282.571 47.9493 282.859 47.8213 283.2 47.8C284.8 47.736 286.443 47.576 288.128 47.32C288.277 47.2987 288.384 47.2133 288.448 47.064C288.64 46.5093 288.832 45.9333 289.024 45.336C289.216 44.7387 289.387 44.1093 289.536 43.448C289.6 43.1707 289.749 42.9467 289.984 42.776C290.219 42.6053 290.475 42.52 290.752 42.52C291.115 42.52 291.403 42.648 291.616 42.904C291.851 43.1387 291.968 43.416 291.968 43.736C291.968 43.864 291.957 43.96 291.936 44.024C291.829 44.4293 291.712 44.824 291.584 45.208C291.477 45.592 291.36 45.9653 291.232 46.328C291.232 46.3493 291.221 46.3707 291.2 46.392C291.2 46.4133 291.2 46.4347 291.2 46.456C291.2 46.6267 291.307 46.68 291.52 46.616C292.117 46.4453 292.704 46.264 293.28 46.072C293.877 45.8587 294.443 45.6453 294.976 45.432C295.147 45.368 295.296 45.336 295.424 45.336C295.659 45.336 295.872 45.4 296.064 45.528C296.277 45.6347 296.427 45.8053 296.512 46.04C296.555 46.1253 296.576 46.2107 296.576 46.296C296.576 46.36 296.576 46.424 296.576 46.488C296.576 47.064 296.331 47.448 295.84 47.64C295.029 47.9813 294.144 48.2907 293.184 48.568C292.245 48.8453 291.285 49.0907 290.304 49.304C290.155 49.3253 290.048 49.4 289.984 49.528C289.771 49.9973 289.557 50.4453 289.344 50.872C289.131 51.2987 288.907 51.7147 288.672 52.12C288.629 52.2053 288.608 52.2587 288.608 52.28C288.608 52.3867 288.704 52.4293 288.896 52.408C289.131 52.3653 289.344 52.3333 289.536 52.312C289.749 52.2907 289.952 52.28 290.144 52.28C291.125 52.28 291.936 52.4933 292.576 52.92C293.216 53.3253 293.717 53.8373 294.08 54.456C294.187 54.6267 294.315 54.6693 294.464 54.584C295.253 54.1787 296.075 53.72 296.928 53.208C297.781 52.696 298.677 52.1093 299.616 51.448C299.829 51.2987 300.064 51.224 300.32 51.224C300.747 51.224 301.077 51.4053 301.312 51.768C301.461 51.9813 301.536 52.216 301.536 52.472C301.536 52.92 301.355 53.2613 300.992 53.496C300.267 53.9653 299.605 54.3813 299.008 54.744C298.411 55.1067 297.803 55.448 297.184 55.768C296.565 56.088 295.861 56.44 295.072 56.824C294.923 56.9093 294.859 57.0373 294.88 57.208C295.029 58.168 295.136 59.5227 295.2 61.272C295.2 61.6133 295.083 61.9013 294.848 62.136C294.613 62.3707 294.325 62.488 293.984 62.488C293.643 62.488 293.355 62.3707 293.12 62.136C292.885 61.9013 292.757 61.6133 292.736 61.272C292.715 60.7173 292.693 60.216 292.672 59.768C292.651 59.2987 292.619 58.872 292.576 58.488C292.576 58.232 292.459 58.168 292.224 58.296C290.453 59.2347 289.173 60.0987 288.384 60.888C287.595 61.656 287.2 62.3707 287.2 63.032C287.2 63.224 287.232 63.416 287.296 63.608C287.488 64.0773 287.851 64.4293 288.384 64.664C288.917 64.8987 289.856 65.016 291.2 65.016C292.971 65.016 295.861 64.7813 299.872 64.312ZM322.592 51.288C321.547 51.288 320.651 51.2453 319.904 51.16C319.157 51.0533 318.581 50.7973 318.176 50.392C317.792 49.9653 317.6 49.2827 317.6 48.344V47.416C317.6 46.8827 317.781 46.4347 318.144 46.072C318.528 45.688 318.987 45.496 319.52 45.496H323.712C323.84 45.496 323.904 45.432 323.904 45.304V44.248C323.904 44.12 323.84 44.056 323.712 44.056H318.88C318.603 44.056 318.357 43.9493 318.144 43.736C317.931 43.5227 317.824 43.2773 317.824 43C317.824 42.7013 317.931 42.4453 318.144 42.232C318.357 42.0187 318.603 41.912 318.88 41.912H324.256C324.789 41.912 325.237 42.104 325.6 42.488C325.984 42.8507 326.176 43.2987 326.176 43.832V45.528C326.176 46.0613 325.984 46.52 325.6 46.904C325.237 47.2667 324.789 47.448 324.256 47.448H320C319.872 47.448 319.808 47.512 319.808 47.64V48.248C319.808 48.7173 319.989 49.0053 320.352 49.112C320.715 49.1973 321.301 49.24 322.112 49.24C322.923 49.24 323.541 49.2293 323.968 49.208C324.416 49.1867 324.757 49.1333 324.992 49.048C325.227 48.9627 325.44 48.8133 325.632 48.6C325.909 48.3227 326.219 48.184 326.56 48.184C326.795 48.184 326.976 48.2373 327.104 48.344C327.403 48.536 327.552 48.8133 327.552 49.176C327.552 49.3893 327.488 49.5813 327.36 49.752C327.061 50.1147 326.731 50.4133 326.368 50.648C326.027 50.8827 325.568 51.0533 324.992 51.16C324.416 51.2453 323.616 51.288 322.592 51.288ZM337.824 48.344C338.123 48.536 338.272 48.8133 338.272 49.176C338.272 49.3893 338.208 49.5813 338.08 49.752C337.781 50.1147 337.451 50.4133 337.088 50.648C336.747 50.8827 336.288 51.0533 335.712 51.16C335.136 51.2453 334.336 51.288 333.312 51.288C332.267 51.288 331.371 51.2453 330.624 51.16C329.877 51.0533 329.301 50.7973 328.896 50.392C328.512 49.9653 328.32 49.2827 328.32 48.344V47.416C328.32 46.8827 328.501 46.4347 328.864 46.072C329.248 45.688 329.707 45.496 330.24 45.496H333.664C333.792 45.496 333.856 45.432 333.856 45.304V44.248C333.856 44.12 333.792 44.056 333.664 44.056H328.864C328.587 44.056 328.341 43.9493 328.128 43.736C327.915 43.5227 327.808 43.2773 327.808 43C327.808 42.7013 327.915 42.4453 328.128 42.232C328.341 42.0187 328.587 41.912 328.864 41.912H334.208C334.741 41.912 335.189 42.104 335.552 42.488C335.936 42.8507 336.128 43.2987 336.128 43.832V45.528C336.128 46.0613 335.936 46.52 335.552 46.904C335.189 47.2667 334.741 47.448 334.208 47.448H330.72C330.592 47.448 330.528 47.512 330.528 47.64V48.248C330.528 48.7173 330.709 49.0053 331.072 49.112C331.456 49.1973 332.053 49.24 332.864 49.24C333.653 49.24 334.261 49.2293 334.688 49.208C335.136 49.1867 335.477 49.1333 335.712 49.048C335.968 48.9627 336.181 48.8133 336.352 48.6C336.629 48.3227 336.939 48.184 337.28 48.184C337.515 48.184 337.696 48.2373 337.824 48.344ZM311.36 44.984C311.104 44.9413 310.891 44.8133 310.72 44.6C310.549 44.3867 310.464 44.152 310.464 43.896C310.464 43.5333 310.571 43.2453 310.784 43.032C311.019 42.7973 311.285 42.68 311.584 42.68C311.712 42.68 311.808 42.6907 311.872 42.712C312.491 42.84 313.141 43 313.824 43.192C314.528 43.384 315.211 43.5973 315.872 43.832C316.448 44.088 316.736 44.504 316.736 45.08C316.736 45.4213 316.619 45.6987 316.384 45.912C316.149 46.104 315.883 46.2 315.584 46.2C315.52 46.2 315.456 46.2 315.392 46.2C315.328 46.1787 315.264 46.1573 315.2 46.136C314.603 45.9227 313.963 45.72 313.28 45.528C312.619 45.3147 311.979 45.1333 311.36 44.984ZM330.624 51.512C330.923 51.512 331.189 51.6293 331.424 51.864C331.659 52.0987 331.776 52.376 331.776 52.696V53.656C331.776 53.784 331.84 53.848 331.968 53.848H335.008C335.307 53.848 335.563 53.9547 335.776 54.168C336.011 54.3813 336.128 54.648 336.128 54.968C336.128 55.288 336.011 55.5547 335.776 55.768C335.563 55.9813 335.307 56.088 335.008 56.088H331.968C331.84 56.088 331.776 56.152 331.776 56.28V58.136C331.776 58.264 331.84 58.328 331.968 58.328H336.288C336.608 58.328 336.875 58.4453 337.088 58.68C337.323 58.8933 337.44 59.16 337.44 59.48C337.44 59.7787 337.323 60.0453 337.088 60.28C336.875 60.4933 336.608 60.6 336.288 60.6H318.848C318.528 60.6 318.251 60.4933 318.016 60.28C317.803 60.0453 317.696 59.7787 317.696 59.48C317.696 59.16 317.803 58.8933 318.016 58.68C318.251 58.4453 318.528 58.328 318.848 58.328H323.072C323.2 58.328 323.264 58.264 323.264 58.136V56.28C323.264 56.152 323.2 56.088 323.072 56.088H320.256C319.936 56.088 319.659 55.9813 319.424 55.768C319.211 55.5547 319.104 55.288 319.104 54.968C319.104 54.648 319.211 54.3813 319.424 54.168C319.659 53.9547 319.936 53.848 320.256 53.848H323.072C323.2 53.848 323.264 53.784 323.264 53.656V52.696C323.264 52.376 323.381 52.0987 323.616 51.864C323.851 51.6293 324.128 51.512 324.448 51.512C324.747 51.512 325.013 51.6293 325.248 51.864C325.483 52.0987 325.6 52.376 325.6 52.696V53.656C325.6 53.784 325.664 53.848 325.792 53.848H329.248C329.376 53.848 329.44 53.784 329.44 53.656V52.696C329.44 52.376 329.557 52.0987 329.792 51.864C330.027 51.6293 330.304 51.512 330.624 51.512ZM324.64 66.072H336.352C336.672 66.072 336.949 66.1893 337.184 66.424C337.419 66.6587 337.536 66.936 337.536 67.256C337.536 67.5973 337.419 67.8747 337.184 68.088C336.949 68.3227 336.672 68.44 336.352 68.44H324.64C322.656 68.44 320.917 68.216 319.424 67.768C317.931 67.32 316.661 66.4773 315.616 65.24C315.552 65.1333 315.467 65.144 315.36 65.272C314.912 65.9333 314.368 66.5627 313.728 67.16C313.088 67.7573 312.395 68.2587 311.648 68.664C311.541 68.7493 311.392 68.792 311.2 68.792C310.752 68.792 310.432 68.568 310.24 68.12C310.176 67.9493 310.144 67.8 310.144 67.672C310.144 67.1813 310.368 66.7973 310.816 66.52C311.541 66.008 312.181 65.4213 312.736 64.76C313.291 64.0773 313.739 63.3733 314.08 62.648C314.123 62.584 314.144 62.4987 314.144 62.392V55.832C314.144 55.704 314.08 55.64 313.952 55.64H311.616C311.296 55.64 311.019 55.5333 310.784 55.32C310.571 55.0853 310.464 54.7973 310.464 54.456C310.464 54.136 310.571 53.8587 310.784 53.624C311.019 53.3893 311.296 53.272 311.616 53.272H314.56C315.115 53.272 315.573 53.464 315.936 53.848C316.299 54.2107 316.48 54.6587 316.48 55.192V62.104C316.48 62.168 316.501 62.2427 316.544 62.328C317.141 63.352 317.824 64.1413 318.592 64.696C319.381 65.2293 320.277 65.592 321.28 65.784C322.283 65.976 323.403 66.072 324.64 66.072ZM325.6 58.136C325.6 58.264 325.664 58.328 325.792 58.328H329.248C329.376 58.328 329.44 58.264 329.44 58.136V56.28C329.44 56.152 329.376 56.088 329.248 56.088H325.792C325.664 56.088 325.6 56.152 325.6 56.28V58.136ZM336.384 62.296C336.981 62.4453 337.28 62.808 337.28 63.384C337.28 63.7253 337.163 64.0027 336.928 64.216C336.693 64.4293 336.427 64.536 336.128 64.536C336 64.536 335.904 64.5253 335.84 64.504C335.093 64.3333 334.325 64.0773 333.536 63.736C332.747 63.3733 332.021 62.9787 331.36 62.552C331.104 62.36 330.976 62.0933 330.976 61.752C330.976 61.496 331.061 61.2613 331.232 61.048C331.488 60.792 331.797 60.664 332.16 60.664C332.416 60.664 332.651 60.728 332.864 60.856C333.44 61.2187 334.027 61.5173 334.624 61.752C335.243 61.9867 335.829 62.168 336.384 62.296ZM322.272 60.888C322.443 60.7813 322.656 60.728 322.912 60.728C323.317 60.728 323.627 60.8667 323.84 61.144C324.011 61.3573 324.096 61.5813 324.096 61.816C324.096 62.1573 323.947 62.424 323.648 62.616C323.008 63.0427 322.304 63.416 321.536 63.736C320.768 64.0347 320.011 64.2693 319.264 64.44C319.2 64.4613 319.104 64.472 318.976 64.472C318.421 64.472 318.059 64.184 317.888 63.608C317.824 63.3093 317.867 63.0427 318.016 62.808C318.187 62.552 318.411 62.3813 318.688 62.296C319.285 62.1467 319.893 61.9547 320.512 61.72C321.152 61.464 321.739 61.1867 322.272 60.888ZM351.36 57.976C350.997 58.104 350.624 58.2427 350.24 58.392C349.877 58.5413 349.504 58.68 349.12 58.808C349.013 58.8507 348.96 58.9253 348.96 59.032V67.64C348.96 67.9813 348.843 68.2693 348.608 68.504C348.373 68.7387 348.085 68.856 347.744 68.856C347.403 68.856 347.115 68.7387 346.88 68.504C346.667 68.2693 346.56 67.9813 346.56 67.64V59.896C346.56 59.7467 346.485 59.6933 346.336 59.736C345.44 60.0133 344.587 60.2587 343.776 60.472C343.712 60.4933 343.627 60.504 343.52 60.504C343.221 60.504 342.955 60.3973 342.72 60.184C342.507 59.9493 342.4 59.672 342.4 59.352C342.4 59.0533 342.485 58.7973 342.656 58.584C342.848 58.3493 343.093 58.1893 343.392 58.104C343.861 57.976 344.341 57.8373 344.832 57.688C345.344 57.5387 345.867 57.3893 346.4 57.24C346.507 57.1973 346.56 57.1227 346.56 57.016V49.368C346.56 49.24 346.496 49.176 346.368 49.176H343.968C343.627 49.176 343.339 49.0693 343.104 48.856C342.869 48.6213 342.752 48.3333 342.752 47.992C342.752 47.6507 342.869 47.3627 343.104 47.128C343.339 46.8933 343.627 46.776 343.968 46.776H346.368C346.496 46.776 346.56 46.712 346.56 46.584V42.52C346.56 42.1787 346.667 41.8907 346.88 41.656C347.115 41.4213 347.403 41.304 347.744 41.304C348.085 41.304 348.373 41.4213 348.608 41.656C348.843 41.8907 348.96 42.1787 348.96 42.52V46.584C348.96 46.712 349.024 46.776 349.152 46.776H351.296C351.637 46.776 351.925 46.8933 352.16 47.128C352.395 47.3627 352.512 47.6507 352.512 47.992C352.512 48.3333 352.395 48.6213 352.16 48.856C351.925 49.0693 351.637 49.176 351.296 49.176H349.152C349.024 49.176 348.96 49.24 348.96 49.368V56.088C348.96 56.2587 349.035 56.312 349.184 56.248C349.461 56.1413 349.728 56.0347 349.984 55.928C350.24 55.8213 350.485 55.7147 350.72 55.608C350.891 55.544 351.04 55.512 351.168 55.512C351.445 55.512 351.691 55.608 351.904 55.8C352.117 55.992 352.224 56.2587 352.224 56.6C352.224 57.24 351.936 57.6987 351.36 57.976ZM369.376 66.456C369.824 66.7333 370.048 67.128 370.048 67.64C370.048 67.9813 369.931 68.2693 369.696 68.504C369.483 68.7387 369.227 68.856 368.928 68.856C368.757 68.856 368.597 68.8133 368.448 68.728C367.317 68.088 366.24 67.2453 365.216 66.2C364.213 65.1333 363.285 63.9493 362.432 62.648C361.6 61.3467 360.875 60.0133 360.256 58.648C359.659 57.2827 359.2 55.9707 358.88 54.712C358.837 54.6053 358.773 54.552 358.688 54.552H355.904C355.776 54.552 355.712 54.616 355.712 54.744C355.669 55.6827 355.552 56.888 355.36 58.36C355.189 59.832 354.923 61.4 354.56 63.064C354.219 64.728 353.781 66.328 353.248 67.864C353.163 68.1413 352.992 68.3653 352.736 68.536C352.501 68.7067 352.235 68.792 351.936 68.792C351.573 68.792 351.285 68.664 351.072 68.408C350.88 68.1733 350.784 67.9067 350.784 67.608C350.784 67.544 350.784 67.4693 350.784 67.384C350.805 67.32 350.827 67.256 350.848 67.192C351.317 66.0187 351.701 64.7707 352 63.448C352.32 62.1253 352.576 60.824 352.768 59.544C352.981 58.2427 353.131 57.0373 353.216 55.928C353.301 54.8187 353.355 53.8907 353.376 53.144V44.12C353.376 43.5867 353.557 43.1387 353.92 42.776C354.304 42.392 354.763 42.2 355.296 42.2H365.408C365.941 42.2 366.389 42.392 366.752 42.776C367.136 43.1387 367.328 43.5867 367.328 44.12V52.632C367.328 53.1653 367.136 53.624 366.752 54.008C366.389 54.3707 365.941 54.552 365.408 54.552H361.504C361.333 54.552 361.269 54.6053 361.312 54.712C361.568 55.672 361.941 56.7067 362.432 57.816C362.923 58.904 363.52 59.992 364.224 61.08C364.928 62.1467 365.707 63.1493 366.56 64.088C367.435 65.0267 368.373 65.816 369.376 66.456ZM364.928 44.728C364.928 44.6 364.864 44.536 364.736 44.536H355.936C355.808 44.536 355.744 44.6 355.744 44.728V51.992C355.744 52.12 355.808 52.184 355.936 52.184H364.736C364.864 52.184 364.928 52.12 364.928 51.992V44.728ZM398.816 46.456C399.115 46.52 399.36 46.6693 399.552 46.904C399.744 47.1173 399.84 47.3733 399.84 47.672C399.84 48.0347 399.712 48.3333 399.456 48.568C399.2 48.7813 398.901 48.8667 398.56 48.824C398.027 48.7387 397.461 48.6853 396.864 48.664C396.288 48.6213 395.691 48.6 395.072 48.6C394.453 48.6 393.824 48.6107 393.184 48.632C392.565 48.6533 391.925 48.6853 391.264 48.728C391.072 48.7493 390.976 48.856 390.976 49.048V54.072C390.976 54.136 390.976 54.2 390.976 54.264C390.997 54.3067 391.019 54.36 391.04 54.424C391.573 55.64 391.84 56.952 391.84 58.36C391.84 59.4693 391.648 60.568 391.264 61.656C390.88 62.7227 390.304 63.6933 389.536 64.568C388.768 65.4213 387.797 66.1253 386.624 66.68C385.451 67.2133 384.075 67.512 382.496 67.576C382.176 67.5973 381.888 67.4907 381.632 67.256C381.397 67.0213 381.28 66.7333 381.28 66.392C381.28 66.0293 381.408 65.7307 381.664 65.496C381.92 65.24 382.219 65.112 382.56 65.112C383.797 65.0907 384.928 64.8347 385.952 64.344C386.976 63.8533 387.808 63.1707 388.448 62.296C389.088 61.4213 389.451 60.4187 389.536 59.288C389.536 59.096 389.451 59 389.28 59C389.195 59 389.12 59.0427 389.056 59.128C388.651 59.5973 388.203 59.9387 387.712 60.152C387.221 60.3653 386.731 60.472 386.24 60.472C385.6 60.472 384.981 60.3227 384.384 60.024C383.808 59.704 383.317 59.2773 382.912 58.744C382.507 58.2107 382.261 57.592 382.176 56.888C382.155 56.7813 382.144 56.6747 382.144 56.568C382.144 56.4613 382.144 56.3547 382.144 56.248C382.144 55.3947 382.325 54.6267 382.688 53.944C383.051 53.2613 383.541 52.7173 384.16 52.312C384.779 51.9067 385.461 51.704 386.208 51.704C386.549 51.704 386.901 51.7467 387.264 51.832C387.627 51.9173 387.989 52.0667 388.352 52.28C388.395 52.3013 388.448 52.312 388.512 52.312C388.64 52.312 388.704 52.2267 388.704 52.056L388.672 49.208C388.672 48.9947 388.576 48.9093 388.384 48.952C387.083 49.0373 385.803 49.1333 384.544 49.24C383.285 49.3253 382.08 49.368 380.928 49.368C380.267 49.368 379.616 49.3467 378.976 49.304C378.357 49.2613 377.771 49.1973 377.216 49.112C376.896 49.0693 376.64 48.92 376.448 48.664C376.256 48.408 376.16 48.1307 376.16 47.832C376.16 47.4693 376.288 47.1813 376.544 46.968C376.821 46.7547 377.12 46.6693 377.44 46.712C378.059 46.7973 378.699 46.8613 379.36 46.904C380.021 46.9467 380.693 46.968 381.376 46.968C382.507 46.968 383.659 46.9253 384.832 46.84C386.027 46.7547 387.211 46.6587 388.384 46.552C388.576 46.5093 388.672 46.4027 388.672 46.232L388.64 43.384C388.619 43.064 388.725 42.7867 388.96 42.552C389.195 42.3173 389.472 42.2 389.792 42.2C390.133 42.2 390.411 42.3173 390.624 42.552C390.859 42.7867 390.976 43.064 390.976 43.384V46.072C390.976 46.2853 391.093 46.3707 391.328 46.328C391.947 46.2853 392.555 46.2533 393.152 46.232C393.771 46.1893 394.379 46.168 394.976 46.168C396.32 46.168 397.6 46.264 398.816 46.456ZM384.576 56.952C384.704 57.2933 384.939 57.5813 385.28 57.816C385.643 58.0507 386.027 58.168 386.432 58.168C386.944 58.168 387.424 57.9333 387.872 57.464C388.32 56.9947 388.555 56.1947 388.576 55.064C388.576 54.9573 388.544 54.84 388.48 54.712C388.224 54.3493 387.925 54.0933 387.584 53.944C387.264 53.7947 386.933 53.72 386.592 53.72C386.016 53.72 385.504 53.9227 385.056 54.328C384.629 54.712 384.416 55.2453 384.416 55.928C384.416 56.0773 384.427 56.248 384.448 56.44C384.469 56.6107 384.512 56.7813 384.576 56.952ZM419.552 67.64C418.187 67.64 417.099 67.448 416.288 67.064C415.499 66.68 414.933 66.1893 414.592 65.592C414.251 64.9947 414.08 64.3973 414.08 63.8C414.08 63.1387 414.229 62.5413 414.528 62.008C414.848 61.432 415.211 61.016 415.616 60.76C416.021 60.504 416.448 60.376 416.896 60.376C417.493 60.376 418.123 60.5787 418.784 60.984C419.445 61.368 420.117 61.8907 420.8 62.552C421.504 63.192 422.176 63.9067 422.816 64.696C422.901 64.824 423.029 64.8667 423.2 64.824C423.989 64.5253 424.725 64.1413 425.408 63.672C426.091 63.2027 426.667 62.6373 427.136 61.976C427.648 61.208 427.904 60.376 427.904 59.48C427.904 58.456 427.541 57.5173 426.816 56.664C426.112 55.8107 425.024 55.2987 423.552 55.128C423.339 55.0853 423.125 55.064 422.912 55.064C422.72 55.064 422.517 55.064 422.304 55.064C420.491 55.064 418.763 55.4907 417.12 56.344C415.499 57.1973 413.877 58.3493 412.256 59.8C412.021 60.0133 411.723 60.12 411.36 60.12C411.104 60.12 410.88 60.056 410.688 59.928C410.389 59.736 410.24 59.4587 410.24 59.096C410.24 58.904 410.293 58.7227 410.4 58.552C411.808 56.4613 413.269 54.4133 414.784 52.408C416.32 50.4027 417.867 48.5893 419.424 46.968C419.488 46.904 419.52 46.84 419.52 46.776C419.52 46.6907 419.435 46.6587 419.264 46.68C418.667 46.7653 417.963 46.84 417.152 46.904C416.363 46.968 415.552 47 414.72 47C414.443 47 414.176 47 413.92 47C413.664 47 413.408 46.9893 413.152 46.968C412.832 46.9467 412.565 46.8187 412.352 46.584C412.139 46.328 412.032 46.04 412.032 45.72C412.032 45.3787 412.16 45.0907 412.416 44.856C412.693 44.6213 413.003 44.5147 413.344 44.536C414.219 44.6 415.061 44.632 415.872 44.632C416.96 44.632 417.995 44.568 418.976 44.44C419.979 44.312 420.96 44.088 421.92 43.768C422.005 43.7253 422.08 43.704 422.144 43.704C422.229 43.704 422.315 43.704 422.4 43.704C422.635 43.704 422.859 43.768 423.072 43.896C423.307 44.024 423.467 44.2053 423.552 44.44C423.659 44.696 423.712 44.9307 423.712 45.144C423.712 45.6347 423.52 46.0507 423.136 46.392C421.664 47.6933 420.352 49.0053 419.2 50.328C418.048 51.6293 416.939 53.048 415.872 54.584C415.829 54.6693 415.808 54.7227 415.808 54.744C415.808 54.9147 415.925 54.9467 416.16 54.84C417.461 54.1573 418.699 53.6667 419.872 53.368C421.067 53.0693 422.176 52.92 423.2 52.92C424.971 52.92 426.453 53.3147 427.648 54.104C428.843 54.8933 429.643 55.9493 430.048 57.272C430.261 57.9333 430.368 58.6373 430.368 59.384C430.368 60.856 429.909 62.2213 428.992 63.48C428.096 64.7387 426.837 65.752 425.216 66.52C423.595 67.2667 421.707 67.64 419.552 67.64ZM420.32 65.4C420.469 65.4 420.544 65.3467 420.544 65.24C420.544 65.1547 420.512 65.0693 420.448 64.984C419.68 64.088 419.019 63.4693 418.464 63.128C417.931 62.7867 417.493 62.616 417.152 62.616C416.853 62.616 416.629 62.712 416.48 62.904C416.331 63.096 416.256 63.3093 416.256 63.544C416.256 63.608 416.256 63.672 416.256 63.736C416.277 63.8 416.299 63.864 416.32 63.928C416.533 64.4613 417.013 64.856 417.76 65.112C418.507 65.3467 419.36 65.4427 420.32 65.4Z" fill="white"/>
<path d="M79.65 78C78.41 78 77.325 77.5312 76.395 76.5937C75.465 75.6562 75 74.5625 75 73.3125V32.6875C75 31.4375 75.465 30.3437 76.395 29.4062C77.325 28.4687 78.41 28 79.65 28H132.35C133.59 28 134.675 28.4687 135.605 29.4062C136.535 30.3437 137 31.4375 137 32.6875V73.3125C137 74.5625 136.535 75.6562 135.605 76.5937C134.675 77.5312 133.59 78 132.35 78H79.65ZM79.65 39.25H132.35V32.6875H79.65V39.25ZM102.745 66.125L119.175 49.5625L115.765 46.125L102.745 59.25L96.235 52.6875L92.825 56.125L102.745 66.125Z" fill="white"/>
</svg>
