<svg width="530" height="106" viewBox="0 0 530 106" fill="none" xmlns="http://www.w3.org/2000/svg">
<rect width="530" height="106" rx="53" fill="#009672"/>
<path d="M277.216 55.992C277.728 56.2267 277.984 56.632 277.984 57.208C277.984 57.528 277.877 57.7947 277.664 58.008C277.451 58.2213 277.195 58.328 276.896 58.328C276.832 58.328 276.768 58.328 276.704 58.328C276.64 58.3067 276.576 58.2853 276.512 58.264C275.531 57.8587 274.517 57.2827 273.472 56.536C272.427 55.768 271.445 54.936 270.528 54.04C269.611 53.1227 268.843 52.2587 268.224 51.448C268.16 51.3627 268.075 51.32 267.968 51.32H265.472C265.365 51.32 265.28 51.3627 265.216 51.448C264.299 52.92 263.243 54.232 262.048 55.384C260.875 56.5147 259.691 57.4533 258.496 58.2C258.283 58.3067 258.091 58.36 257.92 58.36C257.472 58.36 257.141 58.136 256.928 57.688C256.843 57.5173 256.8 57.336 256.8 57.144C256.8 56.632 257.035 56.2373 257.504 55.96C258.549 55.3413 259.467 54.6587 260.256 53.912C261.067 53.144 261.771 52.3547 262.368 51.544C262.475 51.3947 262.432 51.32 262.24 51.32H257.952C257.632 51.32 257.355 51.2133 257.12 51C256.885 50.7653 256.768 50.4773 256.768 50.136C256.768 49.816 256.885 49.5493 257.12 49.336C257.355 49.1013 257.632 48.984 257.952 48.984H263.776C263.904 48.984 263.979 48.9413 264 48.856C264.277 48.3227 264.501 47.8107 264.672 47.32C264.864 46.808 265.024 46.3173 265.152 45.848C265.195 45.6773 265.141 45.6133 264.992 45.656C264.16 45.7413 263.349 45.816 262.56 45.88C261.771 45.944 261.013 45.9973 260.288 46.04C259.968 46.04 259.691 45.9333 259.456 45.72C259.221 45.4853 259.093 45.1973 259.072 44.856C259.072 44.536 259.179 44.2587 259.392 44.024C259.627 43.7893 259.915 43.672 260.256 43.672C261.6 43.608 263.029 43.5013 264.544 43.352C266.08 43.1813 267.573 42.9787 269.024 42.744C270.496 42.488 271.797 42.2213 272.928 41.944C272.992 41.9227 273.099 41.912 273.248 41.912C273.568 41.912 273.845 42.0187 274.08 42.232C274.336 42.4453 274.464 42.7333 274.464 43.096C274.464 43.3733 274.379 43.6293 274.208 43.864C274.037 44.0987 273.813 44.2373 273.536 44.28C272.704 44.472 271.797 44.6533 270.816 44.824C269.856 44.9733 268.853 45.1333 267.808 45.304C267.723 45.3253 267.659 45.3893 267.616 45.496C267.509 46.0507 267.371 46.6053 267.2 47.16C267.029 47.7147 266.837 48.248 266.624 48.76C266.56 48.9093 266.613 48.984 266.784 48.984H276.256C276.597 48.984 276.875 49.1013 277.088 49.336C277.323 49.5493 277.44 49.816 277.44 50.136C277.44 50.4773 277.323 50.7653 277.088 51C276.875 51.2133 276.597 51.32 276.256 51.32H271.488C271.403 51.32 271.349 51.352 271.328 51.416C271.307 51.4587 271.328 51.512 271.392 51.576C272.203 52.4293 273.12 53.2613 274.144 54.072C275.168 54.8613 276.192 55.5013 277.216 55.992ZM251.488 44.28C250.955 44.0667 250.688 43.6827 250.688 43.128C250.688 42.808 250.805 42.5413 251.04 42.328C251.275 42.1147 251.541 42.008 251.84 42.008C251.904 42.008 251.968 42.008 252.032 42.008C252.096 42.008 252.16 42.0293 252.224 42.072C252.907 42.328 253.611 42.6373 254.336 43C255.083 43.3627 255.733 43.7253 256.288 44.088C256.779 44.344 257.024 44.7813 257.024 45.4C257.024 45.5707 256.992 45.752 256.928 45.944C256.864 46.136 256.747 46.2853 256.576 46.392C256.405 46.4987 256.224 46.552 256.032 46.552C255.861 46.552 255.691 46.4987 255.52 46.392C254.987 46.0293 254.357 45.656 253.632 45.272C252.907 44.888 252.192 44.5573 251.488 44.28ZM251.008 51.64C250.411 51.384 250.112 50.968 250.112 50.392C250.112 50.0507 250.219 49.784 250.432 49.592C250.667 49.3787 250.923 49.272 251.2 49.272C251.285 49.272 251.392 49.2933 251.52 49.336C252.16 49.5707 252.843 49.8587 253.568 50.2C254.315 50.52 255.008 50.8613 255.648 51.224C256.096 51.5013 256.32 51.9067 256.32 52.44C256.32 52.6107 256.288 52.7813 256.224 52.952C256.096 53.3573 255.808 53.56 255.36 53.56C255.189 53.56 255.029 53.5173 254.88 53.432C254.304 53.112 253.675 52.792 252.992 52.472C252.309 52.152 251.648 51.8747 251.008 51.64ZM265.216 54.072C265.557 54.072 265.835 54.1893 266.048 54.424C266.283 54.6373 266.4 54.9147 266.4 55.256V66.072C266.379 67.0107 266.005 67.704 265.28 68.152C264.576 68.6213 263.659 68.8453 262.528 68.824C262.187 68.824 261.888 68.6853 261.632 68.408C261.397 68.152 261.28 67.8533 261.28 67.512C261.28 67.192 261.397 66.9253 261.632 66.712C261.888 66.4987 262.176 66.4027 262.496 66.424C262.603 66.4453 262.699 66.456 262.784 66.456C262.869 66.456 262.944 66.456 263.008 66.456C263.691 66.456 264.032 66.328 264.032 66.072V55.256C264.032 54.9147 264.149 54.6373 264.384 54.424C264.619 54.1893 264.896 54.072 265.216 54.072ZM255.168 56.408C255.467 56.408 255.733 56.5253 255.968 56.76C256.203 56.9733 256.32 57.24 256.32 57.56C256.32 57.6667 256.309 57.752 256.288 57.816C256.075 58.84 255.776 59.9813 255.392 61.24C255.008 62.4987 254.592 63.736 254.144 64.952C253.717 66.168 253.301 67.2133 252.896 68.088C252.64 68.6213 252.213 68.888 251.616 68.888C251.275 68.888 250.987 68.7707 250.752 68.536C250.539 68.3227 250.432 68.0773 250.432 67.8C250.432 67.7147 250.443 67.6293 250.464 67.544C250.507 67.48 250.539 67.4053 250.56 67.32C251.285 65.8693 251.947 64.2693 252.544 62.52C253.163 60.7707 253.653 59.0533 254.016 57.368C254.08 57.0693 254.219 56.8347 254.432 56.664C254.645 56.4933 254.891 56.408 255.168 56.408ZM261.408 58.968C261.856 59.2453 262.08 59.608 262.08 60.056C262.08 60.2267 262.027 60.4187 261.92 60.632C261.643 61.1653 261.28 61.784 260.832 62.488C260.405 63.192 259.947 63.8853 259.456 64.568C258.987 65.2507 258.528 65.8587 258.08 66.392C257.867 66.648 257.589 66.776 257.248 66.776C256.907 66.776 256.608 66.648 256.352 66.392C256.117 66.1573 256 65.8693 256 65.528C256 65.208 256.117 64.9093 256.352 64.632C257.013 63.9067 257.653 63.0853 258.272 62.168C258.891 61.2507 259.424 60.344 259.872 59.448C260.085 59.0427 260.427 58.84 260.896 58.84C261.088 58.84 261.259 58.8827 261.408 58.968ZM274.816 59.48C275.307 60.184 275.829 61.0267 276.384 62.008C276.96 62.9893 277.429 63.8747 277.792 64.664C277.877 64.8133 277.92 64.9947 277.92 65.208C277.92 65.72 277.685 66.0933 277.216 66.328C277.067 66.4133 276.907 66.456 276.736 66.456C276.267 66.456 275.925 66.232 275.712 65.784C275.349 64.9733 274.869 64.0773 274.272 63.096C273.696 62.0933 273.152 61.2613 272.64 60.6C272.512 60.408 272.448 60.1947 272.448 59.96C272.448 59.5547 272.619 59.256 272.96 59.064C273.216 58.9573 273.451 58.904 273.664 58.904C274.155 58.904 274.539 59.096 274.816 59.48ZM270.016 59.864C270.443 60.5893 270.923 61.4533 271.456 62.456C271.989 63.4373 272.427 64.312 272.768 65.08C272.811 65.1653 272.843 65.2507 272.864 65.336C272.885 65.4 272.896 65.4747 272.896 65.56C272.896 66.0507 272.651 66.424 272.16 66.68C272.011 66.744 271.861 66.776 271.712 66.776C271.221 66.776 270.848 66.5307 270.592 66.04C270.208 65.1653 269.771 64.28 269.28 63.384C268.789 62.488 268.331 61.7093 267.904 61.048C267.776 60.856 267.712 60.6427 267.712 60.408C267.712 60.216 267.755 60.024 267.84 59.832C267.947 59.64 268.096 59.5013 268.288 59.416C268.501 59.3093 268.715 59.256 268.928 59.256C269.44 59.256 269.803 59.4587 270.016 59.864ZM290.976 42.776C290.613 43.9493 290.229 45.0693 289.824 46.136C289.419 47.1813 288.981 48.1733 288.512 49.112C288.469 49.1547 288.448 49.2293 288.448 49.336V67.64C288.448 67.96 288.331 68.2373 288.096 68.472C287.861 68.7067 287.573 68.824 287.232 68.824C286.891 68.824 286.603 68.7067 286.368 68.472C286.155 68.2373 286.048 67.96 286.048 67.64V53.4C286.048 53.3147 286.016 53.2613 285.952 53.24C285.909 53.2187 285.867 53.24 285.824 53.304C285.547 53.6453 285.259 53.9867 284.96 54.328C284.683 54.648 284.395 54.9573 284.096 55.256C283.883 55.4693 283.616 55.576 283.296 55.576C282.933 55.576 282.624 55.4267 282.368 55.128C282.176 54.8933 282.08 54.6267 282.08 54.328C282.08 53.9013 282.229 53.56 282.528 53.304C283.936 51.9813 285.152 50.3387 286.176 48.376C287.2 46.4133 288.043 44.3013 288.704 42.04C288.875 41.464 289.259 41.176 289.856 41.176C290.219 41.176 290.507 41.304 290.72 41.56C290.933 41.816 291.04 42.0933 291.04 42.392C291.04 42.456 291.029 42.52 291.008 42.584C291.008 42.648 290.997 42.712 290.976 42.776ZM305.216 47.864C305.216 47.992 305.28 48.056 305.408 48.056H308.32C308.64 48.056 308.917 48.1733 309.152 48.408C309.387 48.6427 309.504 48.92 309.504 49.24C309.504 49.5813 309.387 49.8693 309.152 50.104C308.917 50.3387 308.64 50.456 308.32 50.456H305.408C305.28 50.456 305.216 50.52 305.216 50.648V63.096C305.216 64.2693 305.024 65.2293 304.64 65.976C304.277 66.7227 303.787 67.2987 303.168 67.704C302.549 68.1093 301.845 68.3867 301.056 68.536C300.288 68.6853 299.499 68.76 298.688 68.76C298.539 68.76 298.368 68.76 298.176 68.76C298.005 68.76 297.835 68.7493 297.664 68.728C297.344 68.7067 297.077 68.5787 296.864 68.344C296.672 68.1093 296.576 67.8427 296.576 67.544C296.576 67.1813 296.704 66.872 296.96 66.616C297.237 66.36 297.547 66.2427 297.888 66.264C298.08 66.264 298.261 66.2747 298.432 66.296C298.624 66.296 298.805 66.296 298.976 66.296C300.277 66.296 301.237 66.0933 301.856 65.688C302.475 65.2827 302.784 64.4187 302.784 63.096V50.648C302.784 50.52 302.72 50.456 302.592 50.456H290.688C290.347 50.456 290.059 50.3387 289.824 50.104C289.611 49.8693 289.504 49.5813 289.504 49.24C289.504 48.92 289.611 48.6427 289.824 48.408C290.059 48.1733 290.347 48.056 290.688 48.056H302.592C302.72 48.056 302.784 47.992 302.784 47.864V42.52C302.784 42.2 302.901 41.9227 303.136 41.688C303.371 41.432 303.659 41.304 304 41.304C304.341 41.304 304.629 41.432 304.864 41.688C305.099 41.9227 305.216 42.2 305.216 42.52V47.864ZM296.832 61.56C296.277 61.56 295.915 61.304 295.744 60.792C295.317 59.6613 294.848 58.6373 294.336 57.72C293.824 56.7813 293.291 55.9493 292.736 55.224C292.565 54.9893 292.48 54.7547 292.48 54.52C292.48 54.072 292.672 53.752 293.056 53.56C293.163 53.496 293.28 53.4533 293.408 53.432C293.536 53.4107 293.664 53.4 293.792 53.4C294.325 53.4 294.741 53.6133 295.04 54.04C295.531 54.8293 296.053 55.768 296.608 56.856C297.184 57.944 297.643 58.9467 297.984 59.864C298.048 60.0133 298.08 60.1627 298.08 60.312C298.08 60.632 297.963 60.92 297.728 61.176C297.493 61.432 297.195 61.56 296.832 61.56ZM316.096 42.232H339.904C340.224 42.232 340.491 42.3493 340.704 42.584C340.939 42.7973 341.056 43.064 341.056 43.384C341.056 43.704 340.939 43.9813 340.704 44.216C340.491 44.4293 340.224 44.536 339.904 44.536H329.344C329.216 44.536 329.152 44.6 329.152 44.728V48.088C329.152 48.216 329.216 48.28 329.344 48.28H333.28C333.813 48.28 334.261 48.472 334.624 48.856C335.008 49.2187 335.2 49.6667 335.2 50.2V61.112C335.2 61.6453 335.008 62.104 334.624 62.488C334.261 62.8507 333.813 63.032 333.28 63.032H322.72C322.187 63.032 321.728 62.8507 321.344 62.488C320.981 62.104 320.8 61.6453 320.8 61.112V50.2C320.8 49.6667 320.981 49.2187 321.344 48.856C321.728 48.472 322.187 48.28 322.72 48.28H326.656C326.784 48.28 326.848 48.216 326.848 48.088V44.728C326.848 44.6 326.784 44.536 326.656 44.536H316.096C315.776 44.536 315.499 44.4293 315.264 44.216C315.051 43.9813 314.944 43.704 314.944 43.384C314.944 43.064 315.051 42.7973 315.264 42.584C315.499 42.3493 315.776 42.232 316.096 42.232ZM339.328 47.832C339.648 47.832 339.925 47.9493 340.16 48.184C340.395 48.3973 340.512 48.6747 340.512 49.016V66.68C340.512 67.2133 340.32 67.6613 339.936 68.024C339.573 68.408 339.125 68.6 338.592 68.6H317.408C316.875 68.6 316.416 68.408 316.032 68.024C315.669 67.6613 315.488 67.2133 315.488 66.68V49.016C315.488 48.6747 315.605 48.3973 315.84 48.184C316.075 47.9493 316.352 47.832 316.672 47.832C316.992 47.832 317.269 47.9493 317.504 48.184C317.739 48.3973 317.856 48.6747 317.856 49.016V66.136C317.856 66.264 317.92 66.328 318.048 66.328H337.952C338.08 66.328 338.144 66.264 338.144 66.136V49.016C338.144 48.6747 338.261 48.3973 338.496 48.184C338.731 47.9493 339.008 47.832 339.328 47.832ZM326.656 54.328C326.784 54.328 326.848 54.264 326.848 54.136V50.648C326.848 50.52 326.784 50.456 326.656 50.456H323.264C323.136 50.456 323.072 50.52 323.072 50.648V54.136C323.072 54.264 323.136 54.328 323.264 54.328H326.656ZM332.736 54.328C332.864 54.328 332.928 54.264 332.928 54.136V50.648C332.928 50.52 332.864 50.456 332.736 50.456H329.344C329.216 50.456 329.152 50.52 329.152 50.648V54.136C329.152 54.264 329.216 54.328 329.344 54.328H332.736ZM326.848 56.696C326.848 56.568 326.784 56.504 326.656 56.504H323.264C323.136 56.504 323.072 56.568 323.072 56.696V60.664C323.072 60.792 323.136 60.856 323.264 60.856H326.656C326.784 60.856 326.848 60.792 326.848 60.664V56.696ZM329.344 56.504C329.216 56.504 329.152 56.568 329.152 56.696V60.664C329.152 60.792 329.216 60.856 329.344 60.856H332.736C332.864 60.856 332.928 60.792 332.928 60.664V56.696C332.928 56.568 332.864 56.504 332.736 56.504H329.344ZM353.824 42.52C353.589 43.9067 353.28 45.1867 352.896 46.36C352.533 47.5333 352.117 48.6213 351.648 49.624C351.605 49.6667 351.584 49.7413 351.584 49.848V67.64C351.584 67.9813 351.467 68.2587 351.232 68.472C350.997 68.7067 350.72 68.824 350.4 68.824C350.059 68.824 349.771 68.7067 349.536 68.472C349.323 68.2587 349.216 67.9813 349.216 67.64V53.88C349.216 53.7947 349.184 53.7413 349.12 53.72C349.077 53.6987 349.035 53.72 348.992 53.784C348.843 53.976 348.693 54.1573 348.544 54.328C348.416 54.4987 348.267 54.6693 348.096 54.84C347.861 55.0747 347.595 55.192 347.296 55.192C346.933 55.192 346.624 55.032 346.368 54.712C346.197 54.4347 346.112 54.1573 346.112 53.88C346.112 53.4107 346.272 53.0373 346.592 52.76C347.957 51.3733 349.003 49.7947 349.728 48.024C350.475 46.232 351.029 44.312 351.392 42.264C351.435 41.9653 351.573 41.72 351.808 41.528C352.043 41.3147 352.309 41.208 352.608 41.208C352.971 41.208 353.28 41.336 353.536 41.592C353.792 41.848 353.888 42.1573 353.824 42.52ZM373.568 64.984C373.909 65.2613 374.08 65.624 374.08 66.072C374.08 66.328 374.037 66.5413 373.952 66.712C373.739 67.096 373.44 67.288 373.056 67.288C372.864 67.288 372.672 67.224 372.48 67.096C371.669 66.4773 370.837 65.6987 369.984 64.76C369.152 63.8213 368.352 62.7973 367.584 61.688C366.816 60.5573 366.112 59.4053 365.472 58.232C364.853 57.0373 364.331 55.896 363.904 54.808C363.84 54.68 363.744 54.648 363.616 54.712C363.445 54.8827 363.232 55.0427 362.976 55.192C362.891 55.2773 362.88 55.3733 362.944 55.48C363.179 55.736 363.392 56.0027 363.584 56.28C363.776 56.5573 363.979 56.856 364.192 57.176C364.725 58.008 365.205 58.9253 365.632 59.928C366.08 60.9307 366.507 62.0827 366.912 63.384C367.04 63.896 367.104 64.3973 367.104 64.888C367.104 65.9973 366.699 66.936 365.888 67.704C365.077 68.472 363.755 68.856 361.92 68.856C361.643 68.856 361.355 68.8347 361.056 68.792C360.779 68.7707 360.48 68.7493 360.16 68.728C359.84 68.6853 359.584 68.536 359.392 68.28C359.2 68.0453 359.104 67.768 359.104 67.448C359.104 67.0853 359.243 66.7973 359.52 66.584C359.819 66.3707 360.139 66.2853 360.48 66.328C360.757 66.3707 361.035 66.4027 361.312 66.424C361.589 66.4453 361.867 66.456 362.144 66.456C362.869 66.456 363.488 66.3387 364 66.104C364.533 65.8693 364.8 65.4533 364.8 64.856C364.8 64.5787 364.757 64.312 364.672 64.056L364.544 63.64C364.501 63.512 364.416 63.48 364.288 63.544C363.371 64.0347 362.315 64.5147 361.12 64.984C359.925 65.432 358.677 65.848 357.376 66.232C356.096 66.5947 354.869 66.8933 353.696 67.128C353.355 67.1707 353.056 67.0853 352.8 66.872C352.544 66.6373 352.416 66.3493 352.416 66.008C352.416 65.7093 352.501 65.464 352.672 65.272C352.864 65.0587 353.099 64.92 353.376 64.856C354.123 64.7067 354.944 64.5147 355.84 64.28C356.757 64.024 357.685 63.736 358.624 63.416C359.584 63.096 360.48 62.7653 361.312 62.424C362.165 62.0827 362.891 61.7413 363.488 61.4C363.595 61.336 363.627 61.2507 363.584 61.144C363.499 60.9093 363.403 60.6853 363.296 60.472C363.189 60.2587 363.083 60.056 362.976 59.864C362.912 59.736 362.827 59.704 362.72 59.768C361.867 60.2587 360.971 60.6853 360.032 61.048C359.115 61.4107 358.272 61.7093 357.504 61.944C356.267 62.328 354.997 62.648 353.696 62.904C353.355 62.968 353.056 62.8933 352.8 62.68C352.544 62.4453 352.416 62.1573 352.416 61.816C352.416 61.5173 352.501 61.2613 352.672 61.048C352.864 60.8347 353.099 60.696 353.376 60.632C354.848 60.3333 356.309 59.9387 357.76 59.448C359.211 58.9573 360.459 58.4133 361.504 57.816C361.611 57.7307 361.621 57.6453 361.536 57.56C361.429 57.3893 361.312 57.2293 361.184 57.08C361.077 56.9307 360.96 56.7813 360.832 56.632C360.768 56.5467 360.683 56.5253 360.576 56.568C359.488 57.1013 358.389 57.5387 357.28 57.88C356.171 58.2213 355.2 58.4773 354.368 58.648C354.027 58.712 353.707 58.6373 353.408 58.424C353.131 58.1893 352.992 57.88 352.992 57.496C352.992 57.2187 353.077 56.9733 353.248 56.76C353.44 56.5467 353.675 56.408 353.952 56.344C354.891 56.1093 355.797 55.8533 356.672 55.576C357.547 55.2987 358.357 55.0107 359.104 54.712C359.211 54.6693 359.253 54.6267 359.232 54.584C359.232 54.52 359.179 54.488 359.072 54.488H356.672C356.139 54.488 355.68 54.3067 355.296 53.944C354.933 53.56 354.752 53.1013 354.752 52.568V49.688C354.752 49.5173 354.677 49.4853 354.528 49.592C354.379 49.6987 354.229 49.8053 354.08 49.912C353.952 50.0187 353.813 50.1253 353.664 50.232C353.493 50.3387 353.312 50.392 353.12 50.392C352.672 50.392 352.363 50.168 352.192 49.72C352.128 49.5493 352.096 49.3787 352.096 49.208C352.096 48.6533 352.341 48.2053 352.832 47.864C353.707 47.2453 354.485 46.584 355.168 45.88C355.851 45.1547 356.427 44.44 356.896 43.736C357.237 43.2453 357.653 42.8507 358.144 42.552C358.635 42.232 359.179 42.072 359.776 42.072H365.536C365.92 42.072 366.251 42.2 366.528 42.456C366.805 42.712 366.944 43.0107 366.944 43.352C366.944 43.544 366.901 43.7147 366.816 43.864C366.581 44.3973 366.304 44.9307 365.984 45.464C365.685 45.976 365.355 46.4667 364.992 46.936C364.885 47.0853 364.917 47.16 365.088 47.16H369.92C370.453 47.16 370.901 47.352 371.264 47.736C371.648 48.0987 371.84 48.5467 371.84 49.08V52.568C371.84 53.1013 371.648 53.56 371.264 53.944C370.901 54.3067 370.453 54.488 369.92 54.488H366.528C366.357 54.488 366.304 54.5627 366.368 54.712C366.581 55.224 366.837 55.7787 367.136 56.376C367.435 56.952 367.765 57.56 368.128 58.2C368.192 58.3067 368.277 58.3387 368.384 58.296C369.088 58.0613 369.781 57.7733 370.464 57.432C371.147 57.0693 371.851 56.632 372.576 56.12C372.747 55.992 372.939 55.928 373.152 55.928C373.579 55.928 373.877 56.1307 374.048 56.536C374.133 56.7067 374.176 56.9093 374.176 57.144C374.176 57.6773 373.952 58.104 373.504 58.424C372.907 58.808 372.288 59.1707 371.648 59.512C371.029 59.832 370.4 60.1093 369.76 60.344C369.589 60.3867 369.557 60.4613 369.664 60.568C370.219 61.3573 370.816 62.1253 371.456 62.872C372.117 63.6187 372.821 64.3227 373.568 64.984ZM363.808 44.568C363.915 44.4187 363.872 44.344 363.68 44.344H359.488C359.36 44.344 359.285 44.3867 359.264 44.472C359.051 44.8133 358.784 45.1973 358.464 45.624C358.165 46.0507 357.813 46.488 357.408 46.936C357.259 47.0853 357.291 47.16 357.504 47.16H361.6C361.685 47.16 361.771 47.1173 361.856 47.032C362.283 46.6053 362.656 46.1787 362.976 45.752C363.317 45.304 363.595 44.9093 363.808 44.568ZM361.888 49.528C361.888 49.4 361.824 49.336 361.696 49.336H357.28C357.152 49.336 357.088 49.4 357.088 49.528V52.12C357.088 52.248 357.152 52.312 357.28 52.312H361.696C361.824 52.312 361.888 52.248 361.888 52.12V49.528ZM364.224 52.12C364.224 52.248 364.288 52.312 364.416 52.312H369.312C369.44 52.312 369.504 52.248 369.504 52.12V49.528C369.504 49.4 369.44 49.336 369.312 49.336H364.416C364.288 49.336 364.224 49.4 364.224 49.528V52.12Z" fill="white"/>
<path d="M102.167 78C101.056 78 100.083 77.5833 99.25 76.75C98.4167 75.9167 98 74.9444 98 73.8333V32.1667C98 31.0556 98.4167 30.0833 99.25 29.25C100.083 28.4167 101.056 28 102.167 28H143.833C144.944 28 145.917 28.4167 146.75 29.25C147.583 30.0833 148 31.0556 148 32.1667V73.8333C148 74.9444 147.583 75.9167 146.75 76.75C145.917 77.5833 144.944 78 143.833 78H102.167ZM106.056 67.0972H140.014L129.806 53.4861L120.639 65.3611L114.181 56.5417L106.056 67.0972Z" fill="white"/>
</svg>
