<svg width="100" height="8" viewBox="0 0 1000 80" fill="none" xmlns="http://www.w3.org/2000/svg">
<rect width="1000" height="80" fill="#F5F5F5"/>
<g clip-path="url(#clip0_0_1)">
<rect width="200" height="80" fill="white"/>
<path d="M30.884 29.3587L46.7721 40.4251C51.4064 43.6531 57.7588 40.3464 57.7729 34.6986L57.828 12.6453C57.8421 6.99754 51.5063 3.65911 46.8559 6.86387L30.9127 17.8508C26.8877 20.6246 26.8729 26.5649 30.884 29.3587Z" stroke="#F2577C" stroke-width="4"/>
<rect width="19" height="21" transform="matrix(-1 0 0 1 68 29)" fill="white"/>
<path d="M49.323 16.204C44.1481 19.7702 44.129 27.4078 49.2861 30.9999L65.1742 42.0663C71.1327 46.2165 79.3 41.965 79.3181 34.7036L79.3732 12.6503C79.3913 5.3889 71.2454 1.09664 65.2662 5.21704L49.323 16.204Z" fill="#F2577C"/>
<path d="M164.36 20.2863C169.517 23.8784 169.498 31.5157 164.323 35.082L148.381 46.0685C142.402 50.1891 134.256 45.8969 134.274 38.6354L134.329 16.5829C134.347 9.32143 142.514 5.06992 148.473 9.22029L164.36 20.2863Z" fill="#F2577C"/>
<path d="M59.4675 19.3146C58.5311 22.9954 59.2265 25.6993 63.6822 26.8329C68.1379 27.9665 70.1397 25.4465 71.0761 21.7656C72.0126 18.0848 77.2791 14.5091 72.8233 13.3755C68.3676 12.2419 60.404 15.6338 59.4675 19.3146Z" fill="white"/>
<path d="M99.6571 23.8266C102.077 25.8326 102.068 29.5475 99.6378 31.5414L89.773 39.6357C86.505 42.3172 81.5908 39.9851 81.6014 35.7579L81.6419 19.52C81.6525 15.2928 86.5783 12.9853 89.8328 15.6831L99.6571 23.8266Z" fill="#F2577C"/>
<path d="M106.21 21.8557C102.185 24.6294 102.17 30.5696 106.181 33.3634L121.348 43.9281C125.983 47.1562 132.335 43.8494 132.349 38.2017L132.402 17.1482C132.416 11.5004 126.08 8.16202 121.43 11.3669L106.21 21.8557Z" fill="#F2577C"/>
<path d="M44.0378 41.1961C48.9847 44.689 50.7403 45.7467 53.0301 45.8215C55.32 45.8964 58.2883 45.6463 58.3821 42.7752C58.4449 40.8532 52.1742 39.6838 48.7863 38.7602C39.5309 36.2369 37.922 36.8777 44.0378 41.1961Z" fill="#F2577C"/>
<path d="M40.2896 35C45.6088 37.8361 50.7168 39.5776 52.4414 39.8619C54.5109 41.2835 50.1639 41.1433 50.1639 40.6723C43.2656 40.388 41.3244 36.2648 40.2896 35.6962C38.5752 35.6962 38.5651 35.2843 40.2896 35Z" fill="#F2577C"/>
<path d="M77.6662 66.8482C77.4155 67.1938 77.0609 67.4501 76.6541 67.5796L58.6701 73.3062C56.5036 73.9961 55.0489 71.1113 56.8918 69.7795L85.9573 48.7749C87.8002 47.4431 90.0827 49.7297 88.7477 51.5702L77.6662 66.8482Z" fill="#F2577C"/>
<path d="M106.909 53.7204C106.997 54.138 106.95 54.573 106.774 54.9619L98.9799 72.1512C98.041 74.222 94.9246 73.3698 95.1701 71.1094L99.0422 35.4582C99.2877 33.1978 102.514 33.0345 102.987 35.2586L106.909 53.7204Z" fill="#F2577C"/>
<path d="M133.903 54.6046C134.314 54.7229 134.675 54.9694 134.935 55.308L146.432 70.276C147.817 72.0792 145.598 74.4275 143.719 73.1469L114.088 52.9481C112.209 51.6674 113.584 48.7437 115.769 49.3739L133.903 54.6046Z" fill="#F2577C"/>
</g>
<g clip-path="url(#clip1_0_1)">
<rect width="200" height="80" transform="translate(200)" fill="white"/>
<path d="M230.884 29.3587L246.772 40.4251C251.406 43.6531 257.759 40.3464 257.773 34.6986L257.828 12.6453C257.842 6.99754 251.506 3.65911 246.856 6.86387L230.913 17.8508C226.888 20.6246 226.873 26.5649 230.884 29.3587Z" stroke="#F2577C" stroke-width="4"/>
<rect width="19" height="21" transform="matrix(-1 0 0 1 268 29)" fill="white"/>
<path d="M249.323 16.204C244.148 19.7702 244.129 27.4078 249.286 30.9999L265.174 42.0663C271.133 46.2165 279.3 41.965 279.318 34.7036L279.373 12.6503C279.391 5.3889 271.245 1.09664 265.266 5.21704L249.323 16.204Z" fill="#F2577C"/>
<path d="M364.712 21.2863C369.869 24.8784 369.85 32.5157 364.675 36.082L348.733 47.0685C342.754 51.1891 334.608 46.8969 334.626 39.6354L334.681 17.5829C334.699 10.3214 342.867 6.06992 348.825 10.2203L364.712 21.2863Z" fill="#F2577C"/>
<path d="M259.468 19.3146C258.531 22.9954 259.226 25.6993 263.682 26.8329C268.138 27.9665 270.14 25.4465 271.076 21.7656C272.013 18.0848 277.279 14.5091 272.823 13.3755C268.368 12.2419 260.404 15.6338 259.468 19.3146Z" fill="white"/>
<path d="M299.657 21.8266C302.077 23.8326 302.068 27.5475 299.638 29.5414L289.773 37.6357C286.505 40.3172 281.591 37.9851 281.601 33.7579L281.642 17.52C281.652 13.2928 286.578 10.9853 289.833 13.6831L299.657 21.8266Z" fill="#F2577C"/>
<path d="M306.388 20.8557C302.363 23.6294 302.348 29.5696 306.359 32.3634L321.526 42.9281C326.161 46.1562 332.513 42.8494 332.527 37.2017L332.58 16.1482C332.594 10.5004 326.258 7.16202 321.608 10.3669L306.388 20.8557Z" fill="#F2577C"/>
<path d="M244.038 41.1961C248.985 44.689 250.74 45.7467 253.03 45.8215C255.32 45.8964 258.288 45.6463 258.382 42.7752C258.445 40.8532 252.174 39.6838 248.786 38.7602C239.531 36.2369 237.922 36.8777 244.038 41.1961Z" fill="#F2577C"/>
<path d="M240.29 35C245.609 37.8361 250.717 39.5776 252.441 39.8619C254.511 41.2835 250.164 41.1433 250.164 40.6723C243.266 40.388 241.324 36.2648 240.29 35.6962C238.575 35.6962 238.565 35.2843 240.29 35Z" fill="#F2577C"/>
<path d="M274.869 65.0485C274.564 65.3476 274.172 65.5414 273.749 65.6015L255.064 68.2594C252.813 68.5796 251.858 65.4931 253.896 64.4861L286.049 48.6046C288.087 47.5977 289.958 50.2318 288.336 51.8249L274.869 65.0485Z" fill="#F2577C"/>
<path d="M309.927 52.4677C310.081 52.8657 310.104 53.3027 309.993 53.7148L305.054 71.931C304.459 74.1255 301.247 73.7838 301.127 71.5132L299.235 35.7024C299.115 33.4318 302.274 32.7535 303.097 34.8731L309.927 52.4677Z" fill="#F2577C"/>
<path d="M333.3 54.4748C333.689 54.6508 334.011 54.9466 334.22 55.3189L343.451 71.7812C344.563 73.7644 342.03 75.7702 340.355 74.2333L313.927 49.9932C312.252 48.4563 314.032 45.76 316.103 46.697L333.3 54.4748Z" fill="#F2577C"/>
</g>
<g clip-path="url(#clip2_0_1)">
<rect width="200" height="80" transform="translate(400)" fill="white"/>
<path d="M430.884 30.3587L446.772 41.4251C451.406 44.6531 457.759 41.3464 457.773 35.6986L457.828 13.6453C457.842 7.99754 451.506 4.65911 446.856 7.86387L430.913 18.8508C426.888 21.6246 426.873 27.5649 430.884 30.3587Z" stroke="#F2577C" stroke-width="4"/>
<rect width="19" height="21" transform="matrix(-1 0 0 1 468 30)" fill="white"/>
<path d="M449.323 17.204C444.148 20.7702 444.129 28.4078 449.286 31.9999L465.174 43.0663C471.133 47.2165 479.3 42.965 479.318 35.7036L479.373 13.6503C479.391 6.3889 471.245 2.09664 465.266 6.21704L449.323 17.204Z" fill="#F2577C"/>
<path d="M564.36 20.2863C569.517 23.8784 569.498 31.5157 564.323 35.082L548.381 46.0685C542.402 50.1891 534.256 45.8969 534.274 38.6354L534.329 16.5829C534.347 9.32143 542.514 5.06992 548.473 9.22029L564.36 20.2863Z" fill="#F2577C"/>
<path d="M459.468 20.3146C458.531 23.9954 459.226 26.6993 463.682 27.8329C468.138 28.9665 470.14 26.4465 471.076 22.7656C472.013 19.0848 477.279 15.5091 472.823 14.3755C468.368 13.2419 460.404 16.6338 459.468 20.3146Z" fill="white"/>
<path d="M499.657 20.8266C502.077 22.8326 502.068 26.5475 499.638 28.5414L489.773 36.6357C486.505 39.3172 481.591 36.9851 481.601 32.7579L481.642 16.52C481.652 12.2928 486.578 9.98534 489.833 12.6831L499.657 20.8266Z" fill="#F2577C"/>
<path d="M506.388 18.8557C502.363 21.6294 502.348 27.5696 506.359 30.3634L521.526 40.9281C526.161 44.1562 532.513 40.8494 532.527 35.2017L532.58 14.1482C532.594 8.50042 526.258 5.16202 521.608 8.3669L506.388 18.8557Z" fill="#F2577C"/>
<path d="M444.038 42.1961C448.985 45.689 450.74 46.7467 453.03 46.8215C455.32 46.8964 458.288 46.6463 458.382 43.7752C458.445 41.8532 452.174 40.6838 448.786 39.7602C439.531 37.2369 437.922 37.8777 444.038 42.1961Z" fill="#F2577C"/>
<path d="M440.29 36C445.609 38.8361 450.717 40.5776 452.441 40.8619C454.511 42.2835 450.164 42.1433 450.164 41.6723C443.266 41.388 441.324 37.2648 440.29 36.6962C438.575 36.6962 438.565 36.2843 440.29 36Z" fill="#F2577C"/>
<path d="M473.086 64.2575C472.752 64.5229 472.342 64.6744 471.915 64.6898L453.053 65.3686C450.781 65.4504 450.156 62.2806 452.289 61.4935L485.933 49.08C488.066 48.293 489.65 51.1091 487.869 52.5228L473.086 64.2575Z" fill="#F2577C"/>
<path d="M503.846 57.4021C503.897 57.8258 503.812 58.255 503.602 58.6268L494.326 75.0638C493.209 77.044 490.179 75.9209 490.623 73.6908L497.616 38.5186C498.06 36.2886 501.288 36.4098 501.563 38.6668L503.846 57.4021Z" fill="#F2577C"/>
<path d="M530.393 55.5052C530.723 55.7757 530.958 56.1449 531.064 56.5586L535.722 74.8483C536.284 77.0517 533.318 78.3341 532.097 76.416L512.839 46.1651C511.618 44.2471 514.035 42.1031 515.793 43.544L530.393 55.5052Z" fill="#F2577C"/>
</g>
<g clip-path="url(#clip3_0_1)">
<rect width="200" height="80" transform="translate(600)" fill="white"/>
<path d="M630.884 37.3587L646.772 48.4251C651.406 51.6531 657.759 48.3464 657.773 42.6986L657.828 20.6453C657.842 14.9975 651.506 11.6591 646.856 14.8639L630.913 25.8508C626.888 28.6246 626.873 34.5649 630.884 37.3587Z" stroke="#F2577C" stroke-width="4"/>
<rect width="19" height="21" transform="matrix(-1 0 0 1 668 37)" fill="white"/>
<path d="M649.323 24.204C644.148 27.7702 644.129 35.4078 649.286 38.9999L665.174 50.0663C671.133 54.2165 679.3 49.965 679.318 42.7036L679.373 20.6503C679.391 13.3889 671.245 9.09664 665.266 13.217L649.323 24.204Z" fill="#F2577C"/>
<path d="M764.36 22.2908C769.517 25.8828 769.498 33.5202 764.323 37.0864L748.381 48.073C742.402 52.1936 734.256 47.9013 734.274 40.6399L734.329 18.5873C734.347 11.3259 742.514 7.07438 748.473 11.2247L764.36 22.2908Z" fill="#F2577C"/>
<path d="M659.468 27.3146C658.531 30.9954 659.226 33.6993 663.682 34.8329C668.138 35.9665 670.14 33.4465 671.076 29.7656C672.013 26.0848 677.279 22.5091 672.823 21.3755C668.368 20.2419 660.404 23.6338 659.468 27.3146Z" fill="white"/>
<path d="M699.657 21.8266C702.077 23.8326 702.068 27.5475 699.638 29.5414L689.773 37.6357C686.505 40.3172 681.591 37.9851 681.601 33.7579L681.642 17.52C681.652 13.2928 686.578 10.9853 689.833 13.6831L699.657 21.8266Z" fill="#F2577C"/>
<path d="M706.388 19.8557C702.363 22.6294 702.348 28.5696 706.359 31.3634L721.526 41.9281C726.161 45.1562 732.513 41.8494 732.527 36.2017L732.58 15.1482C732.594 9.50042 726.258 6.16202 721.608 9.3669L706.388 19.8557Z" fill="#F2577C"/>
<path d="M644.038 49.1961C648.985 52.689 650.74 53.7467 653.03 53.8215C655.32 53.8964 658.288 53.6463 658.382 50.7752C658.445 48.8532 652.174 47.6838 648.786 46.7602C639.531 44.2369 637.922 44.8777 644.038 49.1961Z" fill="#F2577C"/>
<path d="M640.29 43C645.609 45.8361 650.717 47.5776 652.441 47.8619C654.511 49.2835 650.164 49.1433 650.164 48.6723C643.266 48.388 641.324 44.2648 640.29 43.6962C638.575 43.6962 638.565 43.2843 640.29 43Z" fill="#F2577C"/>
<path d="M676.406 65.0232C676.127 65.3464 675.752 65.5718 675.336 65.6665L656.932 69.8522C654.715 70.3564 653.509 67.3589 655.458 66.1877L686.196 47.7156C688.144 46.5444 690.225 49.0158 688.74 50.7368L676.406 65.0232Z" fill="#F2577C"/>
<path d="M705.741 57.7267C705.867 58.1345 705.859 58.572 705.719 58.9752L699.518 76.8011C698.771 78.9486 695.59 78.3828 695.629 76.1094L696.249 40.254C696.288 37.9806 699.487 37.5251 700.159 39.6971L705.741 57.7267Z" fill="#F2577C"/>
<path d="M732.56 54.0477C732.923 54.272 733.205 54.6067 733.365 55.0028L740.408 72.5131C741.256 74.6226 738.487 76.2869 737.023 74.5478L713.922 47.1182C712.458 45.3791 714.569 42.9334 716.503 44.1284L732.56 54.0477Z" fill="#F2577C"/>
</g>
<g clip-path="url(#clip4_0_1)">
<rect width="200" height="80" transform="translate(800)" fill="white"/>
<path d="M830.884 37.3587L846.772 48.4251C851.406 51.6531 857.759 48.3464 857.773 42.6986L857.828 20.6453C857.842 14.9975 851.506 11.6591 846.856 14.8639L830.913 25.8508C826.888 28.6246 826.873 34.5649 830.884 37.3587Z" stroke="#F2577C" stroke-width="4"/>
<rect width="19" height="21" transform="matrix(-1 0 0 1 868 37)" fill="white"/>
<path d="M849.323 24.204C844.148 27.7702 844.129 35.4078 849.286 38.9999L865.174 50.0663C871.133 54.2165 879.3 49.965 879.318 42.7036L879.373 20.6503C879.391 13.3889 871.245 9.09664 865.266 13.217L849.323 24.204Z" fill="#F2577C"/>
<path d="M964.712 24.2863C969.869 27.8784 969.85 35.5157 964.675 39.082L948.733 50.0685C942.754 54.1891 934.608 49.8969 934.626 42.6354L934.681 20.5829C934.699 13.3214 942.867 9.06992 948.825 13.2203L964.712 24.2863Z" fill="#F2577C"/>
<path d="M859.468 27.3146C858.531 30.9954 859.226 33.6993 863.682 34.8329C868.138 35.9665 870.14 33.4465 871.076 29.7656C872.013 26.0848 877.279 22.5091 872.823 21.3755C868.368 20.2419 860.404 23.6338 859.468 27.3146Z" fill="white"/>
<path d="M899.657 26.8266C902.077 28.8326 902.068 32.5475 899.638 34.5414L889.773 42.6357C886.505 45.3172 881.591 42.9851 881.601 38.7579L881.642 22.52C881.652 18.2928 886.578 15.9853 889.833 18.6831L899.657 26.8266Z" fill="#F2577C"/>
<path d="M906.388 23.8557C902.363 26.6294 902.348 32.5696 906.359 35.3634L921.526 45.9281C926.161 49.1562 932.513 45.8494 932.527 40.2017L932.58 19.1482C932.594 13.5004 926.258 10.162 921.608 13.3669L906.388 23.8557Z" fill="#F2577C"/>
<path d="M844.038 49.1961C848.985 52.689 850.74 53.7467 853.03 53.8215C855.32 53.8964 858.288 53.6463 858.382 50.7752C858.445 48.8532 852.174 47.6838 848.786 46.7602C839.531 44.2369 837.922 44.8777 844.038 49.1961Z" fill="#F2577C"/>
<path d="M840.29 43C845.609 45.8361 850.717 47.5776 852.441 47.8619C854.511 49.2835 850.164 49.1433 850.164 48.6723C843.266 48.388 841.324 44.2648 840.29 43.6962C838.575 43.6962 838.565 43.2843 840.29 43Z" fill="#F2577C"/>
<path d="M876.406 65.0232C876.127 65.3464 875.752 65.5718 875.336 65.6665L856.932 69.8522C854.715 70.3564 853.509 67.3589 855.458 66.1877L886.196 47.7156C888.144 46.5444 890.225 49.0158 888.74 50.7368L876.406 65.0232Z" fill="#F2577C"/>
<path d="M907.741 55.7267C907.867 56.1345 907.859 56.572 907.719 56.9752L901.518 74.8011C900.771 76.9486 897.59 76.3828 897.629 74.1094L898.249 38.254C898.288 35.9806 901.487 35.5251 902.159 37.6971L907.741 55.7267Z" fill="#F2577C"/>
<path d="M931.718 55.0454C932.104 55.2277 932.421 55.5288 932.624 55.9045L941.584 72.5157C942.664 74.5168 940.098 76.4809 938.448 74.9167L912.421 50.2474C910.771 48.6832 912.594 46.0165 914.651 46.9872L931.718 55.0454Z" fill="#F2577C"/>
</g>
<defs>
<clipPath id="clip0_0_1">
<rect width="200" height="80" fill="white"/>
</clipPath>
<clipPath id="clip1_0_1">
<rect width="200" height="80" fill="white" transform="translate(200)"/>
</clipPath>
<clipPath id="clip2_0_1">
<rect width="200" height="80" fill="white" transform="translate(400)"/>
</clipPath>
<clipPath id="clip3_0_1">
<rect width="200" height="80" fill="white" transform="translate(600)"/>
</clipPath>
<clipPath id="clip4_0_1">
<rect width="200" height="80" fill="white" transform="translate(800)"/>
</clipPath>
</defs>
</svg>
