<svg width="200" height="80" viewBox="0 0 200 80" fill="none" xmlns="http://www.w3.org/2000/svg">
<g clip-path="url(#clip0_6_2)">
<path d="M30.884 29.3587L46.7721 40.4251C51.4064 43.6531 57.7588 40.3464 57.7729 34.6986L57.828 12.6453C57.8421 6.99754 51.5063 3.65911 46.8559 6.86387L30.9127 17.8508C26.8877 20.6246 26.8729 26.5649 30.884 29.3587Z" stroke="#F2577C" stroke-width="4"/>
<rect width="19" height="21" transform="matrix(-0.763802 -0.645451 -0.645451 0.763802 72.5333 37.6119)" fill="#F6F3EE"/>
<path d="M49.323 16.204C44.1481 19.7702 44.129 27.4078 49.2861 30.9999L65.1742 42.0663C71.1327 46.2165 79.3 41.965 79.3181 34.7036L79.3732 12.6503C79.3913 5.3889 71.2454 1.09664 65.2662 5.21704L49.323 16.204Z" fill="#F2577C"/>
<path d="M164.36 20.2863C169.517 23.8784 169.498 31.5157 164.323 35.082L148.381 46.0685C142.402 50.1891 134.256 45.8969 134.274 38.6354L134.329 16.5829C134.347 9.32143 142.514 5.06992 148.473 9.22029L164.36 20.2863Z" fill="#F2577C"/>
<path d="M59.4675 19.3146C58.5311 22.9954 59.2265 25.6993 63.6822 26.8329C68.1379 27.9665 70.1397 25.4465 71.0761 21.7656C72.0126 18.0848 77.2791 14.5091 72.8233 13.3755C68.3676 12.2419 60.404 15.6338 59.4675 19.3146Z" fill="#F6F3EE"/>
<path d="M99.6571 23.8266C102.077 25.8326 102.068 29.5475 99.6378 31.5414L89.773 39.6357C86.505 42.3172 81.5908 39.9851 81.6014 35.7579L81.6419 19.52C81.6525 15.2928 86.5783 12.9853 89.8328 15.6831L99.6571 23.8266Z" fill="#F2577C"/>
<path d="M106.21 21.8557C102.185 24.6294 102.17 30.5696 106.181 33.3634L121.348 43.9281C125.983 47.1562 132.335 43.8494 132.349 38.2017L132.402 17.1482C132.416 11.5004 126.08 8.16202 121.43 11.3669L106.21 21.8557Z" fill="#F2577C"/>
<path d="M44.0378 41.1961C48.9847 44.689 50.7403 45.7467 53.0301 45.8215C55.32 45.8964 58.2883 45.6463 58.3821 42.7752C58.4449 40.8532 52.1742 39.6838 48.7863 38.7602C39.5309 36.2369 37.922 36.8777 44.0378 41.1961Z" fill="#F2577C"/>
<path d="M40.2896 35C45.6088 37.8361 50.7168 39.5776 52.4414 39.8619C54.5109 41.2835 50.1639 41.1433 50.1639 40.6723C43.2656 40.388 41.3244 36.2648 40.2896 35.6962C38.5752 35.6962 38.5651 35.2843 40.2896 35Z" fill="#F2577C"/>
<path d="M77.6662 66.8482C77.4155 67.1938 77.0609 67.4501 76.6541 67.5796L58.6701 73.3062C56.5036 73.9961 55.0489 71.1113 56.8918 69.7795L85.9573 48.7749C87.8002 47.4431 90.0827 49.7297 88.7477 51.5702L77.6662 66.8482Z" fill="#F2577C"/>
<path d="M106.909 53.7204C106.997 54.138 106.95 54.573 106.774 54.9619L98.9799 72.1512C98.041 74.222 94.9246 73.3698 95.1701 71.1094L99.0422 35.4582C99.2877 33.1978 102.514 33.0345 102.987 35.2586L106.909 53.7204Z" fill="#F2577C"/>
<path d="M133.903 54.6046C134.314 54.7229 134.675 54.9694 134.935 55.308L146.432 70.276C147.817 72.0792 145.598 74.4275 143.719 73.1469L114.088 52.9481C112.209 51.6674 113.584 48.7437 115.769 49.3739L133.903 54.6046Z" fill="#F2577C"/>
</g>
<defs>
<clipPath id="clip0_6_2">
<rect width="200" height="80" fill="white"/>
</clipPath>
</defs>
</svg>
