<svg width="59" height="55" viewBox="0 0 59 55" fill="none" xmlns="http://www.w3.org/2000/svg">
<path d="M37.6125 55H11.0625V49.5H37.7047C42.0068 49.5 45.7096 48.0792 48.8133 45.2375C51.9169 42.3958 53.4688 38.8667 53.4688 34.65C53.4688 30.4333 51.9169 26.9042 48.8133 24.0625C45.7096 21.2208 42.0068 19.8 37.7047 19.8H10.5094L21.0187 30.25L17.1469 34.1L0 17.05L17.1469 0L21.0187 3.85L10.5094 14.3H37.6125C43.451 14.3 48.4753 16.2556 52.6852 20.1667C56.8951 24.0778 59 28.9056 59 34.65C59 40.3944 56.8951 45.2222 52.6852 49.1333C48.4753 53.0444 43.451 55 37.6125 55Z" fill="#009672"/>
</svg>
