<svg width="150" height="150" viewBox="0 0 150 150" fill="none" xmlns="http://www.w3.org/2000/svg">
<path d="M74.9119 86.1927C67.0388 86.1927 59.9001 88.396 53.4959 92.8026C47.0917 97.2092 42.3619 103.055 39.3067 110.341H110.517C107.579 103.055 102.879 97.2092 96.416 92.8026C89.953 88.396 82.785 86.1927 74.9119 86.1927ZM42.6557 73.5018L51.4689 65.5699L59.4007 73.5018L64.8649 67.1563L56.933 59.2244L64.8649 51.2926L59.4007 44.9471L51.4689 52.879L42.6557 44.9471L37.1915 51.2926L45.1234 59.2244L37.1915 67.1563L42.6557 73.5018ZM90.5993 73.5018L98.3549 65.5699L107.344 73.5018L112.808 67.1563L104.877 59.2244L112.808 51.2926L107.344 44.9471L98.3549 52.879L90.5993 44.9471L85.1351 51.2926L92.8907 59.2244L85.1351 67.1563L90.5993 73.5018ZM74.9119 150C64.5711 150 54.8472 148.061 45.7403 144.183C36.6334 140.306 28.6722 134.959 21.8566 128.143C15.0411 121.328 9.69448 113.367 5.81669 104.26C1.9389 95.1528 0 85.4289 0 75.0881C0 64.6298 1.9389 54.8472 5.81669 45.7403C9.69448 36.6334 15.0411 28.7015 21.8566 21.9448C28.6722 15.188 36.6334 9.84136 45.7403 5.90482C54.8472 1.96827 64.5711 0 74.9119 0C85.3702 0 95.1528 1.96827 104.26 5.90482C113.367 9.84136 121.298 15.188 128.055 21.9448C134.812 28.7015 140.159 36.6334 144.095 45.7403C148.032 54.8472 150 64.6298 150 75.0881C150 85.4289 148.032 95.1528 144.095 104.26C140.159 113.367 134.812 121.328 128.055 128.143C121.298 134.959 113.367 140.306 104.26 144.183C95.1528 148.061 85.3702 150 74.9119 150Z" fill="#4DB4FF"/>
</svg>
