<svg width="60" height="60" viewBox="0 0 60 60" fill="none" xmlns="http://www.w3.org/2000/svg">
<path d="M25.575 43.65L46.8 22.425L43.35 19.05L25.575 36.825L16.575 27.825L13.2 31.2L25.575 43.65ZM30 60C25.9 60 22.025 59.2125 18.375 57.6375C14.725 56.0625 11.5375 53.9125 8.8125 51.1875C6.0875 48.4625 3.9375 45.275 2.3625 41.625C0.7875 37.975 0 34.1 0 30C0 25.85 0.7875 21.95 2.3625 18.3C3.9375 14.65 6.0875 11.475 8.8125 8.775C11.5375 6.075 14.725 3.9375 18.375 2.3625C22.025 0.7875 25.9 0 30 0C34.15 0 38.05 0.7875 41.7 2.3625C45.35 3.9375 48.525 6.075 51.225 8.775C53.925 11.475 56.0625 14.65 57.6375 18.3C59.2125 21.95 60 25.85 60 30C60 34.1 59.2125 37.975 57.6375 41.625C56.0625 45.275 53.925 48.4625 51.225 51.1875C48.525 53.9125 45.35 56.0625 41.7 57.6375C38.05 59.2125 34.15 60 30 60Z" fill="#009672"/>
</svg>
