<svg width="118" height="118" viewBox="0 0 118 118" fill="none" xmlns="http://www.w3.org/2000/svg">
<path d="M58.9307 67.8049C52.7372 67.8049 47.1214 69.5382 42.0834 73.0047C37.0455 76.4712 33.3247 81.0699 30.9213 86.8016H86.94C84.6288 81.0699 80.9315 76.4712 75.8473 73.0047C70.763 69.5382 65.1242 67.8049 58.9307 67.8049ZM33.5558 57.8214L40.4889 51.5817L46.7285 57.8214L51.0271 52.8296L44.7873 46.5899L51.0271 40.3502L46.7285 35.3584L40.4889 41.5981L33.5558 35.3584L29.2573 40.3502L35.4971 46.5899L29.2573 52.8296L33.5558 57.8214ZM71.2714 57.8214L77.3725 51.5817L84.4439 57.8214L88.7423 52.8296L82.5032 46.5899L88.7423 40.3502L84.4439 35.3584L77.3725 41.5981L71.2714 35.3584L66.9729 40.3502L73.074 46.5899L66.9729 52.8296L71.2714 57.8214ZM58.9307 118C50.7959 118 43.1465 116.475 35.9824 113.424C28.8183 110.374 22.5555 106.168 17.1939 100.806C11.8323 95.4447 7.62632 89.182 4.5758 82.0179C1.52527 74.8535 0 67.2041 0 59.0693C0 50.8421 1.52527 43.1465 4.5758 35.9824C7.62632 28.8183 11.8323 22.5785 17.1939 17.2632C22.5555 11.9479 28.8183 7.74187 35.9824 4.64513C43.1465 1.54837 50.7959 0 58.9307 0C67.1579 0 74.8535 1.54837 82.0179 4.64513C89.182 7.74187 95.4211 11.9479 100.737 17.2632C106.052 22.5785 110.258 28.8183 113.355 35.9824C116.452 43.1465 118 50.8421 118 59.0693C118 67.2041 116.452 74.8535 113.355 82.0179C110.258 89.182 106.052 95.4447 100.737 100.806C95.4211 106.168 89.182 110.374 82.0179 113.424C74.8535 116.475 67.1579 118 58.9307 118Z" fill="#009672"/>
</svg>
