<svg width="923" height="350" viewBox="0 0 923 350" fill="none" xmlns="http://www.w3.org/2000/svg">
<rect y="30" width="726" height="290" rx="136" fill="#FFDBEC"/>
<path d="M877.668 153.344C895.874 162.042 895.874 187.958 877.668 196.656L640.095 310.147C624.167 317.757 605.75 306.144 605.75 288.491V61.5085C605.75 43.8555 624.167 32.2434 640.095 39.8527L877.668 153.344Z" fill="#FFDBEC"/>
<path d="M352.62 147.8C351.42 147.8 350.38 147.4 349.5 146.6C348.7 145.72 348.3 144.68 348.3 143.48C348.3 142.28 348.7 141.24 349.5 140.36C350.38 139.48 351.42 139.04 352.62 139.04C355.42 138.96 358.98 138.8 363.3 138.56C367.7 138.32 372.54 138.04 377.82 137.72C383.1 137.32 388.5 136.84 394.02 136.28C399.54 135.64 404.82 134.92 409.86 134.12C414.98 133.32 419.54 132.36 423.54 131.24C423.78 131.16 424.14 131.12 424.62 131.12C425.74 131.12 426.7 131.52 427.5 132.32C428.3 133.04 428.7 134.08 428.7 135.44C428.7 136.4 428.42 137.28 427.86 138.08C427.3 138.88 426.5 139.4 425.46 139.64C421.78 140.68 417.5 141.64 412.62 142.52C407.74 143.32 402.54 144.04 397.02 144.68C391.58 145.24 386.1 145.76 380.58 146.24C375.14 146.64 369.98 147 365.1 147.32C360.3 147.56 356.14 147.72 352.62 147.8ZM348.9 187.88C347.62 187.88 346.54 187.48 345.66 186.68C344.86 185.8 344.46 184.72 344.46 183.44V169.4C344.46 167.4 345.14 165.72 346.5 164.36C347.94 162.92 349.66 162.2 351.66 162.2H364.38C365.1 162.2 365.3 161.92 364.98 161.36C364.5 160.32 363.94 159.32 363.3 158.36C362.74 157.4 362.14 156.44 361.5 155.48C360.94 154.6 360.66 153.84 360.66 153.2C360.66 151.68 361.38 150.64 362.82 150.08C363.54 149.84 364.26 149.72 364.98 149.72C366.1 149.72 367.1 149.96 367.98 150.44C368.94 150.92 369.7 151.64 370.26 152.6C371.06 153.96 371.82 155.44 372.54 157.04C373.34 158.56 374.06 160.08 374.7 161.6C374.78 162 375.06 162.2 375.54 162.2H385.02C385.74 162.2 385.94 161.92 385.62 161.36C385.06 160 384.42 158.68 383.7 157.4C383.06 156.04 382.3 154.68 381.42 153.32C380.94 152.6 380.7 151.8 380.7 150.92C380.7 149.24 381.46 148.08 382.98 147.44C383.38 147.28 383.74 147.16 384.06 147.08C384.46 147 384.82 146.96 385.14 146.96C387.46 146.96 389.1 147.96 390.06 149.96C391.74 153.64 393.3 157.52 394.74 161.6C394.9 162 395.18 162.2 395.58 162.2H403.38C403.7 162.2 403.98 162.08 404.22 161.84C406.86 159.68 409.18 157.24 411.18 154.52C413.18 151.72 414.82 148.92 416.1 146.12C417.06 144.12 418.58 143.12 420.66 143.12C421.94 143.12 422.98 143.56 423.78 144.44C424.58 145.24 424.98 146.2 424.98 147.32C424.98 147.88 424.86 148.4 424.62 148.88C423.58 151.28 422.42 153.52 421.14 155.6C419.86 157.6 418.5 159.52 417.06 161.36C416.66 161.92 416.78 162.2 417.42 162.2H431.34C433.34 162.2 435.02 162.92 436.38 164.36C437.82 165.72 438.54 167.4 438.54 169.4V183.44C438.54 184.72 438.1 185.8 437.22 186.68C436.42 187.48 435.38 187.88 434.1 187.88C432.82 187.88 431.74 187.48 430.86 186.68C430.06 185.8 429.66 184.72 429.66 183.44V171.68C429.66 171.2 429.42 170.96 428.94 170.96H354.06C353.58 170.96 353.34 171.2 353.34 171.68V183.44C353.34 184.72 352.9 185.8 352.02 186.68C351.22 187.48 350.18 187.88 348.9 187.88ZM439.02 224.6C440.06 224.76 440.9 225.24 441.54 226.04C442.26 226.76 442.62 227.64 442.62 228.68C442.62 230.2 442.02 231.4 440.82 232.28C439.7 233.24 438.38 233.64 436.86 233.48C427.74 232.12 419.5 230.24 412.14 227.84C404.78 225.52 398.26 222.72 392.58 219.44C392.26 219.36 391.94 219.36 391.62 219.44C384.74 223.44 377.46 226.56 369.78 228.8C362.18 231.04 354.82 232.64 347.7 233.6C346.34 233.76 345.14 233.4 344.1 232.52C343.14 231.64 342.66 230.48 342.66 229.04C342.66 227.92 343.02 226.96 343.74 226.16C344.54 225.28 345.5 224.8 346.62 224.72C360.46 222.8 372.54 219.16 382.86 213.8C383.42 213.4 383.46 213.04 382.98 212.72C377.54 208.24 373.1 203.28 369.66 197.84C369.26 197.2 369.06 196.48 369.06 195.68C369.06 193.76 369.9 192.4 371.58 191.6C371.74 191.52 371.62 191.44 371.22 191.36C370.82 191.28 370.46 191.24 370.14 191.24H363.42C362.14 191.24 361.06 190.8 360.18 189.92C359.3 189.04 358.86 188 358.86 186.8C358.86 185.52 359.3 184.44 360.18 183.56C361.06 182.68 362.14 182.24 363.42 182.24H416.46C417.82 182.24 418.94 182.72 419.82 183.68C420.78 184.56 421.26 185.6 421.26 186.8C421.26 187.52 421.1 188.2 420.78 188.84C418.38 193.72 415.5 198.2 412.14 202.28C408.78 206.28 405.1 209.84 401.1 212.96C400.7 213.36 400.62 213.64 400.86 213.8C405.58 216.2 411.06 218.32 417.3 220.16C423.62 221.92 430.86 223.4 439.02 224.6ZM378.06 193.52C379.74 196.24 381.66 198.8 383.82 201.2C386.06 203.6 388.62 205.88 391.5 208.04C391.82 208.28 392.14 208.28 392.46 208.04C395.74 205.72 398.74 203.24 401.46 200.6C404.18 197.88 406.54 195.04 408.54 192.08C408.94 191.52 408.78 191.24 408.06 191.24H376.38C375.66 191.24 375.62 191.44 376.26 191.84C376.98 192.16 377.58 192.72 378.06 193.52ZM513.18 138.32C512.06 137.36 511.5 136.16 511.5 134.72C511.5 133.68 511.86 132.76 512.58 131.96C513.62 130.76 514.9 130.16 516.42 130.16C517.46 130.16 518.5 130.6 519.54 131.48C521.14 133 522.86 134.84 524.7 137C526.54 139.16 528.14 141.24 529.5 143.24C529.98 143.96 530.22 144.76 530.22 145.64C530.22 147.4 529.46 148.72 527.94 149.6C527.38 150 526.62 150.2 525.66 150.2C523.98 150.2 522.7 149.48 521.82 148.04C520.7 146.36 519.38 144.68 517.86 143C516.34 141.24 514.78 139.68 513.18 138.32ZM466.26 143C465.3 142.76 464.5 142.24 463.86 141.44C463.22 140.64 462.9 139.76 462.9 138.8C462.9 137.44 463.34 136.36 464.22 135.56C465.1 134.68 466.14 134.24 467.34 134.24C467.82 134.24 468.18 134.28 468.42 134.36C471.46 135.16 474.5 136.12 477.54 137.24C480.66 138.36 483.54 139.56 486.18 140.84C487.06 141.24 487.74 141.88 488.22 142.76C488.7 143.56 488.94 144.4 488.94 145.28C488.94 146.56 488.54 147.6 487.74 148.4C486.94 149.12 486.02 149.48 484.98 149.48C484.42 149.48 483.82 149.36 483.18 149.12C480.78 148 478.1 146.92 475.14 145.88C472.18 144.76 469.22 143.8 466.26 143ZM528.54 222.44C528.54 222.92 528.78 223.16 529.26 223.16H557.7C558.98 223.16 560.06 223.6 560.94 224.48C561.82 225.36 562.26 226.4 562.26 227.6C562.26 228.88 561.82 229.92 560.94 230.72C560.06 231.6 558.98 232.04 557.7 232.04H490.26C489.06 232.04 488.02 231.6 487.14 230.72C486.26 229.92 485.82 228.88 485.82 227.6C485.82 226.4 486.26 225.36 487.14 224.48C488.02 223.6 489.06 223.16 490.26 223.16H518.7C519.18 223.16 519.42 222.92 519.42 222.44V195.2C519.42 194.72 519.18 194.48 518.7 194.48H498.54C497.34 194.48 496.3 194.08 495.42 193.28C494.54 192.4 494.1 191.32 494.1 190.04C494.1 188.84 494.54 187.8 495.42 186.92C496.3 186.04 497.34 185.6 498.54 185.6H518.7C519.18 185.6 519.42 185.36 519.42 184.88V162.08C519.42 161.6 519.18 161.36 518.7 161.36H493.62C492.34 161.36 491.26 160.92 490.38 160.04C489.5 159.16 489.06 158.08 489.06 156.8C489.06 155.6 489.5 154.56 490.38 153.68C491.26 152.8 492.34 152.36 493.62 152.36H554.46C555.74 152.36 556.78 152.8 557.58 153.68C558.46 154.56 558.9 155.6 558.9 156.8C558.9 158.08 558.46 159.16 557.58 160.04C556.78 160.92 555.74 161.36 554.46 161.36H529.26C528.78 161.36 528.54 161.6 528.54 162.08V184.88C528.54 185.36 528.78 185.6 529.26 185.6H549.42C550.62 185.6 551.66 186.04 552.54 186.92C553.42 187.8 553.86 188.84 553.86 190.04C553.86 191.32 553.42 192.4 552.54 193.28C551.66 194.08 550.62 194.48 549.42 194.48H529.26C528.78 194.48 528.54 194.72 528.54 195.2V222.44ZM480.78 179.24C478.54 178.2 475.86 177.12 472.74 176C469.7 174.88 466.9 174.04 464.34 173.48C463.3 173.24 462.42 172.72 461.7 171.92C461.06 171.04 460.74 170.12 460.74 169.16C460.74 167.88 461.18 166.84 462.06 166.04C462.94 165.16 463.98 164.72 465.18 164.72C465.66 164.72 466.02 164.76 466.26 164.84C469.14 165.56 472.1 166.48 475.14 167.6C478.26 168.64 480.9 169.6 483.06 170.48C484.1 170.88 484.9 171.56 485.46 172.52C486.1 173.4 486.42 174.36 486.42 175.4C486.42 176.68 486.02 177.72 485.22 178.52C484.42 179.24 483.46 179.6 482.34 179.6C481.78 179.6 481.26 179.48 480.78 179.24ZM483.42 185.72C484.78 185.72 485.9 186.24 486.78 187.28C487.74 188.24 488.22 189.32 488.22 190.52C488.22 190.76 488.18 191 488.1 191.24C488.1 191.4 488.06 191.6 487.98 191.84C486.78 196.48 485.3 201.16 483.54 205.88C481.78 210.52 479.9 215 477.9 219.32C475.9 223.56 473.94 227.44 472.02 230.96C470.9 233.04 469.18 234.08 466.86 234.08C466.62 234.08 466.34 234.04 466.02 233.96C465.78 233.96 465.5 233.92 465.18 233.84C463.5 233.36 462.66 232.2 462.66 230.36C462.66 229.72 462.82 229.12 463.14 228.56C466.58 222.88 469.74 216.64 472.62 209.84C475.5 203.04 477.82 196 479.58 188.72C480.14 186.72 481.42 185.72 483.42 185.72Z" fill="#4E4E4E"/>
<path d="M204.998 191.735L186.095 210.283C181.125 215.253 178.374 221.732 178.374 228.654C178.374 243.031 190.355 254.746 204.998 254.746C219.641 254.746 231.622 243.031 231.622 228.654C231.622 221.732 228.871 215.164 223.901 210.283L204.998 191.735Z" fill="white"/>
<path d="M240.497 130.499L236.592 135.38C226.12 148.426 204.998 141.06 204.998 124.287V95C204.998 95 134 130.499 134 192.622C134 218.537 147.845 241.167 168.523 253.503C163.553 246.492 160.624 237.884 160.624 228.654C160.624 216.939 165.239 205.935 173.67 197.592L204.998 166.886L236.326 197.681C244.757 205.935 249.372 216.939 249.372 228.743C249.372 237.795 246.621 246.137 241.828 253.148C258.602 242.942 271.026 225.992 274.754 206.112C280.611 174.607 265.258 144.876 240.497 130.499Z" fill="white"/>
</svg>
