<svg width="150" height="150" viewBox="0 0 150 150" fill="none" xmlns="http://www.w3.org/2000/svg">
<path d="M99.5887 66.8038C102.526 66.8038 105.024 65.8049 107.08 63.8073C109.136 61.8096 110.165 59.2832 110.165 56.228C110.165 53.1727 109.166 50.6463 107.168 48.6487C105.17 46.651 102.644 45.6522 99.5887 45.6522C96.651 45.6522 94.1833 46.651 92.1857 48.6487C90.188 50.6463 89.1892 53.1727 89.1892 56.228C89.1892 59.2832 90.1586 61.8096 92.0975 63.8073C94.0364 65.8049 96.5335 66.8038 99.5887 66.8038V66.8038ZM50.235 66.8038C53.1727 66.8038 55.6404 65.8049 57.6381 63.8073C59.6357 61.8096 60.6346 59.2832 60.6346 56.228C60.6346 53.1727 59.6651 50.6463 57.7262 48.6487C55.7873 46.651 53.2902 45.6522 50.235 45.6522C47.2973 45.6522 44.8002 46.651 42.7438 48.6487C40.6874 50.6463 39.6592 53.1727 39.6592 56.228C39.6592 59.2832 40.6581 61.8096 42.6557 63.8073C44.6534 65.8049 47.1798 66.8038 50.235 66.8038ZM74.9119 113.69C83.02 113.69 90.423 111.457 97.121 106.992C103.819 102.526 108.519 96.4747 111.222 88.8367H38.6016C41.4219 96.3572 46.1516 102.38 52.7908 106.904C59.4301 111.428 66.8038 113.69 74.9119 113.69ZM74.9119 150C64.5711 150 54.8472 148.061 45.7403 144.183C36.6334 140.306 28.6722 134.959 21.8566 128.143C15.0411 121.328 9.69448 113.396 5.81669 104.348C1.9389 95.2996 0 85.5464 0 75.0881C0 64.6298 1.9389 54.8472 5.81669 45.7403C9.69448 36.6334 15.0411 28.7015 21.8566 21.9448C28.6722 15.188 36.604 9.84136 45.6522 5.90482C54.7004 1.96827 64.4536 0 74.9119 0C85.3702 0 95.1528 1.96827 104.26 5.90482C113.367 9.84136 121.298 15.188 128.055 21.9448C134.812 28.7015 140.159 36.6334 144.095 45.7403C148.032 54.8472 150 64.6298 150 75.0881C150 85.5464 148.032 95.2996 144.095 104.348C140.159 113.396 134.812 121.298 128.055 128.055C121.298 134.812 113.367 140.159 104.26 144.095C95.1528 148.032 85.3702 150 74.9119 150Z" fill="#FD689E"/>
</svg>
