<svg width="83" height="83" viewBox="0 0 83 83" fill="none" xmlns="http://www.w3.org/2000/svg">
<circle cx="41.5" cy="41.5" r="41.5" fill="white"/>
<path d="M14 65.8625L51.3941 52.5075L27.355 28.4684L14 65.8625Z" fill="#FF95E1"/>
<path d="M47.4675 40.568L62.3984 25.6371C63.7072 24.3283 65.8173 24.3283 67.1261 25.6371L68.702 27.213L71.5333 24.3817L69.9574 22.8058C67.0994 19.9479 62.4251 19.9479 59.5672 22.8058L44.6362 37.7368L47.4675 40.568Z" fill="#FF95E1"/>
<path d="M35.528 25.4768L33.9521 27.0527L36.7834 29.884L38.3593 28.3081C41.2173 25.4501 41.2173 20.7759 38.3593 17.9179L36.7834 16.342L33.9521 19.2L35.528 20.7759C36.8101 22.0579 36.8101 24.1947 35.528 25.4768Z" fill="#FF95E1"/>
<path d="M54.2249 38.8319L49.978 43.0788L52.8093 45.9101L57.0562 41.6632C58.365 40.3544 60.4751 40.3544 61.7839 41.6632L66.0842 45.9635L68.9155 43.1322L64.6152 38.8319C61.7305 35.9739 57.0829 35.9739 54.2249 38.8319Z" fill="#FF95E1"/>
<path d="M48.8834 22.8059L39.2944 32.3948L42.1257 35.226L51.7146 25.6371C54.5726 22.7791 54.5726 18.1049 51.7146 15.2469L47.4677 11L44.6364 13.8313L48.8834 18.0782C50.1654 19.387 50.1654 21.5238 48.8834 22.8059Z" fill="#FF95E1"/>
</svg>
