<svg width="83" height="83" viewBox="0 0 83 83" fill="none" xmlns="http://www.w3.org/2000/svg">
<circle cx="41.5" cy="41.5" r="41.5" fill="white"/>
<path d="M41.4993 48.7429L34.7101 55.4046C32.9251 57.1895 31.937 59.5163 31.937 62.0025C31.937 67.1661 36.24 71.3735 41.4993 71.3735C46.7585 71.3735 51.0615 67.1661 51.0615 62.0025C51.0615 59.5163 50.0734 57.1576 48.2885 55.4046L41.4993 48.7429Z" fill="#F0738A"/>
<path d="M54.249 26.7497L52.8465 28.5027C49.0854 33.1883 41.4993 30.5427 41.4993 24.5185V14C41.4993 14 16 26.7497 16 49.0616C16 58.3688 20.9724 66.4968 28.3991 70.9273C26.6141 68.4092 25.5623 65.3174 25.5623 62.0025C25.5623 57.7951 27.2197 53.8427 30.2478 50.8465L41.4993 39.8181L52.7509 50.8784C55.779 53.8427 57.4364 57.7951 57.4364 62.0344C57.4364 65.2855 56.4483 68.2817 54.7271 70.7998C60.7513 67.1342 65.2137 61.0463 66.5524 53.9065C68.6561 42.5911 63.1419 31.9133 54.249 26.7497Z" fill="#F0738A"/>
</svg>
