<svg width="108" height="108" viewBox="0 0 108 108" fill="none" xmlns="http://www.w3.org/2000/svg">
<g clip-path="url(#clip0_0_1)">
<circle cx="54" cy="54" r="54" fill="#C3F2ED"/>
<path d="M69.2559 26.1875C73.8132 26.4479 77.5566 28.2057 80.4863 31.4609C83.416 34.651 85.5319 38.2969 86.834 42.3984C88.1361 46.5 88.7871 50.6992 88.7871 54.9961C88.7871 59.293 88.1361 63.4922 86.834 67.5938C85.597 71.6953 83.4811 75.3737 80.4863 78.6289C77.5566 81.819 73.8132 83.5443 69.2559 83.8047H33.3184C31.5605 83.7396 30.0632 83.1211 28.8262 81.9492C27.6543 80.7122 27.0358 79.2148 26.9707 77.457V53.2383C27.0358 51.4154 27.7194 49.918 29.0215 48.7461C30.3236 47.5091 31.8861 46.8906 33.709 46.8906C35.4668 46.9557 36.9642 47.6068 38.2012 48.8438C39.4382 50.0156 40.0892 51.4805 40.1543 53.2383V68.082C40.1543 69.8398 41.0658 70.7188 42.8887 70.7188H65.9355C68.4095 70.5885 70.4603 69.6445 72.0879 67.8867C73.7155 66.1289 74.8874 64.1432 75.6035 61.9297C76.3848 59.651 76.7754 57.3398 76.7754 54.9961C76.7754 52.6523 76.3848 50.3737 75.6035 48.1602C74.8874 45.8815 73.7155 43.8633 72.0879 42.1055C70.4603 40.3477 68.4095 39.4036 65.9355 39.2734H33.3184C29.4121 38.9479 27.2962 36.832 26.9707 32.9258C26.9707 31.1029 27.5566 29.5404 28.7285 28.2383C29.9655 26.9362 31.4954 26.2526 33.3184 26.1875H69.2559Z" fill="white"/>
</g>
<defs>
<clipPath id="clip0_0_1">
<rect width="108" height="108" fill="white"/>
</clipPath>
</defs>
</svg>
