<svg width="108" height="108" viewBox="0 0 108 108" fill="none" xmlns="http://www.w3.org/2000/svg">
<g clip-path="url(#clip0_0_1)">
<circle cx="54" cy="54" r="54" fill="#FFDE8A"/>
<path d="M44.3105 39.2734C41.8366 39.4036 39.7533 40.3477 38.0605 42.1055C36.4329 43.8633 35.2611 45.8815 34.5449 48.1602C33.8288 50.3737 33.4707 52.6523 33.4707 54.9961C33.4707 57.3398 33.7962 59.651 34.4473 61.9297C35.1634 64.2083 36.3678 66.2266 38.0605 67.9844C39.7533 69.6771 41.8366 70.5885 44.3105 70.7188H76.5371C80.6387 71.1094 82.8848 73.3555 83.2754 77.457C83.2103 79.2799 82.5267 80.8099 81.2246 82.0469C79.9225 83.2188 78.36 83.8047 76.5371 83.8047H45.3848H40.8926C36.3353 83.5443 32.5918 81.819 29.6621 78.6289C26.7324 75.3737 24.6165 71.6953 23.3145 67.5938C22.0775 63.4922 21.459 59.293 21.459 54.9961C21.459 51.806 21.8171 48.6484 22.5332 45.5234C23.2493 42.3984 24.3561 39.4362 25.8535 36.6367C27.416 33.7721 29.4668 31.3307 32.0059 29.3125C34.61 27.2943 37.5723 26.2526 40.8926 26.1875H42.748H76.5371C80.6387 26.5781 82.8848 28.8242 83.2754 32.9258C83.2754 34.7487 82.5918 36.2786 81.2246 37.5156C79.9225 38.6875 78.36 39.2734 76.5371 39.2734H44.3105Z" fill="white"/>
</g>
<defs>
<clipPath id="clip0_0_1">
<rect width="108" height="108" fill="white"/>
</clipPath>
</defs>
</svg>
