<svg width="83" height="83" viewBox="0 0 83 83" fill="none" xmlns="http://www.w3.org/2000/svg">
<circle r="41.5" transform="matrix(-1 0 0 1 41.5 41.5)" fill="white"/>
<path d="M57.6364 33.7273L60.875 26.6023L68 23.3636L60.875 20.125L57.6364 13L54.3977 20.125L47.2727 23.3636L54.3977 26.6023L57.6364 33.7273ZM38.2045 35.0227L31.7273 20.7727L25.25 35.0227L11 41.5L25.25 47.9773L31.7273 62.2273L38.2045 47.9773L52.4545 41.5L38.2045 35.0227ZM57.6364 49.2727L54.3977 56.3977L47.2727 59.6364L54.3977 62.875L57.6364 70L60.875 62.875L68 59.6364L60.875 56.3977L57.6364 49.2727Z" fill="#53C5DE"/>
</svg>
