<svg width="530" height="106" viewBox="0 0 530 106" fill="none" xmlns="http://www.w3.org/2000/svg">
<rect width="530" height="106" rx="53" fill="#7ECD1A"/>
<path d="M292.384 63.736C292.469 63.9067 292.512 64.0987 292.512 64.312C292.512 64.888 292.245 65.2933 291.712 65.528C291.563 65.6133 291.381 65.656 291.168 65.656C290.613 65.656 290.219 65.4 289.984 64.888C289.792 64.4827 289.589 64.088 289.376 63.704C289.163 63.2987 288.949 62.904 288.736 62.52C288.651 62.392 288.533 62.328 288.384 62.328C287.531 62.3493 286.528 62.456 285.376 62.648C284.224 62.8187 282.987 63.0213 281.664 63.256C280.363 63.4907 279.04 63.736 277.696 63.992C276.352 64.2267 275.061 64.4507 273.824 64.664C272.587 64.856 271.467 64.984 270.464 65.048C270.208 65.0693 269.973 65.016 269.76 64.888C269.547 64.7387 269.387 64.536 269.28 64.28C269.195 64.088 269.152 63.8427 269.152 63.544C269.152 63.2453 269.216 62.9573 269.344 62.68C269.877 61.5707 270.485 60.3547 271.168 59.032C271.851 57.7093 272.555 56.3653 273.28 55C274.027 53.6133 274.752 52.28 275.456 51C276.16 49.72 276.8 48.5573 277.376 47.512C277.952 46.4667 278.421 45.624 278.784 44.984C279.061 44.536 279.435 44.312 279.904 44.312C280.096 44.312 280.299 44.3653 280.512 44.472C280.96 44.6853 281.184 45.048 281.184 45.56C281.184 45.752 281.131 45.9547 281.024 46.168C280.683 46.7867 280.235 47.5867 279.68 48.568C279.125 49.528 278.517 50.5947 277.856 51.768C277.216 52.9413 276.555 54.1467 275.872 55.384C275.211 56.6213 274.571 57.8267 273.952 59C273.355 60.1733 272.832 61.24 272.384 62.2C272.363 62.2427 272.352 62.2853 272.352 62.328C272.352 62.4987 272.437 62.5627 272.608 62.52C273.44 62.4347 274.432 62.2747 275.584 62.04C276.757 61.8053 277.995 61.5493 279.296 61.272C280.619 60.9947 281.909 60.728 283.168 60.472C284.448 60.216 285.6 60.024 286.624 59.896C286.859 59.8533 286.912 59.736 286.784 59.544C286.251 58.7973 285.749 58.1253 285.28 57.528C284.832 56.9093 284.437 56.3973 284.096 55.992C283.904 55.7573 283.808 55.5013 283.808 55.224C283.808 54.8187 283.979 54.4987 284.32 54.264C284.512 54.0933 284.779 54.008 285.12 54.008C285.547 54.008 285.899 54.168 286.176 54.488C286.667 55.0853 287.285 55.8853 288.032 56.888C288.779 57.8907 289.547 58.9893 290.336 60.184C291.125 61.3787 291.808 62.5627 292.384 63.736ZM324.192 47.672C324.085 47.7573 323.947 47.8 323.776 47.8C323.477 47.8 323.243 47.672 323.072 47.416C322.731 46.904 322.336 46.36 321.888 45.784C321.44 45.208 321.013 44.7173 320.608 44.312C320.437 44.1413 320.352 43.9493 320.352 43.736C320.352 43.5227 320.427 43.3413 320.576 43.192C320.789 43.0213 321.003 42.936 321.216 42.936C321.451 42.936 321.643 43.0107 321.792 43.16C322.261 43.6293 322.72 44.1627 323.168 44.76C323.637 45.3573 324.064 45.944 324.448 46.52C324.533 46.6267 324.576 46.776 324.576 46.968C324.576 47.2667 324.448 47.5013 324.192 47.672ZM321.792 49.048C321.685 49.1333 321.536 49.176 321.344 49.176C321.045 49.176 320.811 49.048 320.64 48.792C320.299 48.28 319.893 47.736 319.424 47.16C318.976 46.5627 318.539 46.0507 318.112 45.624C317.941 45.4533 317.856 45.2507 317.856 45.016C317.856 44.8027 317.931 44.6213 318.08 44.472C318.293 44.3013 318.507 44.216 318.72 44.216C318.955 44.216 319.147 44.2907 319.296 44.44C319.787 44.9093 320.267 45.4533 320.736 46.072C321.227 46.6907 321.664 47.2987 322.048 47.896C322.133 48.0027 322.176 48.152 322.176 48.344C322.176 48.6427 322.048 48.8773 321.792 49.048ZM308.768 49.912C307.936 49.3573 307.061 48.9413 306.144 48.664C305.248 48.3653 304.395 48.1627 303.584 48.056C303.307 48.0133 303.061 47.8853 302.848 47.672C302.656 47.4373 302.56 47.1813 302.56 46.904C302.56 46.5413 302.699 46.232 302.976 45.976C303.253 45.72 303.573 45.6133 303.936 45.656C304.917 45.7627 305.931 45.9973 306.976 46.36C308.021 46.7227 308.981 47.1813 309.856 47.736C310.261 47.992 310.464 48.3653 310.464 48.856C310.464 49.048 310.411 49.272 310.304 49.528C310.112 49.8907 309.803 50.072 309.376 50.072C309.184 50.072 308.981 50.0187 308.768 49.912ZM304.384 67.128C304.299 67.1493 304.181 67.16 304.032 67.16C303.371 67.16 302.933 66.8293 302.72 66.168C302.699 66.0827 302.688 65.9653 302.688 65.816C302.688 65.176 303.008 64.7707 303.648 64.6C304.992 64.216 306.432 63.672 307.968 62.968C309.525 62.2427 311.072 61.3573 312.608 60.312C314.165 59.2667 315.637 58.072 317.024 56.728C318.411 55.384 319.627 53.912 320.672 52.312C320.907 51.9493 321.248 51.768 321.696 51.768C321.952 51.768 322.187 51.8427 322.4 51.992C322.784 52.312 322.976 52.696 322.976 53.144C322.976 53.4427 322.901 53.6987 322.752 53.912C321.899 55.2347 320.811 56.5787 319.488 57.944C318.165 59.288 316.683 60.5787 315.04 61.816C313.397 63.032 311.669 64.1093 309.856 65.048C308.043 65.9653 306.219 66.6587 304.384 67.128ZM306.912 56.824C306.187 56.5253 305.365 56.28 304.448 56.088C303.531 55.8747 302.688 55.7467 301.92 55.704C301.6 55.6827 301.323 55.5653 301.088 55.352C300.853 55.1387 300.736 54.872 300.736 54.552C300.736 54.1893 300.853 53.88 301.088 53.624C301.344 53.3467 301.653 53.2187 302.016 53.24C302.891 53.2827 303.861 53.4213 304.928 53.656C305.995 53.8693 306.976 54.168 307.872 54.552C308.341 54.7653 308.576 55.1493 308.576 55.704C308.576 56.088 308.448 56.3867 308.192 56.6C307.957 56.8133 307.691 56.92 307.392 56.92C307.243 56.92 307.083 56.888 306.912 56.824ZM348.32 49.048C348.768 48.984 349.195 48.952 349.6 48.952C351.328 48.952 352.576 49.4107 353.344 50.328C354.112 51.2453 354.496 52.3973 354.496 53.784C354.496 54.168 354.464 54.5733 354.4 55C354.315 55.6827 354.208 56.4293 354.08 57.24C353.973 58.0293 353.867 58.7867 353.76 59.512C353.653 60.2373 353.568 60.8347 353.504 61.304C353.44 61.7733 353.408 62.0187 353.408 62.04C353.173 63.5333 352.619 64.7067 351.744 65.56C350.891 66.392 349.611 66.808 347.904 66.808C347.285 66.808 346.592 66.744 345.824 66.616C345.504 66.5733 345.237 66.4347 345.024 66.2C344.832 65.944 344.736 65.656 344.736 65.336C344.736 64.9307 344.885 64.6 345.184 64.344C345.483 64.088 345.835 63.992 346.24 64.056C346.987 64.184 347.616 64.248 348.128 64.248C349.195 64.248 349.899 64.0133 350.24 63.544C350.603 63.0747 350.837 62.4453 350.944 61.656C351.029 61.1653 351.125 60.5467 351.232 59.8C351.339 59.032 351.456 58.2 351.584 57.304C351.712 56.408 351.829 55.5333 351.936 54.68C351.957 54.5093 351.968 54.3493 351.968 54.2C351.989 54.0507 352 53.9013 352 53.752C352 52.984 351.819 52.408 351.456 52.024C351.093 51.64 350.475 51.448 349.6 51.448C349.451 51.448 349.291 51.4587 349.12 51.48C348.949 51.48 348.779 51.4907 348.608 51.512L345.312 51.864C345.12 51.9067 345.013 51.992 344.992 52.12C344.096 55.2773 342.848 58.1573 341.248 60.76C339.648 63.3413 337.771 65.432 335.616 67.032C335.445 67.1813 335.221 67.256 334.944 67.256C334.496 67.256 334.155 67.0747 333.92 66.712C333.856 66.6053 333.803 66.4987 333.76 66.392C333.717 66.264 333.696 66.136 333.696 66.008C333.696 65.56 333.877 65.208 334.24 64.952C335.947 63.6293 337.504 61.9013 338.912 59.768C340.32 57.6347 341.451 55.192 342.304 52.44C342.304 52.4187 342.304 52.3973 342.304 52.376C342.325 52.3547 342.336 52.3333 342.336 52.312C342.336 52.1413 342.24 52.0773 342.048 52.12C341.536 52.1413 341.013 52.1627 340.48 52.184C339.968 52.184 339.435 52.184 338.88 52.184C337.813 52.184 336.683 52.152 335.488 52.088C335.147 52.0667 334.869 51.9387 334.656 51.704C334.443 51.4693 334.336 51.2027 334.336 50.904C334.336 50.52 334.464 50.2 334.72 49.944C334.997 49.688 335.317 49.5813 335.68 49.624C336.768 49.688 337.813 49.72 338.816 49.72C339.52 49.72 340.203 49.7093 340.864 49.688C341.525 49.6453 342.176 49.6133 342.816 49.592C343.008 49.5493 343.115 49.4533 343.136 49.304C343.328 48.408 343.488 47.48 343.616 46.52C343.765 45.5387 343.872 44.5573 343.936 43.576C343.957 43.256 344.085 42.9787 344.32 42.744C344.555 42.5093 344.843 42.392 345.184 42.392C345.547 42.392 345.845 42.52 346.08 42.776C346.315 43.0107 346.421 43.3093 346.4 43.672C346.336 44.568 346.24 45.464 346.112 46.36C346.005 47.256 345.867 48.1413 345.696 49.016V49.08C345.696 49.272 345.792 49.3467 345.984 49.304L348.32 49.048Z" fill="white"/>
<path d="M94.5 24C78.7617 24 66 36.7617 66 52.5V74.6667C66 78.15 68.85 81 72.3333 81H85V55.6667H72.3333V52.5C72.3333 40.245 82.245 30.3333 94.5 30.3333C106.755 30.3333 116.667 40.245 116.667 52.5V55.6667H104V81H116.667C120.15 81 123 78.15 123 74.6667V52.5C123 36.7617 110.238 24 94.5 24Z" fill="white"/>
</svg>
