<svg width="118" height="118" viewBox="0 0 118 118" fill="none" xmlns="http://www.w3.org/2000/svg">
<path d="M78.3431 52.5523C80.6538 52.5523 82.6189 51.7665 84.2363 50.1951C85.8537 48.6236 86.6631 46.6361 86.6631 44.2327C86.6631 41.8292 85.8773 39.8418 84.3055 38.2703C82.7337 36.6988 80.7466 35.9131 78.3431 35.9131C76.0321 35.9131 74.0909 36.6988 72.5194 38.2703C70.9479 39.8418 70.1622 41.8292 70.1622 44.2327C70.1622 46.6361 70.9248 48.6236 72.45 50.1951C73.9753 51.7665 75.9397 52.5523 78.3431 52.5523ZM39.5182 52.5523C41.8292 52.5523 43.7705 51.7665 45.342 50.1951C46.9134 48.6236 47.6992 46.6361 47.6992 44.2327C47.6992 41.8292 46.9365 39.8418 45.4113 38.2703C43.886 36.6988 41.9216 35.9131 39.5182 35.9131C37.2072 35.9131 35.2428 36.6988 33.6251 38.2703C32.0074 39.8418 31.1986 41.8292 31.1986 44.2327C31.1986 46.6361 31.9844 48.6236 33.5558 50.1951C35.1273 51.7665 37.1148 52.5523 39.5182 52.5523ZM58.9307 89.4361C65.3091 89.4361 71.1328 87.6795 76.4019 84.167C81.671 80.6538 85.3683 75.8934 87.4946 69.8849H30.3666C32.5852 75.801 36.3059 80.5389 41.5288 84.0978C46.7517 87.6567 52.5523 89.4361 58.9307 89.4361ZM58.9307 118C50.7959 118 43.1465 116.475 35.9824 113.424C28.8183 110.374 22.5555 106.168 17.1939 100.806C11.8323 95.4447 7.62632 89.2049 4.5758 82.0871C1.52527 74.969 0 67.2965 0 59.0693C0 50.8421 1.52527 43.1465 4.5758 35.9824C7.62632 28.8183 11.8323 22.5785 17.1939 17.2632C22.5555 11.9479 28.7951 7.74187 35.9131 4.64513C43.031 1.54837 50.7035 0 58.9307 0C67.1579 0 74.8535 1.54837 82.0179 4.64513C89.182 7.74187 95.4211 11.9479 100.737 17.2632C106.052 22.5785 110.258 28.8183 113.355 35.9824C116.452 43.1465 118 50.8421 118 59.0693C118 67.2965 116.452 74.969 113.355 82.0871C110.258 89.2049 106.052 95.4211 100.737 100.737C95.4211 106.052 89.182 110.258 82.0179 113.355C74.8535 116.452 67.1579 118 58.9307 118Z" fill="#009672"/>
</svg>
