<svg width="48" height="48" viewBox="0 0 48 48" fill="none" xmlns="http://www.w3.org/2000/svg">
<path d="M31.8684 21.3772C32.8083 21.3772 33.6077 21.0576 34.2656 20.4183C34.9235 19.7791 35.2528 18.9706 35.2528 17.993C35.2528 17.0153 34.9331 16.2068 34.2938 15.5676C33.6544 14.9283 32.8461 14.6087 31.8684 14.6087C30.9283 14.6087 30.1387 14.9283 29.4994 15.5676C28.8602 16.2068 28.5405 17.0153 28.5405 17.993C28.5405 18.9706 28.8508 19.7791 29.4712 20.4183C30.0916 21.0576 30.8907 21.3772 31.8684 21.3772ZM16.0752 21.3772C17.0153 21.3772 17.8049 21.0576 18.4442 20.4183C19.0834 19.7791 19.4031 18.9706 19.4031 17.993C19.4031 17.0153 19.0928 16.2068 18.4724 15.5676C17.8519 14.9283 17.0529 14.6087 16.0752 14.6087C15.1351 14.6087 14.3361 14.9283 13.678 15.5676C13.02 16.2068 12.6909 17.0153 12.6909 17.993C12.6909 18.9706 13.0106 19.7791 13.6498 20.4183C14.2891 21.0576 15.0975 21.3772 16.0752 21.3772ZM23.9718 36.3808C26.5664 36.3808 28.9354 35.6662 31.0787 34.2374C33.2221 32.8083 34.7261 30.8719 35.591 28.4277H12.3525C13.255 30.8343 14.7685 32.7616 16.8931 34.2093C19.0176 35.657 21.3772 36.3808 23.9718 36.3808ZM23.9718 48C20.6628 48 17.5511 47.3795 14.6369 46.1386C11.7227 44.8979 9.1751 43.1869 6.99411 41.0058C4.81315 38.825 3.10223 36.2867 1.86134 33.3914C0.620448 30.4959 0 27.3748 0 24.0282C0 20.6815 0.620448 17.5511 1.86134 14.6369C3.10223 11.7227 4.81315 9.18448 6.99411 7.02234C9.1751 4.86016 11.7133 3.14924 14.6087 1.88954C17.5041 0.629846 20.6252 0 23.9718 0C27.3185 0 30.4489 0.629846 33.3632 1.88954C36.2774 3.14924 38.8154 4.86016 40.9776 7.02234C43.1398 9.18448 44.8509 11.7227 46.1104 14.6369C47.3702 17.5511 48 20.6815 48 24.0282C48 27.3748 47.3702 30.4959 46.1104 33.3914C44.8509 36.2867 43.1398 38.8154 40.9776 40.9776C38.8154 43.1398 36.2774 44.8509 33.3632 46.1104C30.4489 47.3702 27.3185 48 23.9718 48Z" fill="#FF95E1"/>
</svg>
