<svg width="530" height="106" viewBox="0 0 530 106" fill="none" xmlns="http://www.w3.org/2000/svg">
<rect width="530" height="106" rx="53" fill="#F0738A"/>
<path d="M240.544 49.208C239.605 49.208 238.805 48.8773 238.144 48.216C237.483 47.5547 237.152 46.7547 237.152 45.816C237.152 44.8773 237.483 44.0773 238.144 43.416C238.805 42.7547 239.605 42.424 240.544 42.424C241.483 42.424 242.283 42.7547 242.944 43.416C243.605 44.0773 243.936 44.8773 243.936 45.816C243.936 46.7547 243.605 47.5547 242.944 48.216C242.283 48.8773 241.483 49.208 240.544 49.208ZM240.544 47.928C241.12 47.928 241.611 47.7253 242.016 47.32C242.443 46.9147 242.656 46.4133 242.656 45.816C242.656 45.24 242.443 44.7493 242.016 44.344C241.611 43.9173 241.12 43.704 240.544 43.704C239.947 43.704 239.445 43.9173 239.04 44.344C238.635 44.7493 238.432 45.24 238.432 45.816C238.432 46.4133 238.635 46.9147 239.04 47.32C239.445 47.7253 239.947 47.928 240.544 47.928ZM243.04 63.768C242.763 63.768 242.507 63.672 242.272 63.48C242.037 63.2667 241.899 63 241.856 62.68C241.621 61.2507 241.195 59.96 240.576 58.808C239.957 57.6347 239.253 56.568 238.464 55.608C237.675 54.648 236.885 53.7627 236.096 52.952C235.307 52.12 234.624 51.32 234.048 50.552C233.877 50.3173 233.792 50.0827 233.792 49.848C233.792 49.4 233.984 49.0587 234.368 48.824C234.603 48.696 234.837 48.632 235.072 48.632C235.541 48.632 235.904 48.8133 236.16 49.176C236.736 49.9013 237.419 50.6907 238.208 51.544C239.019 52.376 239.84 53.3147 240.672 54.36C241.504 55.384 242.251 56.5467 242.912 57.848C243.595 59.128 244.075 60.5893 244.352 62.232C244.416 62.616 244.32 62.968 244.064 63.288C243.808 63.608 243.467 63.768 243.04 63.768ZM221.152 63.32C220.939 63.512 220.672 63.608 220.352 63.608C219.947 63.608 219.627 63.448 219.392 63.128C219.221 62.8933 219.136 62.6373 219.136 62.36C219.136 61.9333 219.296 61.592 219.616 61.336C221.109 60.0773 222.293 58.8293 223.168 57.592C224.043 56.3333 224.725 55.1067 225.216 53.912C225.728 52.7173 226.155 51.5867 226.496 50.52C226.581 50.2427 226.731 50.0187 226.944 49.848C227.179 49.6773 227.435 49.592 227.712 49.592C228.075 49.592 228.373 49.7307 228.608 50.008C228.864 50.264 228.992 50.5627 228.992 50.904C228.992 50.968 228.971 51.0853 228.928 51.256C228.501 52.728 227.968 54.1467 227.328 55.512C226.688 56.856 225.877 58.1787 224.896 59.48C223.915 60.76 222.667 62.04 221.152 63.32ZM261.76 67.704C261.632 67.768 261.483 67.8 261.312 67.8C261.035 67.8 260.779 67.6933 260.544 67.48C260.309 67.2667 260.192 66.9787 260.192 66.616C260.192 66.0827 260.448 65.6987 260.96 65.464C262.667 64.696 264.096 63.7253 265.248 62.552C266.4 61.3573 267.328 60.056 268.032 58.648C268.736 57.24 269.269 55.832 269.632 54.424C270.016 53.016 270.272 51.704 270.4 50.488C270.443 50.1893 270.56 49.9547 270.752 49.784C270.965 49.6133 271.2 49.528 271.456 49.528C271.861 49.528 272.181 49.688 272.416 50.008C272.651 50.3067 272.747 50.6373 272.704 51C272.213 55.1813 271.008 58.6907 269.088 61.528C267.189 64.3653 264.747 66.424 261.76 67.704ZM262.848 56.568C262.379 56.568 262.059 56.3547 261.888 55.928C261.611 55.2027 261.344 54.392 261.088 53.496C260.853 52.5787 260.672 51.6827 260.544 50.808C260.501 50.488 260.587 50.2 260.8 49.944C261.013 49.688 261.291 49.56 261.632 49.56C261.888 49.56 262.123 49.6453 262.336 49.816C262.549 49.9867 262.667 50.2107 262.688 50.488C262.816 51.2773 262.987 52.0667 263.2 52.856C263.435 53.6453 263.659 54.3387 263.872 54.936C263.936 55.0853 263.968 55.2453 263.968 55.416C263.968 55.6933 263.872 55.96 263.68 56.216C263.488 56.4507 263.211 56.568 262.848 56.568ZM258.72 58.136C258.571 58.2213 258.389 58.264 258.176 58.264C258.005 58.264 257.835 58.2213 257.664 58.136C257.493 58.0293 257.365 57.8907 257.28 57.72C256.917 56.952 256.565 56.088 256.224 55.128C255.883 54.1467 255.616 53.2507 255.424 52.44C255.36 52.0987 255.435 51.8 255.648 51.544C255.883 51.2667 256.171 51.128 256.512 51.128C257.088 51.128 257.451 51.4267 257.6 52.024C257.771 52.728 257.995 53.5067 258.272 54.36C258.571 55.192 258.869 55.9493 259.168 56.632C259.211 56.7173 259.243 56.8027 259.264 56.888C259.285 56.9733 259.296 57.0587 259.296 57.144C259.296 57.592 259.104 57.9227 258.72 58.136ZM292.768 49.912C291.936 49.3573 291.061 48.9413 290.144 48.664C289.248 48.3653 288.395 48.1627 287.584 48.056C287.307 48.0133 287.061 47.8853 286.848 47.672C286.656 47.4373 286.56 47.1813 286.56 46.904C286.56 46.5413 286.699 46.232 286.976 45.976C287.253 45.72 287.573 45.6133 287.936 45.656C288.917 45.7627 289.931 45.9973 290.976 46.36C292.021 46.7227 292.981 47.1813 293.856 47.736C294.261 47.992 294.464 48.3653 294.464 48.856C294.464 49.048 294.411 49.272 294.304 49.528C294.112 49.8907 293.803 50.072 293.376 50.072C293.184 50.072 292.981 50.0187 292.768 49.912ZM288.384 67.128C288.299 67.1493 288.181 67.16 288.032 67.16C287.371 67.16 286.933 66.8293 286.72 66.168C286.699 66.0827 286.688 65.9653 286.688 65.816C286.688 65.176 287.008 64.7707 287.648 64.6C288.992 64.216 290.432 63.672 291.968 62.968C293.525 62.2427 295.072 61.3573 296.608 60.312C298.165 59.2667 299.637 58.072 301.024 56.728C302.411 55.384 303.627 53.912 304.672 52.312C304.907 51.9493 305.248 51.768 305.696 51.768C305.952 51.768 306.187 51.8427 306.4 51.992C306.784 52.312 306.976 52.696 306.976 53.144C306.976 53.4427 306.901 53.6987 306.752 53.912C305.899 55.2347 304.811 56.5787 303.488 57.944C302.165 59.288 300.683 60.5787 299.04 61.816C297.397 63.032 295.669 64.1093 293.856 65.048C292.043 65.9653 290.219 66.6587 288.384 67.128ZM290.912 56.824C290.187 56.5253 289.365 56.28 288.448 56.088C287.531 55.8747 286.688 55.7467 285.92 55.704C285.6 55.6827 285.323 55.5653 285.088 55.352C284.853 55.1387 284.736 54.872 284.736 54.552C284.736 54.1893 284.853 53.88 285.088 53.624C285.344 53.3467 285.653 53.2187 286.016 53.24C286.891 53.2827 287.861 53.4213 288.928 53.656C289.995 53.8693 290.976 54.168 291.872 54.552C292.341 54.7653 292.576 55.1493 292.576 55.704C292.576 56.088 292.448 56.3867 292.192 56.6C291.957 56.8133 291.691 56.92 291.392 56.92C291.243 56.92 291.083 56.888 290.912 56.824ZM330.656 50.776C330.805 50.7547 330.944 50.744 331.072 50.744C331.2 50.744 331.328 50.744 331.456 50.744C332.8 50.744 333.76 51.0853 334.336 51.768C334.933 52.4293 335.232 53.592 335.232 55.256V65.496C335.232 65.816 335.115 66.0933 334.88 66.328C334.667 66.5627 334.4 66.68 334.08 66.68C333.803 66.68 333.557 66.5947 333.344 66.424C333.152 66.2533 333.013 66.04 332.928 65.784C332.885 65.6133 332.789 65.528 332.64 65.528H321.504C321.184 65.528 320.907 65.4213 320.672 65.208C320.437 64.9733 320.32 64.6853 320.32 64.344C320.32 64.024 320.437 63.7573 320.672 63.544C320.907 63.3093 321.184 63.192 321.504 63.192H332.608C332.8 63.192 332.896 63.096 332.896 62.904V60.024C332.896 59.8747 332.832 59.768 332.704 59.704C332.363 59.5333 331.989 59.4267 331.584 59.384C331.179 59.3413 330.731 59.32 330.24 59.32C329.941 59.2987 329.451 59.288 328.768 59.288C328.107 59.288 327.371 59.288 326.56 59.288C325.771 59.288 324.981 59.288 324.192 59.288C323.424 59.288 322.763 59.2987 322.208 59.32C321.888 59.32 321.621 59.2133 321.408 59C321.195 58.7653 321.088 58.4987 321.088 58.2C321.088 57.9013 321.195 57.6453 321.408 57.432C321.621 57.1973 321.877 57.08 322.176 57.08H330.272C330.677 57.1013 331.072 57.1227 331.456 57.144C331.84 57.144 332.213 57.1973 332.576 57.304C332.597 57.304 332.608 57.3147 332.608 57.336C332.629 57.336 332.651 57.336 332.672 57.336C332.821 57.336 332.896 57.24 332.896 57.048V55.256C332.896 54.552 332.853 54.04 332.768 53.72C332.683 53.4 332.491 53.208 332.192 53.144C331.893 53.0587 331.413 53.0373 330.752 53.08C330.133 53.1013 329.429 53.1227 328.64 53.144C327.872 53.1653 327.083 53.176 326.272 53.176C325.44 53.176 324.608 53.1653 323.776 53.144C322.965 53.1227 322.187 53.1013 321.44 53.08C321.141 53.08 320.875 52.9627 320.64 52.728C320.427 52.4933 320.32 52.2267 320.32 51.928C320.32 51.5867 320.437 51.3093 320.672 51.096C320.928 50.8613 321.227 50.7547 321.568 50.776C323.019 50.84 324.437 50.872 325.824 50.872C327.637 50.872 329.248 50.84 330.656 50.776ZM369.984 56.376H350.016C349.675 56.376 349.387 56.2587 349.152 56.024C348.917 55.7893 348.8 55.5013 348.8 55.16C348.8 54.8187 348.917 54.5307 349.152 54.296C349.387 54.0613 349.675 53.944 350.016 53.944H369.984C370.325 53.944 370.613 54.0613 370.848 54.296C371.083 54.5307 371.2 54.8187 371.2 55.16C371.2 55.5013 371.083 55.7893 370.848 56.024C370.613 56.2587 370.325 56.376 369.984 56.376ZM388.864 44.856C388.544 44.8133 388.256 44.6853 388 44.472C387.765 44.2587 387.648 43.992 387.648 43.672C387.648 43.3093 387.765 43 388 42.744C388.235 42.4667 388.523 42.3387 388.864 42.36C389.781 42.3813 390.667 42.552 391.52 42.872C392.373 43.192 393.227 43.5227 394.08 43.864C394.933 44.184 395.787 44.408 396.64 44.536C396.96 44.5787 397.237 44.7173 397.472 44.952C397.707 45.1867 397.824 45.4747 397.824 45.816C397.803 46.1573 397.675 46.456 397.44 46.712C397.205 46.9467 396.907 47.0533 396.544 47.032C395.755 46.9467 394.923 46.744 394.048 46.424C393.173 46.104 392.299 45.784 391.424 45.464C390.549 45.144 389.696 44.9413 388.864 44.856ZM394.048 56.568C393.941 56.6747 393.888 56.792 393.888 56.92C393.888 57.6027 393.899 58.3707 393.92 59.224C393.941 60.0773 393.963 60.952 393.984 61.848C394.005 62.744 394.027 63.5867 394.048 64.376C394.069 65.144 394.091 65.7947 394.112 66.328C394.133 66.6693 394.016 66.968 393.76 67.224C393.504 67.48 393.195 67.608 392.832 67.608C392.512 67.608 392.235 67.4907 392 67.256C391.765 67.0213 391.637 66.7333 391.616 66.392C391.616 65.8587 391.595 65.208 391.552 64.44C391.531 63.672 391.509 62.8507 391.488 61.976C391.467 61.08 391.445 60.216 391.424 59.384C391.424 59.1067 391.307 59.0427 391.072 59.192C389.771 60.1947 388.352 61.0587 386.816 61.784C385.28 62.5093 383.616 63.064 381.824 63.448C381.483 63.512 381.173 63.4373 380.896 63.224C380.619 62.9893 380.48 62.7013 380.48 62.36C380.48 62.0613 380.576 61.7947 380.768 61.56C380.96 61.304 381.216 61.144 381.536 61.08C383.648 60.6107 385.547 59.8853 387.232 58.904C388.939 57.9013 390.432 56.76 391.712 55.48C393.013 54.1787 394.101 52.8773 394.976 51.576C395.211 51.2133 395.392 50.9573 395.52 50.808C395.648 50.6373 395.712 50.52 395.712 50.456C395.712 50.4133 395.68 50.392 395.616 50.392C395.595 50.392 395.552 50.392 395.488 50.392C395.424 50.392 395.349 50.4027 395.264 50.424C395.029 50.4667 394.528 50.552 393.76 50.68C392.992 50.808 392.085 50.9573 391.04 51.128C390.016 51.2987 388.971 51.4907 387.904 51.704C386.859 51.9173 385.931 52.12 385.12 52.312C385.056 52.3333 384.971 52.344 384.864 52.344C384.523 52.344 384.235 52.2267 384 51.992C383.787 51.7573 383.68 51.4693 383.68 51.128C383.68 50.8293 383.776 50.5627 383.968 50.328C384.16 50.0933 384.405 49.944 384.704 49.88C385.365 49.7307 386.123 49.5813 386.976 49.432C387.829 49.2827 388.704 49.1333 389.6 48.984C390.496 48.8347 391.339 48.696 392.128 48.568C392.939 48.44 393.621 48.3333 394.176 48.248C394.752 48.1413 395.115 48.0773 395.264 48.056C395.456 48.0133 395.637 47.9813 395.808 47.96C396 47.9387 396.171 47.928 396.32 47.928C397.067 47.928 397.621 48.1093 397.984 48.472C398.347 48.8133 398.528 49.24 398.528 49.752C398.528 50.392 398.293 51.0427 397.824 51.704C397.269 52.5787 396.672 53.432 396.032 54.264C395.413 55.0747 394.752 55.8427 394.048 56.568ZM403.488 60.344C403.595 60.5573 403.648 60.76 403.648 60.952C403.648 61.4853 403.403 61.8907 402.912 62.168C402.763 62.2533 402.581 62.296 402.368 62.296C401.899 62.296 401.547 62.072 401.312 61.624C400.843 60.6853 400.245 59.9707 399.52 59.48C398.795 58.968 398.048 58.6373 397.28 58.488C396.981 58.424 396.725 58.2853 396.512 58.072C396.299 57.8373 396.192 57.5707 396.192 57.272C396.192 56.8667 396.341 56.536 396.64 56.28C396.939 56.0027 397.291 55.896 397.696 55.96C398.997 56.1947 400.139 56.728 401.12 57.56C402.123 58.3707 402.912 59.2987 403.488 60.344Z" fill="white"/>
<path d="M94.4993 58.7429L87.7101 65.4046C85.9251 67.1895 84.937 69.5163 84.937 72.0025C84.937 77.1661 89.24 81.3735 94.4993 81.3735C99.7585 81.3735 104.062 77.1661 104.062 72.0025C104.062 69.5163 103.073 67.1576 101.288 65.4046L94.4993 58.7429Z" fill="white"/>
<path d="M107.249 36.7497L105.847 38.5027C102.085 43.1883 94.4993 40.5427 94.4993 34.5185V24C94.4993 24 69 36.7497 69 59.0616C69 68.3688 73.9724 76.4968 81.3991 80.9273C79.6141 78.4092 78.5623 75.3174 78.5623 72.0025C78.5623 67.7951 80.2197 63.8427 83.2478 60.8465L94.4993 49.8181L105.751 60.8784C108.779 63.8427 110.436 67.7951 110.436 72.0344C110.436 75.2855 109.448 78.2817 107.727 80.7998C113.751 77.1342 118.214 71.0463 119.552 63.9065C121.656 52.5911 116.142 41.9133 107.249 36.7497Z" fill="white"/>
</svg>
