<svg width="530" height="106" viewBox="0 0 530 106" fill="none" xmlns="http://www.w3.org/2000/svg">
<path d="M0 53C0 23.7289 23.7289 0 53 0H477C506.271 0 530 23.7289 530 53C530 82.2711 506.271 106 477 106H53C23.7289 106 0 82.2711 0 53Z" fill="#B26ED2"/>
<path d="M222.02 53.144C221.956 53.1653 221.892 53.1867 221.828 53.208C221.785 53.208 221.732 53.208 221.668 53.208C221.433 53.208 221.22 53.1227 221.028 52.952C220.857 52.76 220.772 52.5253 220.772 52.248C220.772 51.672 221.039 51.256 221.572 51C222.148 50.7227 222.671 50.4027 223.14 50.04C223.609 49.656 223.983 49.208 224.26 48.696C224.345 48.5467 224.303 48.472 224.132 48.472H221.956C221.679 48.472 221.444 48.376 221.252 48.184C221.06 47.992 220.964 47.7573 220.964 47.48C220.964 47.2027 221.06 46.968 221.252 46.776C221.444 46.584 221.679 46.488 221.956 46.488H226.276C226.404 46.488 226.468 46.424 226.468 46.296V45.208C226.468 45.08 226.404 45.016 226.276 45.016H223.076C222.799 45.016 222.553 44.92 222.34 44.728C222.148 44.536 222.052 44.3013 222.052 44.024C222.052 43.7467 222.148 43.512 222.34 43.32C222.553 43.128 222.799 43.032 223.076 43.032H226.276C226.404 43.032 226.468 42.968 226.468 42.84V42.168C226.468 41.848 226.585 41.5707 226.82 41.336C227.055 41.1013 227.332 40.984 227.652 40.984C227.972 40.984 228.249 41.1013 228.484 41.336C228.719 41.5707 228.836 41.848 228.836 42.168V42.84C228.836 42.968 228.9 43.032 229.028 43.032H232.228C232.527 43.032 232.772 43.128 232.964 43.32C233.156 43.512 233.252 43.7467 233.252 44.024C233.252 44.3013 233.156 44.536 232.964 44.728C232.772 44.92 232.527 45.016 232.228 45.016H229.028C228.9 45.016 228.836 45.08 228.836 45.208V46.296C228.836 46.424 228.9 46.488 229.028 46.488H233.348C233.625 46.488 233.86 46.584 234.052 46.776C234.244 46.968 234.34 47.2027 234.34 47.48C234.34 47.7573 234.244 47.992 234.052 48.184C233.86 48.376 233.625 48.472 233.348 48.472H231.236C231.108 48.472 231.044 48.536 231.044 48.664V48.984C231.044 49.24 231.129 49.4213 231.3 49.528C231.471 49.6347 231.769 49.688 232.196 49.688H233.188C233.487 49.688 233.732 49.784 233.924 49.976C234.116 50.168 234.212 50.4133 234.212 50.712C234.212 50.9893 234.116 51.2347 233.924 51.448C233.732 51.6613 233.487 51.768 233.188 51.768H232.132C231.065 51.768 230.244 51.544 229.668 51.096C229.113 50.6267 228.836 49.9653 228.836 49.112V48.664C228.836 48.536 228.772 48.472 228.644 48.472H226.98C226.873 48.472 226.788 48.536 226.724 48.664C226.169 49.9013 225.476 50.872 224.644 51.576C223.833 52.2587 222.959 52.7813 222.02 53.144ZM248.132 55.416C248.367 55.6933 248.484 55.992 248.484 56.312C248.484 56.568 248.388 56.8133 248.196 57.048C247.791 57.496 247.396 57.8267 247.012 58.04C246.628 58.232 246.116 58.328 245.476 58.328C243.428 58.328 242.404 57.1653 242.404 54.84V47.224C242.404 47.096 242.34 47.032 242.212 47.032H241.508C241.401 47.032 241.327 47.096 241.284 47.224C241.177 48.1413 241.028 49.0373 240.836 49.912C240.665 50.7653 240.431 51.5653 240.132 52.312C240.111 52.4187 240.121 52.5147 240.164 52.6C240.932 53.4107 241.615 54.3387 242.212 55.384C242.297 55.5333 242.34 55.704 242.34 55.896C242.34 56.344 242.137 56.6747 241.732 56.888C241.583 56.9733 241.412 57.016 241.22 57.016C240.772 57.016 240.452 56.824 240.26 56.44C240.089 56.1413 239.908 55.8533 239.716 55.576C239.545 55.2987 239.364 55.0427 239.172 54.808C239.108 54.6587 239.023 54.6587 238.916 54.808C238.575 55.384 238.18 55.9493 237.732 56.504C237.284 57.0373 236.783 57.5493 236.228 58.04C236.015 58.232 235.759 58.328 235.46 58.328C235.097 58.328 234.799 58.2 234.564 57.944C234.351 57.7307 234.244 57.464 234.244 57.144C234.244 56.824 234.361 56.5467 234.596 56.312C235.151 55.8 235.641 55.288 236.068 54.776C236.495 54.2427 236.868 53.6773 237.188 53.08C237.252 52.9733 237.231 52.888 237.124 52.824C236.804 52.5893 236.473 52.3867 236.132 52.216C235.791 52.024 235.449 51.864 235.108 51.736C234.596 51.5227 234.34 51.1707 234.34 50.68C234.34 50.616 234.34 50.5627 234.34 50.52C234.361 50.456 234.383 50.392 234.404 50.328C234.575 49.816 234.916 49.56 235.428 49.56C235.577 49.56 235.716 49.592 235.844 49.656C236.207 49.8053 236.559 49.976 236.9 50.168C237.263 50.3387 237.615 50.5307 237.956 50.744C238.084 50.8507 238.169 50.8187 238.212 50.648C238.383 50.1573 238.511 49.6347 238.596 49.08C238.703 48.504 238.799 47.8853 238.884 47.224C238.927 47.096 238.873 47.032 238.724 47.032H235.684C235.364 47.032 235.087 46.9253 234.852 46.712C234.639 46.4987 234.532 46.232 234.532 45.912C234.532 45.592 234.639 45.3253 234.852 45.112C235.087 44.8987 235.364 44.792 235.684 44.792H238.916C239.044 44.792 239.108 44.728 239.108 44.6C239.172 43.8533 239.204 43.0427 239.204 42.168C239.225 41.848 239.343 41.5707 239.556 41.336C239.791 41.1013 240.068 40.984 240.388 40.984C240.729 40.984 241.007 41.1013 241.22 41.336C241.455 41.5493 241.572 41.8267 241.572 42.168C241.572 43.0213 241.54 43.832 241.476 44.6C241.476 44.728 241.54 44.792 241.668 44.792H242.788C243.321 44.792 243.769 44.9733 244.132 45.336C244.516 45.6987 244.708 46.1573 244.708 46.712V54.84C244.708 55.2453 244.74 55.576 244.804 55.832C244.868 56.088 245.135 56.216 245.604 56.216C245.817 56.216 246.009 56.1627 246.18 56.056C246.351 55.9493 246.553 55.7573 246.788 55.48C246.98 55.2667 247.215 55.16 247.492 55.16C247.769 55.16 247.983 55.2453 248.132 55.416ZM222.148 59.544C221.807 59.544 221.519 59.4267 221.284 59.192C221.049 58.9573 220.932 58.68 220.932 58.36C220.932 58.0613 221.028 57.816 221.22 57.624C221.433 57.432 221.679 57.3253 221.956 57.304C222.724 57.2613 223.471 57.1973 224.196 57.112C224.943 57.0267 225.668 56.9413 226.372 56.856C226.479 56.8133 226.532 56.7387 226.532 56.632V55.096C226.532 54.968 226.468 54.904 226.34 54.904H223.524C223.247 54.904 223.001 54.7973 222.788 54.584C222.575 54.3707 222.468 54.1253 222.468 53.848C222.468 53.5493 222.575 53.304 222.788 53.112C223.001 52.8987 223.247 52.792 223.524 52.792H226.34C226.468 52.792 226.532 52.728 226.532 52.6V51.032C226.532 50.712 226.639 50.4453 226.852 50.232C227.065 49.9973 227.332 49.88 227.652 49.88C227.972 49.88 228.239 49.9973 228.452 50.232C228.665 50.4453 228.772 50.712 228.772 51.032V52.6C228.772 52.728 228.836 52.792 228.964 52.792H232.324C232.623 52.792 232.868 52.8987 233.06 53.112C233.273 53.304 233.38 53.5493 233.38 53.848C233.38 54.1253 233.273 54.3707 233.06 54.584C232.868 54.7973 232.623 54.904 232.324 54.904H228.964C228.836 54.904 228.772 54.968 228.772 55.096V56.184C228.772 56.312 228.847 56.376 228.996 56.376C229.764 56.2053 230.468 56.024 231.108 55.832C231.769 55.6187 232.367 55.416 232.9 55.224C233.028 55.16 233.167 55.128 233.316 55.128C233.593 55.128 233.828 55.2347 234.02 55.448C234.212 55.64 234.308 55.9067 234.308 56.248C234.308 56.5253 234.223 56.792 234.052 57.048C233.881 57.2827 233.647 57.4427 233.348 57.528C231.535 58.1253 229.721 58.584 227.908 58.904C226.095 59.224 224.175 59.4373 222.148 59.544ZM234.564 59.96C234.564 60.1093 234.628 60.184 234.756 60.184H243.748C244.26 60.184 244.687 60.376 245.028 60.76C245.391 61.144 245.551 61.592 245.508 62.104C245.444 62.744 245.38 63.3947 245.316 64.056C245.252 64.696 245.188 65.2187 245.124 65.624C244.975 66.7333 244.409 67.544 243.428 68.056C242.447 68.568 241.252 68.824 239.844 68.824C239.545 68.824 239.236 68.8133 238.916 68.792C238.596 68.7707 238.265 68.7387 237.924 68.696C237.583 68.6533 237.305 68.504 237.092 68.248C236.9 67.992 236.804 67.704 236.804 67.384C236.804 67 236.953 66.6907 237.252 66.456C237.551 66.2213 237.892 66.136 238.276 66.2C238.575 66.2427 238.873 66.2853 239.172 66.328C239.492 66.3493 239.801 66.36 240.1 66.36C240.783 66.36 241.38 66.2747 241.892 66.104C242.404 65.9333 242.681 65.6453 242.724 65.24C242.767 64.9413 242.809 64.568 242.852 64.12C242.895 63.672 242.937 63.2027 242.98 62.712C243.023 62.584 242.969 62.52 242.82 62.52H233.924C233.796 62.52 233.721 62.5627 233.7 62.648C233.103 63.736 232.335 64.6533 231.396 65.4C230.479 66.1467 229.465 66.7547 228.356 67.224C227.268 67.6933 226.18 68.0453 225.092 68.28C224.025 68.536 223.055 68.7173 222.18 68.824C221.86 68.8453 221.572 68.7387 221.316 68.504C221.081 68.2907 220.964 68.0133 220.964 67.672C220.964 67.3307 221.081 67.032 221.316 66.776C221.551 66.52 221.839 66.3813 222.18 66.36C224.015 66.1467 225.657 65.7413 227.108 65.144C228.559 64.5253 229.711 63.7253 230.564 62.744C230.671 62.5947 230.628 62.52 230.436 62.52H223.94C223.62 62.52 223.343 62.4133 223.108 62.2C222.895 61.9653 222.788 61.688 222.788 61.368C222.788 61.048 222.895 60.7707 223.108 60.536C223.343 60.3013 223.62 60.184 223.94 60.184H231.812C231.919 60.184 231.993 60.1307 232.036 60.024C232.079 59.9173 232.1 59.8107 232.1 59.704C232.121 59.5973 232.143 59.5013 232.164 59.416C232.228 59.0747 232.377 58.7867 232.612 58.552C232.868 58.3173 233.167 58.2 233.508 58.2C233.807 58.2 234.073 58.3067 234.308 58.52C234.543 58.712 234.66 58.9573 234.66 59.256C234.66 59.5333 234.628 59.768 234.564 59.96ZM266.468 47.8C266.468 47.928 266.532 47.992 266.66 47.992H275.428C275.961 47.992 276.409 48.184 276.772 48.568C277.135 48.9307 277.305 49.3787 277.284 49.912C277.263 50.872 277.22 51.9493 277.156 53.144C277.113 54.3173 277.06 55.5227 276.996 56.76C276.932 57.9973 276.868 59.1813 276.804 60.312C276.74 61.4213 276.676 62.4027 276.612 63.256C276.548 64.088 276.484 64.696 276.42 65.08C276.207 66.3173 275.513 67.1813 274.34 67.672C273.167 68.1627 271.695 68.408 269.924 68.408C269.689 68.408 269.444 68.3973 269.188 68.376C268.932 68.376 268.665 68.3653 268.388 68.344C268.068 68.3227 267.801 68.1947 267.588 67.96C267.375 67.7253 267.268 67.4587 267.268 67.16C267.268 66.7973 267.396 66.488 267.652 66.232C267.929 65.976 268.239 65.8587 268.58 65.88C268.857 65.9013 269.135 65.9227 269.412 65.944C269.711 65.944 269.999 65.944 270.276 65.944C271.215 65.944 272.047 65.8587 272.772 65.688C273.519 65.5173 273.935 65.1867 274.02 64.696C274.084 64.312 274.148 63.6293 274.212 62.648C274.297 61.6453 274.372 60.472 274.436 59.128C274.521 57.784 274.596 56.376 274.66 54.904C274.724 53.4107 274.788 51.9707 274.852 50.584C274.852 50.456 274.788 50.392 274.66 50.392H266.628C266.5 50.392 266.436 50.456 266.436 50.584C266.329 52.7173 265.945 54.7653 265.284 56.728C264.644 58.6693 263.791 60.4507 262.724 62.072C261.679 63.672 260.484 65.0587 259.14 66.232C257.796 67.4053 256.388 68.28 254.916 68.856C254.788 68.92 254.649 68.952 254.5 68.952C253.945 68.952 253.561 68.664 253.348 68.088C253.327 68.024 253.305 67.96 253.284 67.896C253.284 67.8533 253.284 67.8 253.284 67.736C253.284 67.4587 253.359 67.2133 253.508 67C253.679 66.7653 253.881 66.5947 254.116 66.488C255.695 65.8053 257.081 64.8773 258.276 63.704C259.471 62.5307 260.473 61.2187 261.284 59.768C262.095 58.296 262.724 56.7707 263.172 55.192C263.641 53.6133 263.919 52.0773 264.004 50.584C264.004 50.456 263.94 50.392 263.812 50.392H255.684C255.343 50.392 255.055 50.2747 254.82 50.04C254.585 49.8053 254.468 49.5173 254.468 49.176C254.468 48.8347 254.585 48.5573 254.82 48.344C255.055 48.1093 255.343 47.992 255.684 47.992H263.844C263.972 47.992 264.036 47.928 264.036 47.8V42.52C264.036 42.2 264.153 41.9227 264.388 41.688C264.623 41.432 264.911 41.304 265.252 41.304C265.593 41.304 265.881 41.432 266.116 41.688C266.351 41.9227 266.468 42.2 266.468 42.52V47.8ZM287.684 41.816H309.316C309.849 41.816 310.297 42.008 310.66 42.392C311.044 42.7547 311.236 43.2027 311.236 43.736V66.2C311.236 66.7333 311.044 67.1813 310.66 67.544C310.297 67.928 309.849 68.12 309.316 68.12H287.684C287.151 68.12 286.692 67.928 286.308 67.544C285.945 67.1813 285.764 66.7333 285.764 66.2V43.736C285.764 43.2027 285.945 42.7547 286.308 42.392C286.692 42.008 287.151 41.816 287.684 41.816ZM288.1 65.592C288.1 65.72 288.164 65.784 288.292 65.784H308.708C308.836 65.784 308.9 65.72 308.9 65.592V44.344C308.9 44.216 308.836 44.152 308.708 44.152H288.292C288.164 44.152 288.1 44.216 288.1 44.344V65.592ZM297.604 51.96C297.455 51.3413 297.241 50.68 296.964 49.976C296.708 49.2507 296.377 48.5253 295.972 47.8C295.908 47.6933 295.865 47.5867 295.844 47.48C295.823 47.3733 295.812 47.2773 295.812 47.192C295.812 46.7013 296.025 46.36 296.452 46.168C296.623 46.0827 296.815 46.04 297.028 46.04C297.604 46.04 298.009 46.2747 298.244 46.744C298.585 47.4053 298.905 48.1733 299.204 49.048C299.524 49.9013 299.759 50.6587 299.908 51.32C299.929 51.384 299.94 51.48 299.94 51.608C299.94 51.928 299.812 52.216 299.556 52.472C299.321 52.728 299.023 52.856 298.66 52.856C298.425 52.856 298.201 52.7813 297.988 52.632C297.775 52.4613 297.647 52.2373 297.604 51.96ZM289.828 63.192C289.828 62.5947 290.116 62.1893 290.692 61.976C291.972 61.5707 293.145 61.08 294.212 60.504C295.3 59.928 296.271 59.2773 297.124 58.552C297.231 58.4453 297.22 58.36 297.092 58.296C296.132 57.8907 295.129 57.5173 294.084 57.176C293.039 56.8133 291.951 56.5147 290.82 56.28C290.564 56.2373 290.351 56.1093 290.18 55.896C290.031 55.6827 289.956 55.4587 289.956 55.224C289.956 54.8187 290.105 54.4987 290.404 54.264C290.703 54.008 291.033 53.9227 291.396 54.008C292.505 54.2213 293.711 54.552 295.012 55C296.335 55.448 297.647 55.9707 298.948 56.568C299.055 56.6107 299.14 56.5893 299.204 56.504C300.42 55.1173 301.391 53.624 302.116 52.024C302.863 50.424 303.439 48.8347 303.844 47.256C303.908 46.9573 304.057 46.7227 304.292 46.552C304.527 46.3813 304.783 46.296 305.06 46.296C305.401 46.296 305.679 46.424 305.892 46.68C306.105 46.9147 306.212 47.1813 306.212 47.48C306.212 47.608 306.201 47.704 306.18 47.768C305.668 49.7307 305.007 51.5333 304.196 53.176C303.407 54.7973 302.479 56.2587 301.412 57.56C301.348 57.6667 301.369 57.752 301.476 57.816C303.545 58.8613 305.316 59.96 306.788 61.112C307.151 61.4107 307.332 61.8053 307.332 62.296C307.332 62.5307 307.289 62.744 307.204 62.936C307.076 63.2987 306.809 63.48 306.404 63.48C306.212 63.48 306.031 63.416 305.86 63.288C305.156 62.7547 304.292 62.168 303.268 61.528C302.244 60.8667 301.092 60.2053 299.812 59.544C299.684 59.5227 299.588 59.544 299.524 59.608C298.372 60.696 297.103 61.624 295.716 62.392C294.351 63.16 292.879 63.7893 291.3 64.28C291.236 64.3013 291.172 64.3227 291.108 64.344C291.065 64.344 291.012 64.344 290.948 64.344C290.649 64.344 290.383 64.2373 290.148 64.024C289.935 63.7893 289.828 63.512 289.828 63.192ZM293.188 52.504C292.868 51.288 292.313 50.04 291.524 48.76C291.46 48.6533 291.417 48.5467 291.396 48.44C291.375 48.3333 291.364 48.2373 291.364 48.152C291.364 47.9387 291.407 47.736 291.492 47.544C291.599 47.352 291.759 47.2133 291.972 47.128C292.079 47.0853 292.175 47.0533 292.26 47.032C292.367 47.0107 292.463 47 292.548 47C292.804 47 293.049 47.0747 293.284 47.224C293.519 47.352 293.689 47.5333 293.796 47.768C294.095 48.3653 294.404 49.048 294.724 49.816C295.044 50.5627 295.3 51.2773 295.492 51.96C295.513 52.024 295.524 52.12 295.524 52.248C295.524 52.5467 295.407 52.824 295.172 53.08C294.959 53.3147 294.671 53.432 294.308 53.432C294.031 53.432 293.785 53.3467 293.572 53.176C293.38 52.984 293.252 52.76 293.188 52.504ZM338.372 64.312C338.756 64.2693 339.087 64.376 339.364 64.632C339.663 64.888 339.812 65.208 339.812 65.592C339.812 65.9333 339.695 66.232 339.46 66.488C339.247 66.744 338.959 66.8933 338.596 66.936C337.743 67.0213 336.516 67.1067 334.916 67.192C333.337 67.2987 331.535 67.352 329.508 67.352C327.865 67.352 326.521 67.128 325.476 66.68C324.452 66.2107 323.769 65.464 323.428 64.44C323.279 63.992 323.204 63.5333 323.204 63.064C323.204 61.9547 323.727 60.8347 324.772 59.704C325.839 58.5733 327.663 57.3253 330.244 55.96C330.479 55.8747 330.521 55.7467 330.372 55.576C329.903 54.8933 329.188 54.552 328.228 54.552C327.652 54.552 327.023 54.6693 326.34 54.904C325.657 55.1173 324.943 55.416 324.196 55.8C324.111 55.8427 324.015 55.9173 323.908 56.024C323.823 56.088 323.737 56.1627 323.652 56.248C323.567 56.312 323.471 56.376 323.364 56.44C323.193 56.5893 322.969 56.664 322.692 56.664C322.265 56.664 321.935 56.472 321.7 56.088C321.572 55.8533 321.508 55.6293 321.508 55.416C321.508 54.9893 321.679 54.6373 322.02 54.36C322.703 53.8267 323.332 53.2187 323.908 52.536C324.484 51.8533 325.007 51.0747 325.476 50.2C325.519 50.1147 325.54 50.0613 325.54 50.04C325.54 49.8907 325.444 49.8373 325.252 49.88C324.591 49.9653 323.961 50.04 323.364 50.104C322.767 50.1467 322.212 50.1893 321.7 50.232C321.359 50.2533 321.071 50.1467 320.836 49.912C320.601 49.6773 320.484 49.3893 320.484 49.048C320.484 48.7067 320.601 48.4187 320.836 48.184C321.071 47.9493 321.359 47.8213 321.7 47.8C323.3 47.736 324.943 47.576 326.628 47.32C326.777 47.2987 326.884 47.2133 326.948 47.064C327.14 46.5093 327.332 45.9333 327.524 45.336C327.716 44.7387 327.887 44.1093 328.036 43.448C328.1 43.1707 328.249 42.9467 328.484 42.776C328.719 42.6053 328.975 42.52 329.252 42.52C329.615 42.52 329.903 42.648 330.116 42.904C330.351 43.1387 330.468 43.416 330.468 43.736C330.468 43.864 330.457 43.96 330.436 44.024C330.329 44.4293 330.212 44.824 330.084 45.208C329.977 45.592 329.86 45.9653 329.732 46.328C329.732 46.3493 329.721 46.3707 329.7 46.392C329.7 46.4133 329.7 46.4347 329.7 46.456C329.7 46.6267 329.807 46.68 330.02 46.616C330.617 46.4453 331.204 46.264 331.78 46.072C332.377 45.8587 332.943 45.6453 333.476 45.432C333.647 45.368 333.796 45.336 333.924 45.336C334.159 45.336 334.372 45.4 334.564 45.528C334.777 45.6347 334.927 45.8053 335.012 46.04C335.055 46.1253 335.076 46.2107 335.076 46.296C335.076 46.36 335.076 46.424 335.076 46.488C335.076 47.064 334.831 47.448 334.34 47.64C333.529 47.9813 332.644 48.2907 331.684 48.568C330.745 48.8453 329.785 49.0907 328.804 49.304C328.655 49.3253 328.548 49.4 328.484 49.528C328.271 49.9973 328.057 50.4453 327.844 50.872C327.631 51.2987 327.407 51.7147 327.172 52.12C327.129 52.2053 327.108 52.2587 327.108 52.28C327.108 52.3867 327.204 52.4293 327.396 52.408C327.631 52.3653 327.844 52.3333 328.036 52.312C328.249 52.2907 328.452 52.28 328.644 52.28C329.625 52.28 330.436 52.4933 331.076 52.92C331.716 53.3253 332.217 53.8373 332.58 54.456C332.687 54.6267 332.815 54.6693 332.964 54.584C333.753 54.1787 334.575 53.72 335.428 53.208C336.281 52.696 337.177 52.1093 338.116 51.448C338.329 51.2987 338.564 51.224 338.82 51.224C339.247 51.224 339.577 51.4053 339.812 51.768C339.961 51.9813 340.036 52.216 340.036 52.472C340.036 52.92 339.855 53.2613 339.492 53.496C338.767 53.9653 338.105 54.3813 337.508 54.744C336.911 55.1067 336.303 55.448 335.684 55.768C335.065 56.088 334.361 56.44 333.572 56.824C333.423 56.9093 333.359 57.0373 333.38 57.208C333.529 58.168 333.636 59.5227 333.7 61.272C333.7 61.6133 333.583 61.9013 333.348 62.136C333.113 62.3707 332.825 62.488 332.484 62.488C332.143 62.488 331.855 62.3707 331.62 62.136C331.385 61.9013 331.257 61.6133 331.236 61.272C331.215 60.7173 331.193 60.216 331.172 59.768C331.151 59.2987 331.119 58.872 331.076 58.488C331.076 58.232 330.959 58.168 330.724 58.296C328.953 59.2347 327.673 60.0987 326.884 60.888C326.095 61.656 325.7 62.3707 325.7 63.032C325.7 63.224 325.732 63.416 325.796 63.608C325.988 64.0773 326.351 64.4293 326.884 64.664C327.417 64.8987 328.356 65.016 329.7 65.016C331.471 65.016 334.361 64.7813 338.372 64.312ZM375.716 64.824C376.036 65.08 376.196 65.3893 376.196 65.752C376.196 66.0293 376.1 66.264 375.908 66.456C375.375 67.032 374.831 67.4693 374.276 67.768C373.743 68.088 373.113 68.3013 372.388 68.408C371.663 68.536 370.756 68.6 369.668 68.6C368.409 68.6 367.343 68.504 366.468 68.312C365.593 68.1413 364.932 67.7893 364.484 67.256C364.036 66.7227 363.812 65.9333 363.812 64.888V60.504C363.812 60.376 363.748 60.312 363.62 60.312H361.348C361.263 60.312 361.199 60.3653 361.156 60.472C360.601 62.7333 359.417 64.5573 357.604 65.944C355.791 67.3093 353.316 68.2373 350.18 68.728C349.839 68.7707 349.529 68.6747 349.252 68.44C348.975 68.2053 348.836 67.9067 348.836 67.544C348.836 67.2453 348.932 66.9787 349.124 66.744C349.337 66.488 349.604 66.3387 349.924 66.296C351.247 66.104 352.495 65.784 353.668 65.336C354.863 64.8667 355.897 64.248 356.772 63.48C357.647 62.6907 358.287 61.7093 358.692 60.536C358.735 60.3867 358.681 60.312 358.532 60.312H355.556C355.023 60.312 354.564 60.1307 354.18 59.768C353.817 59.384 353.636 58.9253 353.636 58.392V43.8C353.636 43.2667 353.817 42.8187 354.18 42.456C354.564 42.072 355.023 41.88 355.556 41.88H369.444C369.977 41.88 370.425 42.072 370.788 42.456C371.172 42.8187 371.364 43.2667 371.364 43.8V58.392C371.364 58.9253 371.172 59.384 370.788 59.768C370.425 60.1307 369.977 60.312 369.444 60.312H366.404C366.276 60.312 366.212 60.376 366.212 60.504V64.536C366.212 65.1333 366.319 65.56 366.532 65.816C366.745 66.0507 367.161 66.2 367.78 66.264C368.42 66.3067 369.359 66.328 370.596 66.328C371.385 66.328 372.015 66.264 372.484 66.136C372.953 65.9867 373.465 65.6133 374.02 65.016C374.276 64.7173 374.607 64.568 375.012 64.568C375.247 64.568 375.481 64.6533 375.716 64.824ZM368.74 47.256C368.868 47.256 368.932 47.192 368.932 47.064V44.44C368.932 44.312 368.868 44.248 368.74 44.248H356.26C356.132 44.248 356.068 44.312 356.068 44.44V47.064C356.068 47.192 356.132 47.256 356.26 47.256H368.74ZM356.068 52.44C356.068 52.568 356.132 52.632 356.26 52.632H368.74C368.868 52.632 368.932 52.568 368.932 52.44V49.784C368.932 49.656 368.868 49.592 368.74 49.592H356.26C356.132 49.592 356.068 49.656 356.068 49.784V52.44ZM368.932 55.16C368.932 55.032 368.868 54.968 368.74 54.968H356.26C356.132 54.968 356.068 55.032 356.068 55.16V57.784C356.068 57.912 356.132 57.976 356.26 57.976H368.74C368.868 57.976 368.932 57.912 368.932 57.784V55.16ZM394.052 67.64C392.687 67.64 391.599 67.448 390.788 67.064C389.999 66.68 389.433 66.1893 389.092 65.592C388.751 64.9947 388.58 64.3973 388.58 63.8C388.58 63.1387 388.729 62.5413 389.028 62.008C389.348 61.432 389.711 61.016 390.116 60.76C390.521 60.504 390.948 60.376 391.396 60.376C391.993 60.376 392.623 60.5787 393.284 60.984C393.945 61.368 394.617 61.8907 395.3 62.552C396.004 63.192 396.676 63.9067 397.316 64.696C397.401 64.824 397.529 64.8667 397.7 64.824C398.489 64.5253 399.225 64.1413 399.908 63.672C400.591 63.2027 401.167 62.6373 401.636 61.976C402.148 61.208 402.404 60.376 402.404 59.48C402.404 58.456 402.041 57.5173 401.316 56.664C400.612 55.8107 399.524 55.2987 398.052 55.128C397.839 55.0853 397.625 55.064 397.412 55.064C397.22 55.064 397.017 55.064 396.804 55.064C394.991 55.064 393.263 55.4907 391.62 56.344C389.999 57.1973 388.377 58.3493 386.756 59.8C386.521 60.0133 386.223 60.12 385.86 60.12C385.604 60.12 385.38 60.056 385.188 59.928C384.889 59.736 384.74 59.4587 384.74 59.096C384.74 58.904 384.793 58.7227 384.9 58.552C386.308 56.4613 387.769 54.4133 389.284 52.408C390.82 50.4027 392.367 48.5893 393.924 46.968C393.988 46.904 394.02 46.84 394.02 46.776C394.02 46.6907 393.935 46.6587 393.764 46.68C393.167 46.7653 392.463 46.84 391.652 46.904C390.863 46.968 390.052 47 389.22 47C388.943 47 388.676 47 388.42 47C388.164 47 387.908 46.9893 387.652 46.968C387.332 46.9467 387.065 46.8187 386.852 46.584C386.639 46.328 386.532 46.04 386.532 45.72C386.532 45.3787 386.66 45.0907 386.916 44.856C387.193 44.6213 387.503 44.5147 387.844 44.536C388.719 44.6 389.561 44.632 390.372 44.632C391.46 44.632 392.495 44.568 393.476 44.44C394.479 44.312 395.46 44.088 396.42 43.768C396.505 43.7253 396.58 43.704 396.644 43.704C396.729 43.704 396.815 43.704 396.9 43.704C397.135 43.704 397.359 43.768 397.572 43.896C397.807 44.024 397.967 44.2053 398.052 44.44C398.159 44.696 398.212 44.9307 398.212 45.144C398.212 45.6347 398.02 46.0507 397.636 46.392C396.164 47.6933 394.852 49.0053 393.7 50.328C392.548 51.6293 391.439 53.048 390.372 54.584C390.329 54.6693 390.308 54.7227 390.308 54.744C390.308 54.9147 390.425 54.9467 390.66 54.84C391.961 54.1573 393.199 53.6667 394.372 53.368C395.567 53.0693 396.676 52.92 397.7 52.92C399.471 52.92 400.953 53.3147 402.148 54.104C403.343 54.8933 404.143 55.9493 404.548 57.272C404.761 57.9333 404.868 58.6373 404.868 59.384C404.868 60.856 404.409 62.2213 403.492 63.48C402.596 64.7387 401.337 65.752 399.716 66.52C398.095 67.2667 396.207 67.64 394.052 67.64ZM394.82 65.4C394.969 65.4 395.044 65.3467 395.044 65.24C395.044 65.1547 395.012 65.0693 394.948 64.984C394.18 64.088 393.519 63.4693 392.964 63.128C392.431 62.7867 391.993 62.616 391.652 62.616C391.353 62.616 391.129 62.712 390.98 62.904C390.831 63.096 390.756 63.3093 390.756 63.544C390.756 63.608 390.756 63.672 390.756 63.736C390.777 63.8 390.799 63.864 390.82 63.928C391.033 64.4613 391.513 64.856 392.26 65.112C393.007 65.3467 393.86 65.4427 394.82 65.4Z" fill="#EDEDED"/>
<path d="M157.463 81.75L136.368 74.2906L122.01 79.9854C121.101 80.4667 120.206 80.4399 119.323 79.9052C118.441 79.3705 118 78.5684 118 77.499V32.7427C118 32.0476 118.201 31.4326 118.602 30.8979C119.003 30.3632 119.524 29.9622 120.166 29.6948L136.368 24L157.463 31.3792L171.74 25.6844C172.649 25.2566 173.544 25.2967 174.427 25.8047C175.309 26.3127 175.75 27.1014 175.75 28.1708V73.4885C175.75 74.0767 175.549 74.5847 175.148 75.0125C174.747 75.4403 174.253 75.7611 173.665 75.975L157.463 81.75ZM154.735 75.7344V35.2292L139.015 29.9354V70.4406L154.735 75.7344Z" fill="white"/>
</svg>
