<svg width="530" height="106" viewBox="0 0 530 106" fill="none" xmlns="http://www.w3.org/2000/svg">
<rect width="530" height="106" rx="53" fill="#009672"/>
<path d="M215.8 56.68C215.773 56.5467 215.68 56.4933 215.52 56.52C215.227 56.6267 214.92 56.72 214.6 56.8C214.28 56.88 213.96 56.96 213.64 57.04C213.507 57.0933 213.44 57.1733 213.44 57.28V70.84C213.44 71.24 213.293 71.5867 213 71.88C212.707 72.1733 212.36 72.32 211.96 72.32C211.533 72.32 211.173 72.1733 210.88 71.88C210.613 71.5867 210.48 71.24 210.48 70.84V57.88C210.48 57.6933 210.4 57.6267 210.24 57.68C209.6 57.76 208.973 57.8267 208.36 57.88C207.773 57.9333 207.213 57.9867 206.68 58.04C206.173 58.0667 205.773 57.92 205.48 57.6C205.187 57.2533 205.04 56.8667 205.04 56.44C205.04 56.1467 205.107 55.8533 205.24 55.56C205.4 55.24 205.627 54.9733 205.92 54.76C206.427 54.3867 206.933 53.9467 207.44 53.44C207.973 52.9333 208.493 52.3867 209 51.8C209.08 51.6933 209.08 51.5867 209 51.48C208.573 50.7867 208.107 50.1467 207.6 49.56C207.12 48.9467 206.653 48.4133 206.2 47.96C205.693 47.4533 205.44 46.8267 205.44 46.08C205.44 45.52 205.6 45 205.92 44.52C206.533 43.6133 207.08 42.6533 207.56 41.64C208.067 40.6 208.453 39.6267 208.72 38.72C208.8 38.3733 208.973 38.0933 209.24 37.88C209.533 37.6667 209.84 37.56 210.16 37.56C210.587 37.56 210.933 37.7067 211.2 38C211.467 38.2667 211.6 38.5867 211.6 38.96C211.6 39.12 211.587 39.24 211.56 39.32C211.24 40.5467 210.827 41.7067 210.32 42.8C209.813 43.8933 209.187 44.9333 208.44 45.92C208.36 46.0267 208.373 46.1333 208.48 46.24C208.88 46.6667 209.267 47.0933 209.64 47.52C210.04 47.9467 210.413 48.4 210.76 48.88C210.813 48.96 210.867 49 210.92 49C211 49 211.053 48.96 211.08 48.88C211.773 47.76 212.413 46.5333 213 45.2C213.613 43.8667 214.093 42.4667 214.44 41C214.52 40.6533 214.693 40.3867 214.96 40.2C215.227 39.9867 215.52 39.88 215.84 39.88C216.293 39.88 216.653 40.04 216.92 40.36C217.213 40.6533 217.36 41 217.36 41.4C217.36 41.56 217.347 41.68 217.32 41.76C216.893 43.4933 216.28 45.2 215.48 46.88C214.68 48.5333 213.827 50.0267 212.92 51.36C212.013 52.6933 211.187 53.7467 210.44 54.52C210.36 54.6 210.333 54.6667 210.36 54.72C210.387 54.7733 210.453 54.7867 210.56 54.76C211.253 54.6267 211.947 54.4933 212.64 54.36C213.36 54.2267 214.04 54.0667 214.68 53.88C214.84 53.8533 214.893 53.7467 214.84 53.56C214.733 53.2933 214.627 53.04 214.52 52.8C214.413 52.5333 214.307 52.2933 214.2 52.08C214.12 51.8667 214.08 51.68 214.08 51.52C214.08 51.1467 214.2 50.84 214.44 50.6C214.707 50.3333 215.067 50.2 215.52 50.2C215.84 50.2 216.147 50.2933 216.44 50.48C216.733 50.64 216.933 50.88 217.04 51.2C217.333 51.9467 217.627 52.8 217.92 53.76C218.24 54.72 218.507 55.7067 218.72 56.72C218.827 57.1733 218.733 57.6 218.44 58C218.147 58.4 217.76 58.6 217.28 58.6C216.987 58.6 216.707 58.5067 216.44 58.32C216.2 58.1333 216.053 57.88 216 57.56L215.8 56.68ZM238.6 45.04C239.08 45.3867 239.32 45.8667 239.32 46.48C239.32 46.9333 239.187 47.3067 238.92 47.6C238.653 47.8667 238.347 48 238 48C237.76 48 237.533 47.9333 237.32 47.8C235.88 46.7867 234.573 45.5733 233.4 44.16C232.227 42.72 231.28 41.2267 230.56 39.68C230.533 39.5733 230.493 39.48 230.44 39.4C230.413 39.2933 230.4 39.1867 230.4 39.08C230.4 38.7067 230.533 38.3867 230.8 38.12C231.067 37.8267 231.413 37.68 231.84 37.68C232.533 37.68 233 37.9733 233.24 38.56C233.853 39.8133 234.587 40.9733 235.44 42.04C236.32 43.08 237.373 44.08 238.6 45.04ZM220.48 48.04C220.267 48.1733 220.053 48.24 219.84 48.24C219.307 48.24 218.907 47.9867 218.64 47.48C218.613 47.3733 218.573 47.2667 218.52 47.16C218.493 47.0267 218.48 46.9067 218.48 46.8C218.48 46.24 218.72 45.76 219.2 45.36C220.373 44.4267 221.373 43.3467 222.2 42.12C223.053 40.8933 223.707 39.7867 224.16 38.8C224.48 38.1333 224.96 37.8 225.6 37.8C226 37.8 226.333 37.9467 226.6 38.24C226.867 38.5067 227 38.8267 227 39.2C227 39.28 227 39.36 227 39.44C227 39.52 226.973 39.6 226.92 39.68C226.547 40.64 226.027 41.6533 225.36 42.72C224.72 43.76 223.987 44.7467 223.16 45.68C222.333 46.6133 221.44 47.4 220.48 48.04ZM226.6 44.56C226.84 43.92 227.28 43.6 227.92 43.6C228 43.6 228.147 43.6267 228.36 43.68C228.653 43.7867 228.893 43.9867 229.08 44.28C229.293 44.5467 229.4 44.8267 229.4 45.12C229.4 45.2 229.387 45.28 229.36 45.36C229.36 45.44 229.347 45.52 229.32 45.6C228.973 46.56 228.52 47.4933 227.96 48.4C227.4 49.28 226.853 50.0667 226.32 50.76C225.787 51.4267 225.347 51.9467 225 52.32C224.92 52.3733 224.893 52.44 224.92 52.52C224.947 52.5733 225.013 52.5867 225.12 52.56C226.587 52.4267 227.973 52.2933 229.28 52.16C230.587 52.0267 231.8 51.8533 232.92 51.64C233.133 51.64 233.187 51.5467 233.08 51.36C233 51.2267 232.92 51.1067 232.84 51C232.787 50.8933 232.72 50.7867 232.64 50.68C232.56 50.5467 232.507 50.4133 232.48 50.28C232.453 50.1467 232.44 50.0267 232.44 49.92C232.44 49.6533 232.493 49.4133 232.6 49.2C232.733 48.96 232.933 48.7867 233.2 48.68C233.413 48.5733 233.68 48.52 234 48.52C234.293 48.52 234.573 48.6 234.84 48.76C235.133 48.8933 235.36 49.1067 235.52 49.4C236.053 50.3867 236.52 51.3867 236.92 52.4C237.32 53.3867 237.653 54.3067 237.92 55.16C237.947 55.24 237.96 55.32 237.96 55.4C237.987 55.4533 238 55.52 238 55.6C238 56 237.853 56.36 237.56 56.68C237.267 57 236.893 57.16 236.44 57.16C235.773 57.16 235.333 56.8133 235.12 56.12C234.96 55.5067 234.76 54.92 234.52 54.36C234.467 54.2 234.373 54.1467 234.24 54.2C232.533 54.5467 230.653 54.8267 228.6 55.04C226.573 55.2267 224.32 55.4 221.84 55.56C221.387 55.5867 220.973 55.4267 220.6 55.08C220.253 54.7333 220.08 54.3067 220.08 53.8C220.08 53.16 220.373 52.5867 220.96 52.08C222.107 51.2267 223.187 50.1333 224.2 48.8C225.24 47.4667 226.04 46.0533 226.6 44.56ZM228.16 56C228.933 56.24 229.693 56.52 230.44 56.84C231.187 57.16 231.893 57.52 232.56 57.92C233.173 58.2933 233.48 58.8267 233.48 59.52C233.48 59.8133 233.427 60.0667 233.32 60.28C233.133 60.76 232.787 61 232.28 61C232.013 61 231.773 60.92 231.56 60.76C230.973 60.3333 230.333 59.9467 229.64 59.6C228.973 59.2533 228.227 58.96 227.4 58.72C226.733 58.5067 226.4 58.0533 226.4 57.36C226.4 56.96 226.533 56.6267 226.8 56.36C227.093 56.0933 227.427 55.96 227.8 55.96C227.96 55.96 228.08 55.9733 228.16 56ZM233.76 68.24C234.08 67.9733 234.427 67.84 234.8 67.84C235.173 67.84 235.493 67.9733 235.76 68.24C236.027 68.5067 236.16 68.8267 236.16 69.2C236.16 69.6 236.013 69.9333 235.72 70.2C235.027 70.8133 234.307 71.24 233.56 71.48C232.84 71.72 231.973 71.84 230.96 71.84L229 71.88C227.347 71.88 226.013 71.4933 225 70.72C223.987 69.9733 223.48 68.7467 223.48 67.04V59.24C223.48 58.8667 223.613 58.5467 223.88 58.28C224.173 57.9867 224.52 57.84 224.92 57.84C225.293 57.84 225.613 57.9867 225.88 58.28C226.173 58.5467 226.32 58.8667 226.32 59.24V67.04C226.32 68 226.587 68.6 227.12 68.84C227.68 69.08 228.667 69.2 230.08 69.2C230.96 69.2 231.667 69.1467 232.2 69.04C232.733 68.9333 233.253 68.6667 233.76 68.24ZM217.92 64.56C218.027 64.9867 217.92 65.3867 217.6 65.76C217.307 66.1333 216.92 66.32 216.44 66.32C216.147 66.32 215.867 66.2133 215.6 66C215.36 65.7867 215.213 65.52 215.16 65.2C214.92 63.6267 214.56 62.2667 214.08 61.12C214 60.96 213.96 60.7867 213.96 60.6C213.96 60.3067 214.04 60.04 214.2 59.8C214.36 59.56 214.573 59.3867 214.84 59.28C214.947 59.2267 215.04 59.2 215.12 59.2C215.2 59.2 215.293 59.2 215.4 59.2C215.72 59.2 216.013 59.2933 216.28 59.48C216.547 59.64 216.733 59.8667 216.84 60.16C217.08 60.8267 217.293 61.5333 217.48 62.28C217.667 63.0267 217.813 63.7867 217.92 64.56ZM208.24 59.36C208.72 59.36 209.107 59.5333 209.4 59.88C209.72 60.2 209.853 60.5867 209.8 61.04C209.667 62.5333 209.467 64.1067 209.2 65.76C208.933 67.4133 208.547 68.9467 208.04 70.36C207.933 70.7067 207.733 70.9733 207.44 71.16C207.147 71.3467 206.827 71.44 206.48 71.44C206.053 71.44 205.72 71.3067 205.48 71.04C205.24 70.8 205.12 70.5067 205.12 70.16C205.12 70.08 205.12 70.0133 205.12 69.96C205.147 69.88 205.173 69.8 205.2 69.72C205.733 68.2267 206.12 66.7333 206.36 65.24C206.6 63.72 206.773 62.1733 206.88 60.6C206.907 60.2533 207.053 59.96 207.32 59.72C207.587 59.48 207.893 59.36 208.24 59.36ZM221.32 61.4C221.693 61.4 222.027 61.5467 222.32 61.84C222.64 62.1333 222.8 62.48 222.8 62.88C222.8 63.0133 222.787 63.12 222.76 63.2C222.52 64.3467 222.093 65.5733 221.48 66.88C220.867 68.16 220.053 69.3333 219.04 70.4C218.8 70.64 218.52 70.76 218.2 70.76C217.773 70.76 217.413 70.5867 217.12 70.24C216.907 69.9733 216.8 69.68 216.8 69.36C216.8 68.96 216.947 68.5867 217.24 68.24C217.933 67.4133 218.507 66.4933 218.96 65.48C219.44 64.4667 219.787 63.4667 220 62.48C220.08 62.1867 220.24 61.9333 220.48 61.72C220.747 61.5067 221.027 61.4 221.32 61.4ZM238.56 66.4C238.907 66.72 239.08 67.1067 239.08 67.56C239.08 67.88 238.973 68.2133 238.76 68.56C238.52 68.88 238.187 69.04 237.76 69.04C237.387 69.04 237.08 68.92 236.84 68.68C236.227 68.0667 235.587 67.5333 234.92 67.08C234.253 66.6 233.56 66.1733 232.84 65.8C232.333 65.5333 232.08 65.12 232.08 64.56C232.08 64.3467 232.12 64.1467 232.2 63.96C232.467 63.4 232.893 63.12 233.48 63.12C233.72 63.12 233.933 63.1733 234.12 63.28C234.92 63.68 235.693 64.1467 236.44 64.68C237.187 65.2133 237.893 65.7867 238.56 66.4ZM277.48 68.28C277.827 68.36 278.107 68.5333 278.32 68.8C278.533 69.04 278.64 69.32 278.64 69.64C278.64 70.0667 278.467 70.4267 278.12 70.72C277.773 71.04 277.373 71.16 276.92 71.08C275.32 70.76 273.707 70.2933 272.08 69.68C270.48 69.0667 268.96 68.3733 267.52 67.6C266.107 66.8 264.853 66 263.76 65.2C263.573 65.0667 263.48 65.1067 263.48 65.32V70.84C263.48 71.24 263.333 71.5867 263.04 71.88C262.747 72.1733 262.4 72.32 262 72.32C261.6 72.32 261.253 72.1733 260.96 71.88C260.667 71.5867 260.52 71.24 260.52 70.84V65.48C260.52 65.2667 260.427 65.2267 260.24 65.36C259.093 66.2133 257.733 67.0267 256.16 67.8C254.613 68.5733 253.04 69.24 251.44 69.8C249.84 70.36 248.36 70.7733 247 71.04C246.573 71.12 246.2 71.0133 245.88 70.72C245.587 70.4267 245.44 70.0667 245.44 69.64C245.44 69.2933 245.547 69 245.76 68.76C245.973 68.4933 246.253 68.32 246.6 68.24C247.64 68 248.787 67.68 250.04 67.28C251.32 66.8533 252.613 66.3467 253.92 65.76C255.227 65.1733 256.413 64.52 257.48 63.8C257.587 63.7467 257.627 63.6933 257.6 63.64C257.573 63.56 257.507 63.52 257.4 63.52H247.04C246.667 63.52 246.333 63.3867 246.04 63.12C245.773 62.8267 245.64 62.4933 245.64 62.12C245.64 61.72 245.773 61.3867 246.04 61.12C246.333 60.8267 246.667 60.68 247.04 60.68H260.28C260.44 60.68 260.52 60.6 260.52 60.44V58.72C260.52 58.56 260.44 58.48 260.28 58.48H252.36C251.693 58.48 251.12 58.2533 250.64 57.8C250.187 57.32 249.96 56.7467 249.96 56.08V46.72C249.96 46.6133 249.92 46.5467 249.84 46.52C249.787 46.4933 249.733 46.52 249.68 46.6C248.667 47.6133 247.573 48.5467 246.4 49.4C246.16 49.56 245.92 49.64 245.68 49.64C245.12 49.64 244.733 49.3733 244.52 48.84C244.413 48.6267 244.36 48.3733 244.36 48.08C244.36 47.4133 244.627 46.8933 245.16 46.52C246.707 45.3467 248.04 44.0533 249.16 42.64C250.307 41.2 251.213 39.8 251.88 38.44C252.04 38.1467 252.267 37.9067 252.56 37.72C252.853 37.5067 253.16 37.4 253.48 37.4C253.933 37.4 254.293 37.5467 254.56 37.84C254.827 38.1067 254.96 38.4267 254.96 38.8C254.96 38.96 254.92 39.12 254.84 39.28C254.707 39.5467 254.56 39.84 254.4 40.16C254.24 40.4533 254.053 40.7733 253.84 41.12C253.76 41.3067 253.813 41.4 254 41.4H261.28C261.413 41.4 261.52 41.3467 261.6 41.24C262.053 40.6 262.493 39.7733 262.92 38.76C263.053 38.4667 263.253 38.2267 263.52 38.04C263.787 37.8267 264.093 37.72 264.44 37.72C264.893 37.72 265.267 37.8667 265.56 38.16C265.853 38.4533 266 38.8 266 39.2C266 39.3867 265.96 39.56 265.88 39.72C265.773 39.9867 265.667 40.24 265.56 40.48C265.48 40.6933 265.387 40.9067 265.28 41.12C265.2 41.3067 265.253 41.4 265.44 41.4H273.96C274.36 41.4 274.693 41.5467 274.96 41.84C275.253 42.1067 275.4 42.4267 275.4 42.8C275.4 43.2 275.253 43.5467 274.96 43.84C274.693 44.1067 274.36 44.24 273.96 44.24H264.36C264.2 44.24 264.12 44.32 264.12 44.48V46C264.12 46.16 264.2 46.24 264.36 46.24H272.84C273.213 46.24 273.533 46.3733 273.8 46.64C274.067 46.9067 274.2 47.2267 274.2 47.6C274.2 47.9467 274.067 48.2667 273.8 48.56C273.533 48.8267 273.213 48.96 272.84 48.96H264.36C264.2 48.96 264.12 49.04 264.12 49.2V50.68C264.12 50.84 264.2 50.92 264.36 50.92H272.84C273.213 50.92 273.533 51.0533 273.8 51.32C274.067 51.5867 274.2 51.9067 274.2 52.28C274.2 52.6533 274.067 52.9867 273.8 53.28C273.533 53.5467 273.213 53.68 272.84 53.68H264.36C264.2 53.68 264.12 53.76 264.12 53.92V55.4C264.12 55.56 264.2 55.64 264.36 55.64H273.96C274.36 55.64 274.693 55.7867 274.96 56.08C275.253 56.3467 275.4 56.68 275.4 57.08C275.4 57.4533 275.253 57.7867 274.96 58.08C274.693 58.3467 274.36 58.48 273.96 58.48H263.72C263.56 58.48 263.48 58.56 263.48 58.72V60.44C263.48 60.6 263.56 60.68 263.72 60.68H276.96C277.333 60.68 277.653 60.8267 277.92 61.12C278.213 61.3867 278.36 61.72 278.36 62.12C278.36 62.4933 278.213 62.8267 277.92 63.12C277.653 63.3867 277.333 63.52 276.96 63.52H266.8C266.693 63.52 266.613 63.5467 266.56 63.6C266.507 63.6533 266.52 63.7067 266.6 63.76C267.96 64.6667 269.587 65.5467 271.48 66.4C273.373 67.2267 275.373 67.8533 277.48 68.28ZM252.88 46C252.88 46.16 252.96 46.24 253.12 46.24H260.92C261.08 46.24 261.16 46.16 261.16 46V44.48C261.16 44.32 261.08 44.24 260.92 44.24H253.12C252.96 44.24 252.88 44.32 252.88 44.48V46ZM252.88 50.68C252.88 50.84 252.96 50.92 253.12 50.92H260.92C261.08 50.92 261.16 50.84 261.16 50.68V49.2C261.16 49.04 261.08 48.96 260.92 48.96H253.12C252.96 48.96 252.88 49.04 252.88 49.2V50.68ZM261.16 53.92C261.16 53.76 261.08 53.68 260.92 53.68H253.12C252.96 53.68 252.88 53.76 252.88 53.92V55.4C252.88 55.56 252.96 55.64 253.12 55.64H260.92C261.08 55.64 261.16 55.56 261.16 55.4V53.92ZM295.28 56.72C295.253 56.5867 295.16 56.5333 295 56.56C294.733 56.64 294.467 56.72 294.2 56.8C293.933 56.88 293.653 56.96 293.36 57.04C293.227 57.0933 293.16 57.1733 293.16 57.28V70.88C293.16 71.2533 293.013 71.5867 292.72 71.88C292.427 72.1733 292.093 72.32 291.72 72.32C291.32 72.32 290.973 72.1733 290.68 71.88C290.387 71.5867 290.24 71.2533 290.24 70.88V57.92C290.24 57.7067 290.16 57.6267 290 57.68C289.413 57.76 288.84 57.8267 288.28 57.88C287.747 57.9333 287.24 57.9867 286.76 58.04C286.253 58.0667 285.84 57.9067 285.52 57.56C285.227 57.2133 285.08 56.8133 285.08 56.36C285.08 56.0667 285.147 55.7867 285.28 55.52C285.413 55.2267 285.613 54.9733 285.88 54.76C286.893 53.9867 287.88 52.9867 288.84 51.76C288.92 51.6533 288.92 51.5467 288.84 51.44C288.44 50.7467 287.987 50.1067 287.48 49.52C286.973 48.9067 286.467 48.3467 285.96 47.84C285.507 47.3867 285.28 46.8267 285.28 46.16C285.28 45.6 285.44 45.1067 285.76 44.68C286.427 43.7467 287 42.7333 287.48 41.64C287.987 40.5467 288.36 39.52 288.6 38.56C288.68 38.2667 288.84 38.0267 289.08 37.84C289.347 37.6267 289.627 37.52 289.92 37.52C290.347 37.52 290.693 37.6667 290.96 37.96C291.227 38.2267 291.36 38.5467 291.36 38.92C291.36 39.08 291.347 39.2 291.32 39.28C291.027 40.5067 290.627 41.6667 290.12 42.76C289.64 43.8533 289.04 44.9067 288.32 45.92C288.24 46.0267 288.253 46.1333 288.36 46.24C289.107 47.0133 289.84 47.8933 290.56 48.88C290.64 49.0667 290.747 49.0667 290.88 48.88C291.573 47.7333 292.2 46.4933 292.76 45.16C293.32 43.8267 293.773 42.4267 294.12 40.96C294.307 40.24 294.76 39.88 295.48 39.88C295.64 39.88 295.76 39.8933 295.84 39.92C296.587 40.1333 296.96 40.6133 296.96 41.36C296.96 41.52 296.947 41.64 296.92 41.72C296.627 42.8933 296.173 44.24 295.56 45.76C294.973 47.2533 294.227 48.7733 293.32 50.32C292.44 51.84 291.413 53.24 290.24 54.52C290.16 54.6 290.133 54.6667 290.16 54.72C290.187 54.7733 290.253 54.7867 290.36 54.76C291.053 54.6267 291.72 54.4933 292.36 54.36C293.027 54.2267 293.653 54.0667 294.24 53.88C294.4 53.8533 294.453 53.7467 294.4 53.56C294.32 53.2667 294.227 53 294.12 52.76C294.013 52.4933 293.907 52.2533 293.8 52.04C293.72 51.88 293.68 51.7067 293.68 51.52C293.68 51.1733 293.813 50.88 294.08 50.64C294.347 50.4 294.667 50.28 295.04 50.28C295.387 50.28 295.707 50.3733 296 50.56C296.293 50.7467 296.493 51 296.6 51.32C296.92 52.0667 297.213 52.8933 297.48 53.8C297.773 54.7067 298.027 55.6667 298.24 56.68C298.267 56.76 298.28 56.8667 298.28 57C298.28 57.4267 298.133 57.8133 297.84 58.16C297.547 58.48 297.173 58.64 296.72 58.64C296.427 58.64 296.16 58.5467 295.92 58.36C295.68 58.1467 295.533 57.88 295.48 57.56L295.28 56.72ZM299.4 38.52H317.88C318.28 38.52 318.627 38.6667 318.92 38.96C319.213 39.2533 319.36 39.6 319.36 40C319.36 40.4 319.213 40.7467 318.92 41.04C318.627 41.3333 318.28 41.48 317.88 41.48H299.4C298.973 41.48 298.613 41.3333 298.32 41.04C298.053 40.7467 297.92 40.4 297.92 40C297.92 39.6 298.053 39.2533 298.32 38.96C298.613 38.6667 298.973 38.52 299.4 38.52ZM315.8 53.2H302.48C302.32 53.2 302.24 53.28 302.24 53.44C302.213 54.8 302.12 56.3867 301.96 58.2C301.827 60.0133 301.613 61.92 301.32 63.92C301.053 65.92 300.667 67.8933 300.16 69.84C300.08 70.16 299.907 70.4133 299.64 70.6C299.373 70.7867 299.08 70.88 298.76 70.88C298.333 70.88 297.987 70.7333 297.72 70.44C297.48 70.1467 297.36 69.8133 297.36 69.44C297.36 69.28 297.373 69.16 297.4 69.08C297.88 67.2133 298.253 65.2267 298.52 63.12C298.813 61.0133 299.027 58.9733 299.16 57C299.293 55.0267 299.36 53.2933 299.36 51.8V46.16C299.36 45.4667 299.587 44.8933 300.04 44.44C300.52 43.9867 301.093 43.76 301.76 43.76H315.8C316.467 43.76 317.027 43.9867 317.48 44.44C317.96 44.8933 318.2 45.4667 318.2 46.16V50.8C318.2 51.4667 317.96 52.04 317.48 52.52C317.027 52.9733 316.467 53.2 315.8 53.2ZM315.28 46.8C315.28 46.64 315.2 46.56 315.04 46.56H302.48C302.32 46.56 302.24 46.64 302.24 46.8V50.12C302.24 50.28 302.32 50.36 302.48 50.36H315.04C315.2 50.36 315.28 50.28 315.28 50.12V46.8ZM304.36 55.64H316.48C317.093 55.64 317.613 55.8533 318.04 56.28C318.467 56.7067 318.68 57.2267 318.68 57.84V68.72C318.68 69.84 318.453 70.6667 318 71.2C317.547 71.76 316.773 72.04 315.68 72.04C315.573 72.04 315.44 72.04 315.28 72.04C315.147 72.04 315.013 72.0267 314.88 72C314.48 71.9733 314.147 71.7733 313.88 71.4C313.8 71.24 313.72 71.24 313.64 71.4C313.373 71.8 313 72 312.52 72C312.147 72 311.827 71.8667 311.56 71.6C311.293 71.3333 311.16 71.0133 311.16 70.64V65.88C311.16 65.72 311.08 65.64 310.92 65.64H309.96C309.8 65.64 309.72 65.72 309.72 65.88V70.64C309.72 71.0133 309.587 71.3333 309.32 71.6C309.053 71.8667 308.733 72 308.36 72C307.987 72 307.667 71.8667 307.4 71.6C307.133 71.3333 307 71.0133 307 70.64V65.88C307 65.72 306.92 65.64 306.76 65.64H305.12C304.96 65.64 304.88 65.72 304.88 65.88V70.72C304.88 71.0667 304.747 71.3733 304.48 71.64C304.213 71.9067 303.893 72.04 303.52 72.04C303.173 72.04 302.853 71.9067 302.56 71.64C302.293 71.3733 302.16 71.0667 302.16 70.72V57.84C302.16 57.2267 302.373 56.7067 302.8 56.28C303.253 55.8533 303.773 55.64 304.36 55.64ZM305.12 58.48C304.96 58.48 304.88 58.56 304.88 58.72V62.68C304.88 62.84 304.96 62.92 305.12 62.92H306.76C306.92 62.92 307 62.84 307 62.68V58.72C307 58.56 306.92 58.48 306.76 58.48H305.12ZM309.96 58.48C309.8 58.48 309.72 58.56 309.72 58.72V62.68C309.72 62.84 309.8 62.92 309.96 62.92H310.92C311.08 62.92 311.16 62.84 311.16 62.68V58.72C311.16 58.56 311.08 58.48 310.92 58.48H309.96ZM313.88 62.68C313.88 62.84 313.96 62.92 314.12 62.92H315.8C315.96 62.92 316.04 62.84 316.04 62.68V58.72C316.04 58.56 315.96 58.48 315.8 58.48H314.12C313.96 58.48 313.88 58.56 313.88 58.72V62.68ZM288.2 59.4C288.653 59.4 289.027 59.56 289.32 59.88C289.613 60.1733 289.733 60.5467 289.68 61C289.573 62.4933 289.387 64.04 289.12 65.64C288.853 67.2133 288.44 68.8267 287.88 70.48C287.667 71.1733 287.2 71.52 286.48 71.52C286.053 71.52 285.707 71.3733 285.44 71.08C285.173 70.8133 285.04 70.5067 285.04 70.16C285.04 70.08 285.04 70.0133 285.04 69.96C285.067 69.88 285.093 69.8 285.12 69.72C285.627 68.2533 286 66.7733 286.24 65.28C286.48 63.7867 286.653 62.2667 286.76 60.72C286.813 60.3467 286.973 60.04 287.24 59.8C287.533 59.5333 287.853 59.4 288.2 59.4ZM297.64 65.2C297.72 65.6267 297.613 66.04 297.32 66.44C297.053 66.84 296.653 67.04 296.12 67.04C295.827 67.04 295.56 66.9333 295.32 66.72C295.08 66.5067 294.933 66.24 294.88 65.92C294.773 64.9867 294.627 64.16 294.44 63.44C294.253 62.6933 294.053 62.0267 293.84 61.44C293.76 61.28 293.72 61.1067 293.72 60.92C293.72 60.5733 293.84 60.28 294.08 60.04C294.347 59.7733 294.693 59.64 295.12 59.64C295.413 59.64 295.693 59.72 295.96 59.88C296.227 60.04 296.413 60.2667 296.52 60.56C296.787 61.2533 297.013 62.0133 297.2 62.84C297.387 63.64 297.533 64.4267 297.64 65.2ZM315.44 69.28C315.493 69.28 315.533 69.2933 315.56 69.32C315.587 69.32 315.613 69.32 315.64 69.32C315.907 69.32 316.04 69.12 316.04 68.72V65.88C316.04 65.72 315.96 65.64 315.8 65.64H314.12C313.96 65.64 313.88 65.72 313.88 65.88V69.4C313.88 69.6133 313.947 69.6533 314.08 69.52C314.24 69.3867 314.44 69.3067 314.68 69.28C314.947 69.2267 315.2 69.2267 315.44 69.28ZM351.84 66.64C352.32 66.5867 352.733 66.72 353.08 67.04C353.453 67.36 353.64 67.76 353.64 68.24C353.64 68.6667 353.493 69.04 353.2 69.36C352.933 69.68 352.573 69.8667 352.12 69.92C351.053 70.0267 349.52 70.1333 347.52 70.24C345.547 70.3733 343.293 70.44 340.76 70.44C338.707 70.44 337.027 70.16 335.72 69.6C334.44 69.0133 333.587 68.08 333.16 66.8C332.973 66.24 332.88 65.6667 332.88 65.08C332.88 63.6933 333.533 62.2933 334.84 60.88C336.173 59.4667 338.453 57.9067 341.68 56.2C341.973 56.0933 342.027 55.9333 341.84 55.72C341.253 54.8667 340.36 54.44 339.16 54.44C338.44 54.44 337.653 54.5867 336.8 54.88C335.947 55.1467 335.053 55.52 334.12 56C334.013 56.0533 333.893 56.1467 333.76 56.28C333.653 56.36 333.547 56.4533 333.44 56.56C333.333 56.64 333.213 56.72 333.08 56.8C332.867 56.9867 332.587 57.08 332.24 57.08C331.707 57.08 331.293 56.84 331 56.36C330.84 56.0667 330.76 55.7867 330.76 55.52C330.76 54.9867 330.973 54.5467 331.4 54.2C332.253 53.5333 333.04 52.7733 333.76 51.92C334.48 51.0667 335.133 50.0933 335.72 49C335.773 48.8933 335.8 48.8267 335.8 48.8C335.8 48.6133 335.68 48.5467 335.44 48.6C334.613 48.7067 333.827 48.8 333.08 48.88C332.333 48.9333 331.64 48.9867 331 49.04C330.573 49.0667 330.213 48.9333 329.92 48.64C329.627 48.3467 329.48 47.9867 329.48 47.56C329.48 47.1333 329.627 46.7733 329.92 46.48C330.213 46.1867 330.573 46.0267 331 46C333 45.92 335.053 45.72 337.16 45.4C337.347 45.3733 337.48 45.2667 337.56 45.08C337.8 44.3867 338.04 43.6667 338.28 42.92C338.52 42.1733 338.733 41.3867 338.92 40.56C339 40.2133 339.187 39.9333 339.48 39.72C339.773 39.5067 340.093 39.4 340.44 39.4C340.893 39.4 341.253 39.56 341.52 39.88C341.813 40.1733 341.96 40.52 341.96 40.92C341.96 41.08 341.947 41.2 341.92 41.28C341.787 41.7867 341.64 42.28 341.48 42.76C341.347 43.24 341.2 43.7067 341.04 44.16C341.04 44.1867 341.027 44.2133 341 44.24C341 44.2667 341 44.2933 341 44.32C341 44.5333 341.133 44.6 341.4 44.52C342.147 44.3067 342.88 44.08 343.6 43.84C344.347 43.5733 345.053 43.3067 345.72 43.04C345.933 42.96 346.12 42.92 346.28 42.92C346.573 42.92 346.84 43 347.08 43.16C347.347 43.2933 347.533 43.5067 347.64 43.8C347.693 43.9067 347.72 44.0133 347.72 44.12C347.72 44.2 347.72 44.28 347.72 44.36C347.72 45.08 347.413 45.56 346.8 45.8C345.787 46.2267 344.68 46.6133 343.48 46.96C342.307 47.3067 341.107 47.6133 339.88 47.88C339.693 47.9067 339.56 48 339.48 48.16C339.213 48.7467 338.947 49.3067 338.68 49.84C338.413 50.3733 338.133 50.8933 337.84 51.4C337.787 51.5067 337.76 51.5733 337.76 51.6C337.76 51.7333 337.88 51.7867 338.12 51.76C338.413 51.7067 338.68 51.6667 338.92 51.64C339.187 51.6133 339.44 51.6 339.68 51.6C340.907 51.6 341.92 51.8667 342.72 52.4C343.52 52.9067 344.147 53.5467 344.6 54.32C344.733 54.5333 344.893 54.5867 345.08 54.48C346.067 53.9733 347.093 53.4 348.16 52.76C349.227 52.12 350.347 51.3867 351.52 50.56C351.787 50.3733 352.08 50.28 352.4 50.28C352.933 50.28 353.347 50.5067 353.64 50.96C353.827 51.2267 353.92 51.52 353.92 51.84C353.92 52.4 353.693 52.8267 353.24 53.12C352.333 53.7067 351.507 54.2267 350.76 54.68C350.013 55.1333 349.253 55.56 348.48 55.96C347.707 56.36 346.827 56.8 345.84 57.28C345.653 57.3867 345.573 57.5467 345.6 57.76C345.787 58.96 345.92 60.6533 346 62.84C346 63.2667 345.853 63.6267 345.56 63.92C345.267 64.2133 344.907 64.36 344.48 64.36C344.053 64.36 343.693 64.2133 343.4 63.92C343.107 63.6267 342.947 63.2667 342.92 62.84C342.893 62.1467 342.867 61.52 342.84 60.96C342.813 60.3733 342.773 59.84 342.72 59.36C342.72 59.04 342.573 58.96 342.28 59.12C340.067 60.2933 338.467 61.3733 337.48 62.36C336.493 63.32 336 64.2133 336 65.04C336 65.28 336.04 65.52 336.12 65.76C336.36 66.3467 336.813 66.7867 337.48 67.08C338.147 67.3733 339.32 67.52 341 67.52C343.213 67.52 346.827 67.2267 351.84 66.64ZM398.52 67.28C398.92 67.6 399.12 67.9867 399.12 68.44C399.12 68.7867 399 69.08 398.76 69.32C398.093 70.04 397.413 70.5867 396.72 70.96C396.053 71.36 395.267 71.6267 394.36 71.76C393.453 71.92 392.32 72 390.96 72C389.387 72 388.053 71.88 386.96 71.64C385.867 71.4267 385.04 70.9867 384.48 70.32C383.92 69.6533 383.64 68.6667 383.64 67.36V61.88C383.64 61.72 383.56 61.64 383.4 61.64H380.56C380.453 61.64 380.373 61.7067 380.32 61.84C379.627 64.6667 378.147 66.9467 375.88 68.68C373.613 70.3867 370.52 71.5467 366.6 72.16C366.173 72.2133 365.787 72.0933 365.44 71.8C365.093 71.5067 364.92 71.1333 364.92 70.68C364.92 70.3067 365.04 69.9733 365.28 69.68C365.547 69.36 365.88 69.1733 366.28 69.12C367.933 68.88 369.493 68.48 370.96 67.92C372.453 67.3333 373.747 66.56 374.84 65.6C375.933 64.6133 376.733 63.3867 377.24 61.92C377.293 61.7333 377.227 61.64 377.04 61.64H373.32C372.653 61.64 372.08 61.4133 371.6 60.96C371.147 60.48 370.92 59.9067 370.92 59.24V41C370.92 40.3333 371.147 39.7733 371.6 39.32C372.08 38.84 372.653 38.6 373.32 38.6H390.68C391.347 38.6 391.907 38.84 392.36 39.32C392.84 39.7733 393.08 40.3333 393.08 41V59.24C393.08 59.9067 392.84 60.48 392.36 60.96C391.907 61.4133 391.347 61.64 390.68 61.64H386.88C386.72 61.64 386.64 61.72 386.64 61.88V66.92C386.64 67.6667 386.773 68.2 387.04 68.52C387.307 68.8133 387.827 69 388.6 69.08C389.4 69.1333 390.573 69.16 392.12 69.16C393.107 69.16 393.893 69.08 394.48 68.92C395.067 68.7333 395.707 68.2667 396.4 67.52C396.72 67.1467 397.133 66.96 397.64 66.96C397.933 66.96 398.227 67.0667 398.52 67.28ZM389.8 45.32C389.96 45.32 390.04 45.24 390.04 45.08V41.8C390.04 41.64 389.96 41.56 389.8 41.56H374.2C374.04 41.56 373.96 41.64 373.96 41.8V45.08C373.96 45.24 374.04 45.32 374.2 45.32H389.8ZM373.96 51.8C373.96 51.96 374.04 52.04 374.2 52.04H389.8C389.96 52.04 390.04 51.96 390.04 51.8V48.48C390.04 48.32 389.96 48.24 389.8 48.24H374.2C374.04 48.24 373.96 48.32 373.96 48.48V51.8ZM390.04 55.2C390.04 55.04 389.96 54.96 389.8 54.96H374.2C374.04 54.96 373.96 55.04 373.96 55.2V58.48C373.96 58.64 374.04 58.72 374.2 58.72H389.8C389.96 58.72 390.04 58.64 390.04 58.48V55.2ZM421.44 70.8C419.733 70.8 418.373 70.56 417.36 70.08C416.373 69.6 415.667 68.9867 415.24 68.24C414.813 67.4933 414.6 66.7467 414.6 66C414.6 65.1733 414.787 64.4267 415.16 63.76C415.56 63.04 416.013 62.52 416.52 62.2C417.027 61.88 417.56 61.72 418.12 61.72C418.867 61.72 419.653 61.9733 420.48 62.48C421.307 62.96 422.147 63.6133 423 64.44C423.88 65.24 424.72 66.1333 425.52 67.12C425.627 67.28 425.787 67.3333 426 67.28C426.987 66.9067 427.907 66.4267 428.76 65.84C429.613 65.2533 430.333 64.5467 430.92 63.72C431.56 62.76 431.88 61.72 431.88 60.6C431.88 59.32 431.427 58.1467 430.52 57.08C429.64 56.0133 428.28 55.3733 426.44 55.16C426.173 55.1067 425.907 55.08 425.64 55.08C425.4 55.08 425.147 55.08 424.88 55.08C422.613 55.08 420.453 55.6133 418.4 56.68C416.373 57.7467 414.347 59.1867 412.32 61C412.027 61.2667 411.653 61.4 411.2 61.4C410.88 61.4 410.6 61.32 410.36 61.16C409.987 60.92 409.8 60.5733 409.8 60.12C409.8 59.88 409.867 59.6533 410 59.44C411.76 56.8267 413.587 54.2667 415.48 51.76C417.4 49.2533 419.333 46.9867 421.28 44.96C421.36 44.88 421.4 44.8 421.4 44.72C421.4 44.6133 421.293 44.5733 421.08 44.6C420.333 44.7067 419.453 44.8 418.44 44.88C417.453 44.96 416.44 45 415.4 45C415.053 45 414.72 45 414.4 45C414.08 45 413.76 44.9867 413.44 44.96C413.04 44.9333 412.707 44.7733 412.44 44.48C412.173 44.16 412.04 43.8 412.04 43.4C412.04 42.9733 412.2 42.6133 412.52 42.32C412.867 42.0267 413.253 41.8933 413.68 41.92C414.773 42 415.827 42.04 416.84 42.04C418.2 42.04 419.493 41.96 420.72 41.8C421.973 41.64 423.2 41.36 424.4 40.96C424.507 40.9067 424.6 40.88 424.68 40.88C424.787 40.88 424.893 40.88 425 40.88C425.293 40.88 425.573 40.96 425.84 41.12C426.133 41.28 426.333 41.5067 426.44 41.8C426.573 42.12 426.64 42.4133 426.64 42.68C426.64 43.2933 426.4 43.8133 425.92 44.24C424.08 45.8667 422.44 47.5067 421 49.16C419.56 50.7867 418.173 52.56 416.84 54.48C416.787 54.5867 416.76 54.6533 416.76 54.68C416.76 54.8933 416.907 54.9333 417.2 54.8C418.827 53.9467 420.373 53.3333 421.84 52.96C423.333 52.5867 424.72 52.4 426 52.4C428.213 52.4 430.067 52.8933 431.56 53.88C433.053 54.8667 434.053 56.1867 434.56 57.84C434.827 58.6667 434.96 59.5467 434.96 60.48C434.96 62.32 434.387 64.0267 433.24 65.6C432.12 67.1733 430.547 68.44 428.52 69.4C426.493 70.3333 424.133 70.8 421.44 70.8ZM422.4 68C422.587 68 422.68 67.9333 422.68 67.8C422.68 67.6933 422.64 67.5867 422.56 67.48C421.6 66.36 420.773 65.5867 420.08 65.16C419.413 64.7333 418.867 64.52 418.44 64.52C418.067 64.52 417.787 64.64 417.6 64.88C417.413 65.12 417.32 65.3867 417.32 65.68C417.32 65.76 417.32 65.84 417.32 65.92C417.347 66 417.373 66.08 417.4 66.16C417.667 66.8267 418.267 67.32 419.2 67.64C420.133 67.9333 421.2 68.0533 422.4 68Z" fill="#EDEDED"/>
<path d="M124.131 49.7938L121.263 56.375L114.681 59.2438L121.263 62.1125L124.131 68.6937L127 62.1125L133.581 59.2438L127 56.375L124.131 49.7938ZM146.575 48.7812L144.466 53.3375L139.909 55.4469L144.466 57.5563L146.575 62.1125L148.684 57.5563L153.241 55.4469L148.684 53.3375L146.575 48.7812ZM105.062 26L111.306 38.825H122.275L116.031 26H123.541L129.784 38.825H140.753L134.509 26H142.019L148.262 38.825H159.231L152.988 26H162.438C163.787 26 164.969 26.5062 165.981 27.5187C166.994 28.5312 167.5 29.7125 167.5 31.0625V74.9375C167.5 76.2875 166.994 77.4687 165.981 78.4812C164.969 79.4937 163.787 80 162.438 80H105.062C103.713 80 102.531 79.4937 101.519 78.4812C100.506 77.4687 100 76.2875 100 74.9375V31.0625C100 29.7125 100.506 28.5312 101.519 27.5187C102.531 26.5062 103.713 26 105.062 26Z" fill="white"/>
</svg>
