<svg width="530" height="106" viewBox="0 0 530 106" fill="none" xmlns="http://www.w3.org/2000/svg">
<rect width="530" height="106" rx="53" fill="#535DB5"/>
<path d="M192.968 53.272C192.84 53.0373 192.776 52.8027 192.776 52.568C192.776 52.184 192.915 51.8533 193.192 51.576C194.152 50.616 194.845 49.464 195.272 48.12C195.699 46.7547 195.965 45.2293 196.072 43.544C196.115 43.0533 196.307 42.6373 196.648 42.296C196.989 41.9333 197.405 41.752 197.896 41.752H201.992C202.483 41.752 202.899 41.9227 203.24 42.264C203.581 42.6053 203.752 43.0213 203.752 43.512V50.008C203.752 50.2213 203.848 50.3493 204.04 50.392C204.253 50.4347 204.531 50.456 204.872 50.456H205.608C205.928 50.456 206.195 50.5733 206.408 50.808C206.643 51.0213 206.76 51.2773 206.76 51.576C206.76 51.896 206.643 52.1733 206.408 52.408C206.195 52.6213 205.928 52.728 205.608 52.728H204.072C203.453 52.728 202.856 52.5253 202.28 52.12C201.704 51.7147 201.416 51.0533 201.416 50.136V44.216C201.416 44.088 201.352 44.024 201.224 44.024H198.536C198.408 44.024 198.344 44.088 198.344 44.216C198.195 46.4347 197.789 48.312 197.128 49.848C196.467 51.3627 195.581 52.5893 194.472 53.528C194.301 53.6773 194.088 53.752 193.832 53.752C193.448 53.752 193.16 53.592 192.968 53.272ZM191.72 49.656H183.144C183.016 49.656 182.952 49.72 182.952 49.848C182.952 50.8933 182.931 52.1307 182.888 53.56C182.845 54.968 182.771 56.472 182.664 58.072C182.557 59.6507 182.419 61.2187 182.248 62.776C182.077 64.312 181.843 65.72 181.544 67C181.48 67.2773 181.32 67.5013 181.064 67.672C180.829 67.8427 180.563 67.928 180.264 67.928C179.965 67.928 179.709 67.8213 179.496 67.608C179.304 67.3947 179.208 67.1493 179.208 66.872C179.208 66.744 179.219 66.648 179.24 66.584C179.731 64.5573 180.093 62.0827 180.328 59.16C180.563 56.2373 180.68 52.7813 180.68 48.792V43.864C180.68 43.3307 180.861 42.8827 181.224 42.52C181.608 42.136 182.067 41.944 182.6 41.944H191.72C192.275 41.944 192.733 42.136 193.096 42.52C193.459 42.8827 193.64 43.3307 193.64 43.864V47.736C193.64 48.2693 193.459 48.728 193.096 49.112C192.733 49.4747 192.275 49.656 191.72 49.656ZM191.4 44.344C191.4 44.216 191.336 44.152 191.208 44.152H183.144C183.016 44.152 182.952 44.216 182.952 44.344V47.288C182.952 47.416 183.016 47.48 183.144 47.48H191.208C191.336 47.48 191.4 47.416 191.4 47.288V44.344ZM183.752 60.152H184.936C185.064 60.152 185.128 60.088 185.128 59.96V56.312C185.128 56.184 185.064 56.12 184.936 56.12H184.168C183.891 56.12 183.645 56.0133 183.432 55.8C183.219 55.5867 183.112 55.3413 183.112 55.064C183.112 54.7653 183.219 54.52 183.432 54.328C183.645 54.1147 183.891 54.008 184.168 54.008H184.936C185.064 54.008 185.128 53.944 185.128 53.816V51.192C185.128 50.8933 185.235 50.6373 185.448 50.424C185.683 50.2107 185.949 50.104 186.248 50.104C186.547 50.104 186.803 50.2107 187.016 50.424C187.229 50.6373 187.336 50.8933 187.336 51.192V53.816C187.336 53.944 187.4 54.008 187.528 54.008H189C189.128 54.008 189.192 53.944 189.192 53.816V51.192C189.192 50.8933 189.299 50.6373 189.512 50.424C189.747 50.2107 190.013 50.104 190.312 50.104C190.611 50.104 190.867 50.2107 191.08 50.424C191.293 50.6373 191.4 50.8933 191.4 51.192V53.816C191.4 53.944 191.464 54.008 191.592 54.008H192.104C192.403 54.008 192.648 54.1147 192.84 54.328C193.053 54.52 193.16 54.7653 193.16 55.064C193.16 55.3413 193.053 55.5867 192.84 55.8C192.648 56.0133 192.403 56.12 192.104 56.12H191.592C191.464 56.12 191.4 56.184 191.4 56.312V59.96C191.4 60.088 191.464 60.152 191.592 60.152H192.84C193.139 60.152 193.384 60.2587 193.576 60.472C193.789 60.664 193.896 60.9093 193.896 61.208C193.896 61.4853 193.789 61.7307 193.576 61.944C193.384 62.1573 193.139 62.264 192.84 62.264H183.752C183.475 62.264 183.229 62.1573 183.016 61.944C182.803 61.7307 182.696 61.4853 182.696 61.208C182.696 60.9093 182.803 60.664 183.016 60.472C183.229 60.2587 183.475 60.152 183.752 60.152ZM206.152 66.36C206.749 66.616 207.048 67.0427 207.048 67.64C207.048 67.96 206.941 68.2267 206.728 68.44C206.515 68.6533 206.269 68.76 205.992 68.76C205.907 68.76 205.8 68.7387 205.672 68.696C204.627 68.3333 203.613 67.8107 202.632 67.128C201.651 66.4453 200.723 65.6667 199.848 64.792C199.763 64.7067 199.677 64.7067 199.592 64.792C198.675 65.6027 197.672 66.3387 196.584 67C195.496 67.6827 194.323 68.2587 193.064 68.728C192.936 68.7707 192.829 68.792 192.744 68.792C192.467 68.792 192.211 68.6747 191.976 68.44C191.763 68.2267 191.656 67.9707 191.656 67.672C191.656 67.096 191.923 66.7013 192.456 66.488C193.651 66.04 194.707 65.528 195.624 64.952C196.563 64.376 197.395 63.768 198.12 63.128C198.227 63.0213 198.227 62.9253 198.12 62.84C197.011 61.3893 196.125 59.864 195.464 58.264C195.443 58.2 195.421 58.136 195.4 58.072C195.4 58.008 195.4 57.944 195.4 57.88C195.4 57.6027 195.507 57.3467 195.72 57.112C195.933 56.8773 196.211 56.76 196.552 56.76C197.085 56.76 197.459 57.016 197.672 57.528C197.971 58.232 198.291 58.8827 198.632 59.48C198.995 60.0773 199.357 60.6427 199.72 61.176C199.805 61.3253 199.891 61.336 199.976 61.208C200.637 60.3973 201.181 59.5973 201.608 58.808C202.056 58.0187 202.419 57.272 202.696 56.568C202.781 56.4187 202.739 56.344 202.568 56.344H195.016C194.717 56.344 194.451 56.2373 194.216 56.024C194.003 55.8107 193.896 55.544 193.896 55.224C193.896 54.904 194.003 54.6373 194.216 54.424C194.451 54.2107 194.717 54.104 195.016 54.104H203.88C204.307 54.104 204.669 54.2427 204.968 54.52C205.267 54.7973 205.416 55.1387 205.416 55.544C205.416 55.6507 205.395 55.7893 205.352 55.96C204.989 57.112 204.477 58.296 203.816 59.512C203.155 60.7067 202.355 61.848 201.416 62.936C201.331 63.0213 201.341 63.1173 201.448 63.224C202.173 63.928 202.931 64.536 203.72 65.048C204.531 65.56 205.341 65.9973 206.152 66.36ZM189.192 56.312C189.192 56.184 189.128 56.12 189 56.12H187.528C187.4 56.12 187.336 56.184 187.336 56.312V59.96C187.336 60.088 187.4 60.152 187.528 60.152H189C189.128 60.152 189.192 60.088 189.192 59.96V56.312ZM193 65.624C192.787 66.0507 192.467 66.264 192.04 66.264C191.869 66.264 191.709 66.2213 191.56 66.136C191.197 65.9013 190.813 65.6133 190.408 65.272C190.024 64.9307 189.661 64.536 189.32 64.088C189.213 63.96 189.16 63.7893 189.16 63.576C189.16 63.1493 189.341 62.84 189.704 62.648C189.917 62.5413 190.12 62.488 190.312 62.488C190.717 62.488 191.048 62.6373 191.304 62.936C191.731 63.3627 192.136 63.736 192.52 64.056C192.904 64.376 193.096 64.7493 193.096 65.176C193.096 65.304 193.064 65.4533 193 65.624ZM187.144 62.744C187.549 62.936 187.752 63.2453 187.752 63.672C187.752 63.8427 187.709 64.0027 187.624 64.152C187.261 64.8133 186.749 65.528 186.088 66.296C185.427 67.0427 184.712 67.6933 183.944 68.248C183.752 68.376 183.549 68.44 183.336 68.44C182.952 68.44 182.643 68.2693 182.408 67.928C182.344 67.8213 182.301 67.7147 182.28 67.608C182.259 67.5013 182.248 67.4053 182.248 67.32C182.248 66.9147 182.408 66.584 182.728 66.328C183.347 65.8587 183.901 65.3467 184.392 64.792C184.904 64.216 185.331 63.672 185.672 63.16C185.928 62.7973 186.259 62.616 186.664 62.616C186.835 62.616 186.995 62.6587 187.144 62.744ZM213.64 52.984C213.299 52.984 213.011 52.8667 212.776 52.632C212.541 52.3973 212.424 52.1093 212.424 51.768V47.512C212.424 46.9787 212.605 46.5307 212.968 46.168C213.352 45.784 213.811 45.592 214.344 45.592H218.28C218.451 45.592 218.493 45.5173 218.408 45.368C218.216 45.0053 217.992 44.6427 217.736 44.28C217.501 43.896 217.256 43.5333 217 43.192C216.851 43.0213 216.776 42.7973 216.776 42.52C216.776 42.0933 216.957 41.784 217.32 41.592C217.576 41.4853 217.8 41.432 217.992 41.432C218.227 41.432 218.451 41.4853 218.664 41.592C218.899 41.6987 219.08 41.8693 219.208 42.104C219.933 43.2347 220.531 44.344 221 45.432C221.021 45.5387 221.096 45.592 221.224 45.592H223.592C223.72 45.592 223.784 45.528 223.784 45.4V42.328C223.784 41.9867 223.901 41.6987 224.136 41.464C224.371 41.2293 224.659 41.112 225 41.112C225.341 41.112 225.629 41.2293 225.864 41.464C226.099 41.6987 226.216 41.9867 226.216 42.328V45.4C226.216 45.528 226.28 45.592 226.408 45.592H228.424C228.509 45.592 228.584 45.56 228.648 45.496C229.523 44.5147 230.312 43.3627 231.016 42.04C231.251 41.5707 231.624 41.336 232.136 41.336C232.499 41.336 232.776 41.4427 232.968 41.656C233.181 41.848 233.288 42.0827 233.288 42.36C233.288 42.4453 233.277 42.5307 233.256 42.616C233.235 42.68 233.203 42.7547 233.16 42.84C232.947 43.2667 232.723 43.6933 232.488 44.12C232.253 44.5467 231.987 44.9627 231.688 45.368C231.581 45.5173 231.624 45.592 231.816 45.592H235.656C236.189 45.592 236.637 45.784 237 46.168C237.384 46.5307 237.576 46.9787 237.576 47.512V51.768C237.576 52.1093 237.459 52.3973 237.224 52.632C236.989 52.8667 236.701 52.984 236.36 52.984C236.019 52.984 235.731 52.8667 235.496 52.632C235.261 52.3973 235.144 52.1093 235.144 51.768V48.12C235.144 47.992 235.08 47.928 234.952 47.928H215.048C214.92 47.928 214.856 47.992 214.856 48.12V51.768C214.856 52.1093 214.739 52.3973 214.504 52.632C214.269 52.8667 213.981 52.984 213.64 52.984ZM226.216 65.816C226.216 65.944 226.28 66.008 226.408 66.008H236.744C237.064 66.008 237.341 66.1253 237.576 66.36C237.811 66.5733 237.928 66.8507 237.928 67.192C237.928 67.512 237.811 67.7787 237.576 67.992C237.341 68.2267 237.064 68.344 236.744 68.344H213.256C212.936 68.344 212.659 68.2267 212.424 67.992C212.211 67.7787 212.104 67.512 212.104 67.192C212.104 66.8507 212.211 66.5733 212.424 66.36C212.659 66.1253 212.936 66.008 213.256 66.008H223.592C223.72 66.008 223.784 65.944 223.784 65.816V62.904C223.784 62.776 223.72 62.712 223.592 62.712H216.552C216.232 62.712 215.955 62.6053 215.72 62.392C215.507 62.1573 215.4 61.88 215.4 61.56C215.4 61.2187 215.507 60.9413 215.72 60.728C215.955 60.4933 216.232 60.376 216.552 60.376H223.592C223.72 60.376 223.784 60.312 223.784 60.184V58.04C223.784 57.912 223.72 57.848 223.592 57.848H219.368C218.835 57.848 218.376 57.6667 217.992 57.304C217.629 56.92 217.448 56.4613 217.448 55.928V52.056C217.448 51.5227 217.629 51.0747 217.992 50.712C218.376 50.328 218.835 50.136 219.368 50.136H230.632C231.165 50.136 231.613 50.328 231.976 50.712C232.36 51.0747 232.552 51.5227 232.552 52.056V55.928C232.552 56.4613 232.36 56.92 231.976 57.304C231.613 57.6667 231.165 57.848 230.632 57.848H226.408C226.28 57.848 226.216 57.912 226.216 58.04V60.184C226.216 60.312 226.28 60.376 226.408 60.376H233.448C233.768 60.376 234.045 60.4933 234.28 60.728C234.515 60.9413 234.632 61.2187 234.632 61.56C234.632 61.88 234.515 62.1573 234.28 62.392C234.045 62.6053 233.768 62.712 233.448 62.712H226.408C226.28 62.712 226.216 62.776 226.216 62.904V65.816ZM230.152 52.6C230.152 52.472 230.088 52.408 229.96 52.408H220.04C219.912 52.408 219.848 52.472 219.848 52.6V55.384C219.848 55.512 219.912 55.576 220.04 55.576H229.96C230.088 55.576 230.152 55.512 230.152 55.384V52.6ZM270.088 66.36C270.621 66.68 270.888 67.1173 270.888 67.672C270.888 67.992 270.781 68.2587 270.568 68.472C270.376 68.6853 270.141 68.792 269.864 68.792C269.715 68.792 269.576 68.76 269.448 68.696C268.232 68.12 267.027 67.3093 265.832 66.264C264.659 65.1973 263.539 63.96 262.472 62.552C261.427 61.144 260.477 59.6187 259.624 57.976C258.771 56.3333 258.067 54.648 257.512 52.92C257.491 52.8133 257.448 52.76 257.384 52.76C257.341 52.76 257.299 52.8133 257.256 52.92C256.509 55.3093 255.475 57.5493 254.152 59.64C252.829 61.7307 251.336 63.5547 249.672 65.112C248.008 66.648 246.291 67.8107 244.52 68.6C244.392 68.664 244.264 68.696 244.136 68.696C243.859 68.696 243.603 68.5787 243.368 68.344C243.155 68.1307 243.048 67.8533 243.048 67.512C243.048 66.9787 243.304 66.5627 243.816 66.264C245.352 65.4107 246.835 64.3227 248.264 63C249.715 61.656 251.027 60.088 252.2 58.296C253.373 56.504 254.312 54.4987 255.016 52.28C255.72 50.04 256.104 47.608 256.168 44.984V44.856C256.168 44.728 256.104 44.664 255.976 44.664H250.632C250.291 44.664 250.003 44.5573 249.768 44.344C249.555 44.1093 249.448 43.8213 249.448 43.48C249.448 43.1387 249.555 42.8507 249.768 42.616C250.003 42.3813 250.291 42.264 250.632 42.264H256.68C257.213 42.264 257.661 42.456 258.024 42.84C258.408 43.2027 258.6 43.6507 258.6 44.184V45.88C258.664 47.5653 258.931 49.2507 259.4 50.936C259.869 52.6213 260.488 54.264 261.256 55.864C262.024 57.4427 262.888 58.9147 263.848 60.28C264.808 61.6453 265.821 62.8507 266.888 63.896C267.955 64.92 269.021 65.7413 270.088 66.36ZM285.48 67.704C285.416 67.7253 285.331 67.736 285.224 67.736C284.925 67.736 284.659 67.6187 284.424 67.384C284.189 67.1707 284.072 66.8933 284.072 66.552C284.072 66.232 284.168 65.9547 284.36 65.72C284.552 65.4853 284.797 65.3253 285.096 65.24C287.912 64.4933 290.12 63.032 291.72 60.856C293.32 58.6587 294.12 55.9493 294.12 52.728C294.12 51.384 293.96 49.9547 293.64 48.44C293.341 46.9253 292.883 45.3573 292.264 43.736C292.2 43.608 292.168 43.4693 292.168 43.32C292.168 43.0213 292.285 42.7547 292.52 42.52C292.755 42.2853 293.043 42.168 293.384 42.168C293.96 42.168 294.365 42.4347 294.6 42.968C295.219 44.504 295.699 46.0933 296.04 47.736C296.381 49.3787 296.552 51.0107 296.552 52.632C296.552 54.872 296.179 57.016 295.432 59.064C294.707 61.0907 293.533 62.8613 291.912 64.376C290.291 65.8907 288.147 67 285.48 67.704ZM285.384 58.808C285.299 58.872 285.203 58.9147 285.096 58.936C284.989 58.9573 284.883 58.968 284.776 58.968C284.307 58.968 283.976 58.7653 283.784 58.36C283.187 57.0587 282.781 55.7573 282.568 54.456C282.355 53.1333 282.248 51.8747 282.248 50.68C282.248 49.5493 282.301 48.504 282.408 47.544C282.515 46.5627 282.589 45.7413 282.632 45.08C282.653 44.76 282.771 44.4827 282.984 44.248C283.219 44.0133 283.496 43.896 283.816 43.896C284.157 43.896 284.456 44.0133 284.712 44.248C284.968 44.4613 285.075 44.7387 285.032 45.08C284.989 45.8267 284.893 46.7013 284.744 47.704C284.616 48.6853 284.552 49.752 284.552 50.904C284.552 51.864 284.637 52.8773 284.808 53.944C285 54.9893 285.341 56.056 285.832 57.144C285.917 57.3147 285.96 57.5067 285.96 57.72C285.96 58.2107 285.768 58.5733 285.384 58.808ZM328.872 47.704C328.872 47.832 328.936 47.896 329.064 47.896H332.104C332.637 47.896 333.085 48.0773 333.448 48.44C333.832 48.8027 334.024 49.2613 334.024 49.816C334.024 51.1813 334.013 52.5467 333.992 53.912C333.971 55.2773 333.939 56.5573 333.896 57.752C333.875 58.9467 333.843 59.992 333.8 60.888C333.779 61.7627 333.747 62.4133 333.704 62.84C333.619 64.184 333.405 65.2827 333.064 66.136C332.723 66.9893 332.189 67.6187 331.464 68.024C330.739 68.4293 329.736 68.6427 328.456 68.664C328.115 68.664 327.827 68.536 327.592 68.28C327.357 68.0453 327.229 67.7573 327.208 67.416C327.208 67.096 327.325 66.8187 327.56 66.584C327.795 66.3493 328.072 66.232 328.392 66.232C329.224 66.232 329.832 66.136 330.216 65.944C330.6 65.7307 330.856 65.368 330.984 64.856C331.112 64.3227 331.219 63.576 331.304 62.616C331.347 62.1467 331.389 61.304 331.432 60.088C331.475 58.872 331.507 57.4213 331.528 55.736C331.571 54.0507 331.603 52.2907 331.624 50.456C331.624 50.328 331.56 50.264 331.432 50.264H329.032C328.904 50.264 328.84 50.328 328.84 50.456C328.712 53.656 328.307 56.4507 327.624 58.84C326.963 61.2293 326.152 63.224 325.192 64.824C324.232 66.424 323.261 67.6507 322.28 68.504C322.109 68.6533 321.885 68.728 321.608 68.728C321.203 68.728 320.883 68.5573 320.648 68.216C320.499 68.0027 320.424 67.7573 320.424 67.48C320.424 67.0533 320.584 66.712 320.904 66.456C321.928 65.5173 322.781 64.4187 323.464 63.16C324.168 61.9013 324.723 60.5573 325.128 59.128C325.555 57.6987 325.864 56.248 326.056 54.776C326.269 53.2827 326.408 51.8427 326.472 50.456C326.472 50.328 326.408 50.264 326.28 50.264H323.688C323.368 50.264 323.091 50.1467 322.856 49.912C322.621 49.6773 322.504 49.4 322.504 49.08C322.504 48.7387 322.621 48.4613 322.856 48.248C323.091 48.0133 323.368 47.896 323.688 47.896H326.312C326.44 47.896 326.504 47.832 326.504 47.704V42.232C326.504 41.912 326.611 41.6347 326.824 41.4C327.059 41.1653 327.347 41.048 327.688 41.048C328.008 41.048 328.285 41.1653 328.52 41.4C328.755 41.6347 328.872 41.912 328.872 42.232V47.704ZM321.48 64.792C321.48 65.048 321.405 65.2827 321.256 65.496C321.107 65.7093 320.904 65.848 320.648 65.912C319.56 66.2107 318.333 66.488 316.968 66.744C315.603 67 314.195 67.224 312.744 67.416C311.293 67.608 309.896 67.768 308.552 67.896C308.253 67.9173 307.987 67.8213 307.752 67.608C307.539 67.3947 307.432 67.1387 307.432 66.84C307.432 66.5413 307.528 66.296 307.72 66.104C307.933 65.8907 308.179 65.7733 308.456 65.752C309.203 65.7093 310.035 65.6347 310.952 65.528C311.869 65.4213 312.819 65.2933 313.8 65.144C313.928 65.1013 313.992 65.0267 313.992 64.92V62.904C313.992 62.776 313.928 62.712 313.8 62.712H309.704C309.405 62.712 309.149 62.6053 308.936 62.392C308.723 62.1787 308.616 61.9333 308.616 61.656C308.616 61.3573 308.723 61.112 308.936 60.92C309.149 60.7067 309.405 60.6 309.704 60.6H313.8C313.928 60.6 313.992 60.536 313.992 60.408V59.32C313.992 59.192 313.928 59.128 313.8 59.128H310.664C310.131 59.128 309.672 58.9467 309.288 58.584C308.925 58.2 308.744 57.7413 308.744 57.208V51.768C308.744 51.2347 308.925 50.7867 309.288 50.424C309.672 50.04 310.131 49.848 310.664 49.848H313.8C313.928 49.848 313.992 49.784 313.992 49.656V48.792C313.992 48.664 313.928 48.6 313.8 48.6H308.552C308.253 48.6 307.997 48.4933 307.784 48.28C307.571 48.0667 307.464 47.8107 307.464 47.512C307.464 47.2133 307.571 46.9573 307.784 46.744C307.997 46.5307 308.253 46.424 308.552 46.424H313.8C313.928 46.424 313.992 46.36 313.992 46.232V45.432C313.992 45.2827 313.928 45.2293 313.8 45.272C313.181 45.3573 312.563 45.432 311.944 45.496C311.325 45.56 310.717 45.6133 310.12 45.656C309.779 45.6773 309.48 45.5707 309.224 45.336C308.989 45.1013 308.872 44.8133 308.872 44.472C308.872 44.1947 308.968 43.96 309.16 43.768C309.352 43.5547 309.597 43.4373 309.896 43.416C311.496 43.3093 313.117 43.1173 314.76 42.84C316.424 42.5413 318.056 42.1893 319.656 41.784C319.976 41.6987 320.285 41.7627 320.584 41.976C320.883 42.1893 321.032 42.4773 321.032 42.84C321.032 43.096 320.947 43.3413 320.776 43.576C320.627 43.7893 320.424 43.928 320.168 43.992C319.549 44.1627 318.92 44.3227 318.28 44.472C317.64 44.6 316.989 44.728 316.328 44.856C316.221 44.8987 316.168 44.9627 316.168 45.048V46.232C316.168 46.36 316.232 46.424 316.36 46.424H321.416C321.715 46.424 321.971 46.5307 322.184 46.744C322.397 46.9573 322.504 47.2133 322.504 47.512C322.504 47.8107 322.397 48.0667 322.184 48.28C321.971 48.4933 321.715 48.6 321.416 48.6H316.36C316.232 48.6 316.168 48.664 316.168 48.792V49.656C316.168 49.784 316.232 49.848 316.36 49.848H319.72C320.253 49.848 320.701 50.04 321.064 50.424C321.448 50.7867 321.64 51.2347 321.64 51.768V57.208C321.64 57.7413 321.448 58.2 321.064 58.584C320.701 58.9467 320.253 59.128 319.72 59.128H316.36C316.232 59.128 316.168 59.192 316.168 59.32V60.408C316.168 60.536 316.232 60.6 316.36 60.6H320.264C320.563 60.6 320.808 60.7067 321 60.92C321.213 61.112 321.32 61.3573 321.32 61.656C321.32 61.9333 321.213 62.1787 321 62.392C320.808 62.6053 320.563 62.712 320.264 62.712H316.36C316.232 62.712 316.168 62.776 316.168 62.904V64.504C316.168 64.6533 316.243 64.7173 316.392 64.696C317.757 64.3973 318.995 64.088 320.104 63.768C320.168 63.7467 320.221 63.736 320.264 63.736C320.328 63.7147 320.392 63.704 320.456 63.704C320.733 63.704 320.968 63.8 321.16 63.992C321.373 64.184 321.48 64.4507 321.48 64.792ZM313.8 53.4C313.928 53.4 313.992 53.336 313.992 53.208V52.152C313.992 52.024 313.928 51.96 313.8 51.96H311.176C311.048 51.96 310.984 52.024 310.984 52.152V53.208C310.984 53.336 311.048 53.4 311.176 53.4H313.8ZM319.176 53.4C319.304 53.4 319.368 53.336 319.368 53.208V52.152C319.368 52.024 319.304 51.96 319.176 51.96H316.36C316.232 51.96 316.168 52.024 316.168 52.152V53.208C316.168 53.336 316.232 53.4 316.36 53.4H319.176ZM311.176 55.544C311.048 55.544 310.984 55.608 310.984 55.736V56.792C310.984 56.92 311.048 56.984 311.176 56.984H313.8C313.928 56.984 313.992 56.92 313.992 56.792V55.736C313.992 55.608 313.928 55.544 313.8 55.544H311.176ZM316.36 55.544C316.232 55.544 316.168 55.608 316.168 55.736V56.792C316.168 56.92 316.232 56.984 316.36 56.984H319.176C319.304 56.984 319.368 56.92 319.368 56.792V55.736C319.368 55.608 319.304 55.544 319.176 55.544H316.36ZM341.096 42.232H364.904C365.224 42.232 365.491 42.3493 365.704 42.584C365.939 42.7973 366.056 43.064 366.056 43.384C366.056 43.704 365.939 43.9813 365.704 44.216C365.491 44.4293 365.224 44.536 364.904 44.536H354.344C354.216 44.536 354.152 44.6 354.152 44.728V48.088C354.152 48.216 354.216 48.28 354.344 48.28H358.28C358.813 48.28 359.261 48.472 359.624 48.856C360.008 49.2187 360.2 49.6667 360.2 50.2V61.112C360.2 61.6453 360.008 62.104 359.624 62.488C359.261 62.8507 358.813 63.032 358.28 63.032H347.72C347.187 63.032 346.728 62.8507 346.344 62.488C345.981 62.104 345.8 61.6453 345.8 61.112V50.2C345.8 49.6667 345.981 49.2187 346.344 48.856C346.728 48.472 347.187 48.28 347.72 48.28H351.656C351.784 48.28 351.848 48.216 351.848 48.088V44.728C351.848 44.6 351.784 44.536 351.656 44.536H341.096C340.776 44.536 340.499 44.4293 340.264 44.216C340.051 43.9813 339.944 43.704 339.944 43.384C339.944 43.064 340.051 42.7973 340.264 42.584C340.499 42.3493 340.776 42.232 341.096 42.232ZM364.328 47.832C364.648 47.832 364.925 47.9493 365.16 48.184C365.395 48.3973 365.512 48.6747 365.512 49.016V66.68C365.512 67.2133 365.32 67.6613 364.936 68.024C364.573 68.408 364.125 68.6 363.592 68.6H342.408C341.875 68.6 341.416 68.408 341.032 68.024C340.669 67.6613 340.488 67.2133 340.488 66.68V49.016C340.488 48.6747 340.605 48.3973 340.84 48.184C341.075 47.9493 341.352 47.832 341.672 47.832C341.992 47.832 342.269 47.9493 342.504 48.184C342.739 48.3973 342.856 48.6747 342.856 49.016V66.136C342.856 66.264 342.92 66.328 343.048 66.328H362.952C363.08 66.328 363.144 66.264 363.144 66.136V49.016C363.144 48.6747 363.261 48.3973 363.496 48.184C363.731 47.9493 364.008 47.832 364.328 47.832ZM351.656 54.328C351.784 54.328 351.848 54.264 351.848 54.136V50.648C351.848 50.52 351.784 50.456 351.656 50.456H348.264C348.136 50.456 348.072 50.52 348.072 50.648V54.136C348.072 54.264 348.136 54.328 348.264 54.328H351.656ZM357.736 54.328C357.864 54.328 357.928 54.264 357.928 54.136V50.648C357.928 50.52 357.864 50.456 357.736 50.456H354.344C354.216 50.456 354.152 50.52 354.152 50.648V54.136C354.152 54.264 354.216 54.328 354.344 54.328H357.736ZM351.848 56.696C351.848 56.568 351.784 56.504 351.656 56.504H348.264C348.136 56.504 348.072 56.568 348.072 56.696V60.664C348.072 60.792 348.136 60.856 348.264 60.856H351.656C351.784 60.856 351.848 60.792 351.848 60.664V56.696ZM354.344 56.504C354.216 56.504 354.152 56.568 354.152 56.696V60.664C354.152 60.792 354.216 60.856 354.344 60.856H357.736C357.864 60.856 357.928 60.792 357.928 60.664V56.696C357.928 56.568 357.864 56.504 357.736 56.504H354.344ZM392.872 64.312C393.256 64.2693 393.587 64.376 393.864 64.632C394.163 64.888 394.312 65.208 394.312 65.592C394.312 65.9333 394.195 66.232 393.96 66.488C393.747 66.744 393.459 66.8933 393.096 66.936C392.243 67.0213 391.016 67.1067 389.416 67.192C387.837 67.2987 386.035 67.352 384.008 67.352C382.365 67.352 381.021 67.128 379.976 66.68C378.952 66.2107 378.269 65.464 377.928 64.44C377.779 63.992 377.704 63.5333 377.704 63.064C377.704 61.9547 378.227 60.8347 379.272 59.704C380.339 58.5733 382.163 57.3253 384.744 55.96C384.979 55.8747 385.021 55.7467 384.872 55.576C384.403 54.8933 383.688 54.552 382.728 54.552C382.152 54.552 381.523 54.6693 380.84 54.904C380.157 55.1173 379.443 55.416 378.696 55.8C378.611 55.8427 378.515 55.9173 378.408 56.024C378.323 56.088 378.237 56.1627 378.152 56.248C378.067 56.312 377.971 56.376 377.864 56.44C377.693 56.5893 377.469 56.664 377.192 56.664C376.765 56.664 376.435 56.472 376.2 56.088C376.072 55.8533 376.008 55.6293 376.008 55.416C376.008 54.9893 376.179 54.6373 376.52 54.36C377.203 53.8267 377.832 53.2187 378.408 52.536C378.984 51.8533 379.507 51.0747 379.976 50.2C380.019 50.1147 380.04 50.0613 380.04 50.04C380.04 49.8907 379.944 49.8373 379.752 49.88C379.091 49.9653 378.461 50.04 377.864 50.104C377.267 50.1467 376.712 50.1893 376.2 50.232C375.859 50.2533 375.571 50.1467 375.336 49.912C375.101 49.6773 374.984 49.3893 374.984 49.048C374.984 48.7067 375.101 48.4187 375.336 48.184C375.571 47.9493 375.859 47.8213 376.2 47.8C377.8 47.736 379.443 47.576 381.128 47.32C381.277 47.2987 381.384 47.2133 381.448 47.064C381.64 46.5093 381.832 45.9333 382.024 45.336C382.216 44.7387 382.387 44.1093 382.536 43.448C382.6 43.1707 382.749 42.9467 382.984 42.776C383.219 42.6053 383.475 42.52 383.752 42.52C384.115 42.52 384.403 42.648 384.616 42.904C384.851 43.1387 384.968 43.416 384.968 43.736C384.968 43.864 384.957 43.96 384.936 44.024C384.829 44.4293 384.712 44.824 384.584 45.208C384.477 45.592 384.36 45.9653 384.232 46.328C384.232 46.3493 384.221 46.3707 384.2 46.392C384.2 46.4133 384.2 46.4347 384.2 46.456C384.2 46.6267 384.307 46.68 384.52 46.616C385.117 46.4453 385.704 46.264 386.28 46.072C386.877 45.8587 387.443 45.6453 387.976 45.432C388.147 45.368 388.296 45.336 388.424 45.336C388.659 45.336 388.872 45.4 389.064 45.528C389.277 45.6347 389.427 45.8053 389.512 46.04C389.555 46.1253 389.576 46.2107 389.576 46.296C389.576 46.36 389.576 46.424 389.576 46.488C389.576 47.064 389.331 47.448 388.84 47.64C388.029 47.9813 387.144 48.2907 386.184 48.568C385.245 48.8453 384.285 49.0907 383.304 49.304C383.155 49.3253 383.048 49.4 382.984 49.528C382.771 49.9973 382.557 50.4453 382.344 50.872C382.131 51.2987 381.907 51.7147 381.672 52.12C381.629 52.2053 381.608 52.2587 381.608 52.28C381.608 52.3867 381.704 52.4293 381.896 52.408C382.131 52.3653 382.344 52.3333 382.536 52.312C382.749 52.2907 382.952 52.28 383.144 52.28C384.125 52.28 384.936 52.4933 385.576 52.92C386.216 53.3253 386.717 53.8373 387.08 54.456C387.187 54.6267 387.315 54.6693 387.464 54.584C388.253 54.1787 389.075 53.72 389.928 53.208C390.781 52.696 391.677 52.1093 392.616 51.448C392.829 51.2987 393.064 51.224 393.32 51.224C393.747 51.224 394.077 51.4053 394.312 51.768C394.461 51.9813 394.536 52.216 394.536 52.472C394.536 52.92 394.355 53.2613 393.992 53.496C393.267 53.9653 392.605 54.3813 392.008 54.744C391.411 55.1067 390.803 55.448 390.184 55.768C389.565 56.088 388.861 56.44 388.072 56.824C387.923 56.9093 387.859 57.0373 387.88 57.208C388.029 58.168 388.136 59.5227 388.2 61.272C388.2 61.6133 388.083 61.9013 387.848 62.136C387.613 62.3707 387.325 62.488 386.984 62.488C386.643 62.488 386.355 62.3707 386.12 62.136C385.885 61.9013 385.757 61.6133 385.736 61.272C385.715 60.7173 385.693 60.216 385.672 59.768C385.651 59.2987 385.619 58.872 385.576 58.488C385.576 58.232 385.459 58.168 385.224 58.296C383.453 59.2347 382.173 60.0987 381.384 60.888C380.595 61.656 380.2 62.3707 380.2 63.032C380.2 63.224 380.232 63.416 380.296 63.608C380.488 64.0773 380.851 64.4293 381.384 64.664C381.917 64.8987 382.856 65.016 384.2 65.016C385.971 65.016 388.861 64.7813 392.872 64.312ZM430.216 64.824C430.536 65.08 430.696 65.3893 430.696 65.752C430.696 66.0293 430.6 66.264 430.408 66.456C429.875 67.032 429.331 67.4693 428.776 67.768C428.243 68.088 427.613 68.3013 426.888 68.408C426.163 68.536 425.256 68.6 424.168 68.6C422.909 68.6 421.843 68.504 420.968 68.312C420.093 68.1413 419.432 67.7893 418.984 67.256C418.536 66.7227 418.312 65.9333 418.312 64.888V60.504C418.312 60.376 418.248 60.312 418.12 60.312H415.848C415.763 60.312 415.699 60.3653 415.656 60.472C415.101 62.7333 413.917 64.5573 412.104 65.944C410.291 67.3093 407.816 68.2373 404.68 68.728C404.339 68.7707 404.029 68.6747 403.752 68.44C403.475 68.2053 403.336 67.9067 403.336 67.544C403.336 67.2453 403.432 66.9787 403.624 66.744C403.837 66.488 404.104 66.3387 404.424 66.296C405.747 66.104 406.995 65.784 408.168 65.336C409.363 64.8667 410.397 64.248 411.272 63.48C412.147 62.6907 412.787 61.7093 413.192 60.536C413.235 60.3867 413.181 60.312 413.032 60.312H410.056C409.523 60.312 409.064 60.1307 408.68 59.768C408.317 59.384 408.136 58.9253 408.136 58.392V43.8C408.136 43.2667 408.317 42.8187 408.68 42.456C409.064 42.072 409.523 41.88 410.056 41.88H423.944C424.477 41.88 424.925 42.072 425.288 42.456C425.672 42.8187 425.864 43.2667 425.864 43.8V58.392C425.864 58.9253 425.672 59.384 425.288 59.768C424.925 60.1307 424.477 60.312 423.944 60.312H420.904C420.776 60.312 420.712 60.376 420.712 60.504V64.536C420.712 65.1333 420.819 65.56 421.032 65.816C421.245 66.0507 421.661 66.2 422.28 66.264C422.92 66.3067 423.859 66.328 425.096 66.328C425.885 66.328 426.515 66.264 426.984 66.136C427.453 65.9867 427.965 65.6133 428.52 65.016C428.776 64.7173 429.107 64.568 429.512 64.568C429.747 64.568 429.981 64.6533 430.216 64.824ZM423.24 47.256C423.368 47.256 423.432 47.192 423.432 47.064V44.44C423.432 44.312 423.368 44.248 423.24 44.248H410.76C410.632 44.248 410.568 44.312 410.568 44.44V47.064C410.568 47.192 410.632 47.256 410.76 47.256H423.24ZM410.568 52.44C410.568 52.568 410.632 52.632 410.76 52.632H423.24C423.368 52.632 423.432 52.568 423.432 52.44V49.784C423.432 49.656 423.368 49.592 423.24 49.592H410.76C410.632 49.592 410.568 49.656 410.568 49.784V52.44ZM423.432 55.16C423.432 55.032 423.368 54.968 423.24 54.968H410.76C410.632 54.968 410.568 55.032 410.568 55.16V57.784C410.568 57.912 410.632 57.976 410.76 57.976H423.24C423.368 57.976 423.432 57.912 423.432 57.784V55.16ZM448.552 67.64C447.187 67.64 446.099 67.448 445.288 67.064C444.499 66.68 443.933 66.1893 443.592 65.592C443.251 64.9947 443.08 64.3973 443.08 63.8C443.08 63.1387 443.229 62.5413 443.528 62.008C443.848 61.432 444.211 61.016 444.616 60.76C445.021 60.504 445.448 60.376 445.896 60.376C446.493 60.376 447.123 60.5787 447.784 60.984C448.445 61.368 449.117 61.8907 449.8 62.552C450.504 63.192 451.176 63.9067 451.816 64.696C451.901 64.824 452.029 64.8667 452.2 64.824C452.989 64.5253 453.725 64.1413 454.408 63.672C455.091 63.2027 455.667 62.6373 456.136 61.976C456.648 61.208 456.904 60.376 456.904 59.48C456.904 58.456 456.541 57.5173 455.816 56.664C455.112 55.8107 454.024 55.2987 452.552 55.128C452.339 55.0853 452.125 55.064 451.912 55.064C451.72 55.064 451.517 55.064 451.304 55.064C449.491 55.064 447.763 55.4907 446.12 56.344C444.499 57.1973 442.877 58.3493 441.256 59.8C441.021 60.0133 440.723 60.12 440.36 60.12C440.104 60.12 439.88 60.056 439.688 59.928C439.389 59.736 439.24 59.4587 439.24 59.096C439.24 58.904 439.293 58.7227 439.4 58.552C440.808 56.4613 442.269 54.4133 443.784 52.408C445.32 50.4027 446.867 48.5893 448.424 46.968C448.488 46.904 448.52 46.84 448.52 46.776C448.52 46.6907 448.435 46.6587 448.264 46.68C447.667 46.7653 446.963 46.84 446.152 46.904C445.363 46.968 444.552 47 443.72 47C443.443 47 443.176 47 442.92 47C442.664 47 442.408 46.9893 442.152 46.968C441.832 46.9467 441.565 46.8187 441.352 46.584C441.139 46.328 441.032 46.04 441.032 45.72C441.032 45.3787 441.16 45.0907 441.416 44.856C441.693 44.6213 442.003 44.5147 442.344 44.536C443.219 44.6 444.061 44.632 444.872 44.632C445.96 44.632 446.995 44.568 447.976 44.44C448.979 44.312 449.96 44.088 450.92 43.768C451.005 43.7253 451.08 43.704 451.144 43.704C451.229 43.704 451.315 43.704 451.4 43.704C451.635 43.704 451.859 43.768 452.072 43.896C452.307 44.024 452.467 44.2053 452.552 44.44C452.659 44.696 452.712 44.9307 452.712 45.144C452.712 45.6347 452.52 46.0507 452.136 46.392C450.664 47.6933 449.352 49.0053 448.2 50.328C447.048 51.6293 445.939 53.048 444.872 54.584C444.829 54.6693 444.808 54.7227 444.808 54.744C444.808 54.9147 444.925 54.9467 445.16 54.84C446.461 54.1573 447.699 53.6667 448.872 53.368C450.067 53.0693 451.176 52.92 452.2 52.92C453.971 52.92 455.453 53.3147 456.648 54.104C457.843 54.8933 458.643 55.9493 459.048 57.272C459.261 57.9333 459.368 58.6373 459.368 59.384C459.368 60.856 458.909 62.2213 457.992 63.48C457.096 64.7387 455.837 65.752 454.216 66.52C452.595 67.2667 450.707 67.64 448.552 67.64ZM449.32 65.4C449.469 65.4 449.544 65.3467 449.544 65.24C449.544 65.1547 449.512 65.0693 449.448 64.984C448.68 64.088 448.019 63.4693 447.464 63.128C446.931 62.7867 446.493 62.616 446.152 62.616C445.853 62.616 445.629 62.712 445.48 62.904C445.331 63.096 445.256 63.3093 445.256 63.544C445.256 63.608 445.256 63.672 445.256 63.736C445.277 63.8 445.299 63.864 445.32 63.928C445.533 64.4613 446.013 64.856 446.76 65.112C447.507 65.3467 448.36 65.4427 449.32 65.4Z" fill="#EDEDED"/>
<path d="M92 71L104 61.85L116 71L111.2 56.225L123.2 47.75H108.575L104 32.525L99.35 47.75H84.725L96.725 56.225L92 71ZM104 83C99.9 83 96.025 82.2125 92.375 80.6375C88.725 79.0625 85.5375 76.9125 82.8125 74.1875C80.0875 71.4625 77.9375 68.275 76.3625 64.625C74.7875 60.975 74 57.1 74 53C74 48.85 74.7875 44.95 76.3625 41.3C77.9375 37.65 80.0875 34.475 82.8125 31.775C85.5375 29.075 88.725 26.9375 92.375 25.3625C96.025 23.7875 99.9 23 104 23C108.15 23 112.05 23.7875 115.7 25.3625C119.35 26.9375 122.525 29.075 125.225 31.775C127.925 34.475 130.062 37.65 131.637 41.3C133.212 44.95 134 48.85 134 53C134 57.1 133.212 60.975 131.637 64.625C130.062 68.275 127.925 71.4625 125.225 74.1875C122.525 76.9125 119.35 79.0625 115.7 80.6375C112.05 82.2125 108.15 83 104 83Z" fill="white"/>
</svg>
