<svg width="530" height="106" viewBox="0 0 530 106" fill="none" xmlns="http://www.w3.org/2000/svg">
<rect width="530" height="106" rx="53" fill="#535DB5"/>
<path d="M235.744 56.248H212.256C211.915 56.248 211.627 56.1307 211.392 55.896C211.157 55.6613 211.04 55.3733 211.04 55.032C211.04 54.6907 211.157 54.4027 211.392 54.168C211.627 53.9333 211.915 53.816 212.256 53.816H235.744C236.085 53.816 236.373 53.9333 236.608 54.168C236.843 54.4027 236.96 54.6907 236.96 55.032C236.96 55.3733 236.843 55.6613 236.608 55.896C236.373 56.1307 236.085 56.248 235.744 56.248ZM254.528 54.52L254.08 54.68C253.973 54.7227 253.92 54.7973 253.92 54.904V65.656C253.92 66.7013 253.643 67.5013 253.088 68.056C252.555 68.632 251.531 68.8987 250.016 68.856C249.696 68.8347 249.429 68.7067 249.216 68.472C249.003 68.2373 248.896 67.96 248.896 67.64C248.896 67.32 249.003 67.0533 249.216 66.84C249.451 66.6053 249.739 66.4987 250.08 66.52C250.229 66.5413 250.357 66.552 250.464 66.552C250.592 66.552 250.699 66.552 250.784 66.552C251.189 66.552 251.435 66.488 251.52 66.36C251.605 66.232 251.648 65.9973 251.648 65.656V55.768C251.648 55.5973 251.573 55.5547 251.424 55.64C251.232 55.704 251.029 55.768 250.816 55.832C250.624 55.896 250.432 55.96 250.24 56.024C250.133 56.0667 250.08 56.1307 250.08 56.216V64.92C250.08 65.2187 249.973 65.4747 249.76 65.688C249.547 65.9013 249.291 66.008 248.992 66.008C248.693 66.008 248.437 65.9013 248.224 65.688C248.011 65.4747 247.904 65.2187 247.904 64.92V56.856C247.904 56.7067 247.829 56.6533 247.68 56.696L246.88 56.92C246.773 56.9627 246.72 57.0267 246.72 57.112C246.72 57.944 246.677 58.9467 246.592 60.12C246.507 61.2933 246.368 62.5413 246.176 63.864C245.984 65.1867 245.717 66.5093 245.376 67.832C245.291 68.1307 245.12 68.3653 244.864 68.536C244.629 68.728 244.352 68.824 244.032 68.824C243.755 68.824 243.509 68.728 243.296 68.536C243.104 68.344 243.008 68.12 243.008 67.864C243.008 67.7787 243.029 67.672 243.072 67.544C243.413 66.4987 243.68 65.3893 243.872 64.216C244.064 63.0427 244.203 61.8907 244.288 60.76C244.373 59.6293 244.427 58.5947 244.448 57.656C244.448 57.4853 244.373 57.4213 244.224 57.464L243.552 57.624C243.211 57.6667 242.901 57.592 242.624 57.4C242.347 57.1867 242.208 56.888 242.208 56.504C242.208 55.8853 242.517 55.512 243.136 55.384C243.328 55.3413 243.52 55.3093 243.712 55.288C243.904 55.2453 244.096 55.2027 244.288 55.16C244.395 55.1173 244.448 55.0533 244.448 54.968V45.368C244.448 44.8773 244.619 44.4613 244.96 44.12C245.323 43.7787 245.739 43.608 246.208 43.608H247.328C247.435 43.608 247.52 43.5653 247.584 43.48C247.755 43.2027 247.915 42.9253 248.064 42.648C248.213 42.3707 248.331 42.0933 248.416 41.816C248.523 41.5813 248.672 41.3893 248.864 41.24C249.077 41.0693 249.301 40.984 249.536 40.984C249.664 40.984 249.76 40.9947 249.824 41.016C250.421 41.1867 250.72 41.56 250.72 42.136C250.72 42.264 250.709 42.36 250.688 42.424C250.603 42.744 250.475 43.064 250.304 43.384C250.24 43.5333 250.293 43.608 250.464 43.608H252.16C252.651 43.608 253.067 43.7787 253.408 44.12C253.749 44.4613 253.92 44.8773 253.92 45.368V52.152C253.92 52.28 253.984 52.344 254.112 52.344C254.411 52.3013 254.677 52.3867 254.912 52.6C255.147 52.8133 255.264 53.1013 255.264 53.464C255.264 53.6773 255.2 53.8907 255.072 54.104C254.944 54.296 254.763 54.4347 254.528 54.52ZM256.672 52.856C256.459 53.0267 256.245 53.112 256.032 53.112C255.627 53.112 255.317 52.9307 255.104 52.568C254.976 52.3333 254.912 52.1093 254.912 51.896C254.912 51.4907 255.083 51.1173 255.424 50.776C256.299 49.9653 256.939 48.9733 257.344 47.8C257.771 46.6053 258.048 45.1973 258.176 43.576C258.219 43.0213 258.432 42.5627 258.816 42.2C259.2 41.8373 259.659 41.656 260.192 41.656H264C264.533 41.656 264.981 41.8373 265.344 42.2C265.728 42.5627 265.92 43.0213 265.92 43.576V49.24C265.92 49.5173 265.995 49.7093 266.144 49.816C266.293 49.9013 266.528 49.944 266.848 49.944H268.352C268.672 49.944 268.949 50.0613 269.184 50.296C269.419 50.5093 269.536 50.776 269.536 51.096C269.536 51.416 269.419 51.6933 269.184 51.928C268.949 52.1413 268.672 52.248 268.352 52.248H266.848C266.016 52.248 265.259 52.024 264.576 51.576C263.893 51.1067 263.552 50.3173 263.552 49.208V44.088C263.552 43.96 263.488 43.896 263.36 43.896H260.672C260.544 43.896 260.469 44.0027 260.448 44.216C260.277 46.3493 259.84 48.1307 259.136 49.56C258.432 50.968 257.611 52.0667 256.672 52.856ZM246.912 45.88C246.784 45.88 246.72 45.944 246.72 46.072V54.392C246.72 54.5413 246.795 54.5947 246.944 54.552C247.776 54.3387 248.565 54.1253 249.312 53.912C250.08 53.6773 250.805 53.4533 251.488 53.24C251.595 53.1973 251.648 53.1227 251.648 53.016V46.072C251.648 45.944 251.584 45.88 251.456 45.88H246.912ZM250.656 51.928C250.699 52.2693 250.603 52.5787 250.368 52.856C250.133 53.112 249.835 53.24 249.472 53.24C249.237 53.24 249.024 53.1547 248.832 52.984C248.64 52.8133 248.523 52.6 248.48 52.344C248.395 51.6613 248.256 50.9573 248.064 50.232C247.893 49.4853 247.669 48.7707 247.392 48.088C247.371 48.024 247.349 47.96 247.328 47.896C247.328 47.832 247.328 47.768 247.328 47.704C247.328 47.4053 247.424 47.1493 247.616 46.936C247.808 46.7227 248.075 46.616 248.416 46.616C248.949 46.616 249.323 46.872 249.536 47.384C249.771 48.0667 249.984 48.824 250.176 49.656C250.389 50.488 250.549 51.2453 250.656 51.928ZM269.056 66.424C269.312 66.5093 269.515 66.6587 269.664 66.872C269.813 67.0853 269.888 67.32 269.888 67.576C269.888 67.9173 269.771 68.1947 269.536 68.408C269.301 68.6427 269.035 68.76 268.736 68.76C268.651 68.76 268.544 68.7387 268.416 68.696C267.499 68.3973 266.517 67.9387 265.472 67.32C264.448 66.7013 263.424 65.9333 262.4 65.016C262.315 64.9307 262.229 64.9307 262.144 65.016C261.163 65.8693 260.107 66.6053 258.976 67.224C257.845 67.8427 256.693 68.3333 255.52 68.696C255.456 68.7173 255.392 68.728 255.328 68.728C255.285 68.7493 255.232 68.76 255.168 68.76C254.869 68.76 254.592 68.632 254.336 68.376C254.101 68.1413 253.984 67.8533 253.984 67.512C253.984 67.256 254.069 67.0213 254.24 66.808C254.411 66.5947 254.624 66.4453 254.88 66.36C256.075 65.9547 257.12 65.496 258.016 64.984C258.933 64.4507 259.755 63.8853 260.48 63.288C260.587 63.1813 260.597 63.0853 260.512 63C259.915 62.296 259.36 61.5387 258.848 60.728C258.336 59.896 257.877 59.0213 257.472 58.104C257.408 57.976 257.376 57.8267 257.376 57.656C257.376 57.3573 257.483 57.1013 257.696 56.888C257.909 56.6533 258.197 56.536 258.56 56.536C259.115 56.536 259.499 56.792 259.712 57.304C260.352 58.7547 261.163 60.1093 262.144 61.368C262.229 61.496 262.315 61.496 262.4 61.368C263.019 60.5573 263.541 59.736 263.968 58.904C264.395 58.072 264.725 57.24 264.96 56.408C265.003 56.2587 264.949 56.184 264.8 56.184H256.736C256.416 56.184 256.139 56.0773 255.904 55.864C255.691 55.6293 255.584 55.3627 255.584 55.064C255.584 54.744 255.691 54.4773 255.904 54.264C256.139 54.0293 256.416 53.912 256.736 53.912H265.984C266.432 53.912 266.816 54.072 267.136 54.392C267.456 54.6907 267.616 55.0533 267.616 55.48C267.616 55.5227 267.616 55.576 267.616 55.64C267.616 55.704 267.605 55.7573 267.584 55.8C267.264 57.2507 266.795 58.584 266.176 59.8C265.557 61.016 264.832 62.1253 264 63.128C263.915 63.192 263.925 63.2773 264.032 63.384C265.547 64.7707 267.221 65.784 269.056 66.424ZM295.872 47.704C295.872 47.832 295.936 47.896 296.064 47.896H299.104C299.637 47.896 300.085 48.0773 300.448 48.44C300.832 48.8027 301.024 49.2613 301.024 49.816C301.024 51.1813 301.013 52.5467 300.992 53.912C300.971 55.2773 300.939 56.5573 300.896 57.752C300.875 58.9467 300.843 59.992 300.8 60.888C300.779 61.7627 300.747 62.4133 300.704 62.84C300.619 64.184 300.405 65.2827 300.064 66.136C299.723 66.9893 299.189 67.6187 298.464 68.024C297.739 68.4293 296.736 68.6427 295.456 68.664C295.115 68.664 294.827 68.536 294.592 68.28C294.357 68.0453 294.229 67.7573 294.208 67.416C294.208 67.096 294.325 66.8187 294.56 66.584C294.795 66.3493 295.072 66.232 295.392 66.232C296.224 66.232 296.832 66.136 297.216 65.944C297.6 65.7307 297.856 65.368 297.984 64.856C298.112 64.3227 298.219 63.576 298.304 62.616C298.347 62.1467 298.389 61.304 298.432 60.088C298.475 58.872 298.507 57.4213 298.528 55.736C298.571 54.0507 298.603 52.2907 298.624 50.456C298.624 50.328 298.56 50.264 298.432 50.264H296.032C295.904 50.264 295.84 50.328 295.84 50.456C295.712 53.656 295.307 56.4507 294.624 58.84C293.963 61.2293 293.152 63.224 292.192 64.824C291.232 66.424 290.261 67.6507 289.28 68.504C289.109 68.6533 288.885 68.728 288.608 68.728C288.203 68.728 287.883 68.5573 287.648 68.216C287.499 68.0027 287.424 67.7573 287.424 67.48C287.424 67.0533 287.584 66.712 287.904 66.456C288.928 65.5173 289.781 64.4187 290.464 63.16C291.168 61.9013 291.723 60.5573 292.128 59.128C292.555 57.6987 292.864 56.248 293.056 54.776C293.269 53.2827 293.408 51.8427 293.472 50.456C293.472 50.328 293.408 50.264 293.28 50.264H290.688C290.368 50.264 290.091 50.1467 289.856 49.912C289.621 49.6773 289.504 49.4 289.504 49.08C289.504 48.7387 289.621 48.4613 289.856 48.248C290.091 48.0133 290.368 47.896 290.688 47.896H293.312C293.44 47.896 293.504 47.832 293.504 47.704V42.232C293.504 41.912 293.611 41.6347 293.824 41.4C294.059 41.1653 294.347 41.048 294.688 41.048C295.008 41.048 295.285 41.1653 295.52 41.4C295.755 41.6347 295.872 41.912 295.872 42.232V47.704ZM288.48 64.792C288.48 65.048 288.405 65.2827 288.256 65.496C288.107 65.7093 287.904 65.848 287.648 65.912C286.56 66.2107 285.333 66.488 283.968 66.744C282.603 67 281.195 67.224 279.744 67.416C278.293 67.608 276.896 67.768 275.552 67.896C275.253 67.9173 274.987 67.8213 274.752 67.608C274.539 67.3947 274.432 67.1387 274.432 66.84C274.432 66.5413 274.528 66.296 274.72 66.104C274.933 65.8907 275.179 65.7733 275.456 65.752C276.203 65.7093 277.035 65.6347 277.952 65.528C278.869 65.4213 279.819 65.2933 280.8 65.144C280.928 65.1013 280.992 65.0267 280.992 64.92V62.904C280.992 62.776 280.928 62.712 280.8 62.712H276.704C276.405 62.712 276.149 62.6053 275.936 62.392C275.723 62.1787 275.616 61.9333 275.616 61.656C275.616 61.3573 275.723 61.112 275.936 60.92C276.149 60.7067 276.405 60.6 276.704 60.6H280.8C280.928 60.6 280.992 60.536 280.992 60.408V59.32C280.992 59.192 280.928 59.128 280.8 59.128H277.664C277.131 59.128 276.672 58.9467 276.288 58.584C275.925 58.2 275.744 57.7413 275.744 57.208V51.768C275.744 51.2347 275.925 50.7867 276.288 50.424C276.672 50.04 277.131 49.848 277.664 49.848H280.8C280.928 49.848 280.992 49.784 280.992 49.656V48.792C280.992 48.664 280.928 48.6 280.8 48.6H275.552C275.253 48.6 274.997 48.4933 274.784 48.28C274.571 48.0667 274.464 47.8107 274.464 47.512C274.464 47.2133 274.571 46.9573 274.784 46.744C274.997 46.5307 275.253 46.424 275.552 46.424H280.8C280.928 46.424 280.992 46.36 280.992 46.232V45.432C280.992 45.2827 280.928 45.2293 280.8 45.272C280.181 45.3573 279.563 45.432 278.944 45.496C278.325 45.56 277.717 45.6133 277.12 45.656C276.779 45.6773 276.48 45.5707 276.224 45.336C275.989 45.1013 275.872 44.8133 275.872 44.472C275.872 44.1947 275.968 43.96 276.16 43.768C276.352 43.5547 276.597 43.4373 276.896 43.416C278.496 43.3093 280.117 43.1173 281.76 42.84C283.424 42.5413 285.056 42.1893 286.656 41.784C286.976 41.6987 287.285 41.7627 287.584 41.976C287.883 42.1893 288.032 42.4773 288.032 42.84C288.032 43.096 287.947 43.3413 287.776 43.576C287.627 43.7893 287.424 43.928 287.168 43.992C286.549 44.1627 285.92 44.3227 285.28 44.472C284.64 44.6 283.989 44.728 283.328 44.856C283.221 44.8987 283.168 44.9627 283.168 45.048V46.232C283.168 46.36 283.232 46.424 283.36 46.424H288.416C288.715 46.424 288.971 46.5307 289.184 46.744C289.397 46.9573 289.504 47.2133 289.504 47.512C289.504 47.8107 289.397 48.0667 289.184 48.28C288.971 48.4933 288.715 48.6 288.416 48.6H283.36C283.232 48.6 283.168 48.664 283.168 48.792V49.656C283.168 49.784 283.232 49.848 283.36 49.848H286.72C287.253 49.848 287.701 50.04 288.064 50.424C288.448 50.7867 288.64 51.2347 288.64 51.768V57.208C288.64 57.7413 288.448 58.2 288.064 58.584C287.701 58.9467 287.253 59.128 286.72 59.128H283.36C283.232 59.128 283.168 59.192 283.168 59.32V60.408C283.168 60.536 283.232 60.6 283.36 60.6H287.264C287.563 60.6 287.808 60.7067 288 60.92C288.213 61.112 288.32 61.3573 288.32 61.656C288.32 61.9333 288.213 62.1787 288 62.392C287.808 62.6053 287.563 62.712 287.264 62.712H283.36C283.232 62.712 283.168 62.776 283.168 62.904V64.504C283.168 64.6533 283.243 64.7173 283.392 64.696C284.757 64.3973 285.995 64.088 287.104 63.768C287.168 63.7467 287.221 63.736 287.264 63.736C287.328 63.7147 287.392 63.704 287.456 63.704C287.733 63.704 287.968 63.8 288.16 63.992C288.373 64.184 288.48 64.4507 288.48 64.792ZM280.8 53.4C280.928 53.4 280.992 53.336 280.992 53.208V52.152C280.992 52.024 280.928 51.96 280.8 51.96H278.176C278.048 51.96 277.984 52.024 277.984 52.152V53.208C277.984 53.336 278.048 53.4 278.176 53.4H280.8ZM286.176 53.4C286.304 53.4 286.368 53.336 286.368 53.208V52.152C286.368 52.024 286.304 51.96 286.176 51.96H283.36C283.232 51.96 283.168 52.024 283.168 52.152V53.208C283.168 53.336 283.232 53.4 283.36 53.4H286.176ZM278.176 55.544C278.048 55.544 277.984 55.608 277.984 55.736V56.792C277.984 56.92 278.048 56.984 278.176 56.984H280.8C280.928 56.984 280.992 56.92 280.992 56.792V55.736C280.992 55.608 280.928 55.544 280.8 55.544H278.176ZM283.36 55.544C283.232 55.544 283.168 55.608 283.168 55.736V56.792C283.168 56.92 283.232 56.984 283.36 56.984H286.176C286.304 56.984 286.368 56.92 286.368 56.792V55.736C286.368 55.608 286.304 55.544 286.176 55.544H283.36ZM308.096 42.232H331.904C332.224 42.232 332.491 42.3493 332.704 42.584C332.939 42.7973 333.056 43.064 333.056 43.384C333.056 43.704 332.939 43.9813 332.704 44.216C332.491 44.4293 332.224 44.536 331.904 44.536H321.344C321.216 44.536 321.152 44.6 321.152 44.728V48.088C321.152 48.216 321.216 48.28 321.344 48.28H325.28C325.813 48.28 326.261 48.472 326.624 48.856C327.008 49.2187 327.2 49.6667 327.2 50.2V61.112C327.2 61.6453 327.008 62.104 326.624 62.488C326.261 62.8507 325.813 63.032 325.28 63.032H314.72C314.187 63.032 313.728 62.8507 313.344 62.488C312.981 62.104 312.8 61.6453 312.8 61.112V50.2C312.8 49.6667 312.981 49.2187 313.344 48.856C313.728 48.472 314.187 48.28 314.72 48.28H318.656C318.784 48.28 318.848 48.216 318.848 48.088V44.728C318.848 44.6 318.784 44.536 318.656 44.536H308.096C307.776 44.536 307.499 44.4293 307.264 44.216C307.051 43.9813 306.944 43.704 306.944 43.384C306.944 43.064 307.051 42.7973 307.264 42.584C307.499 42.3493 307.776 42.232 308.096 42.232ZM331.328 47.832C331.648 47.832 331.925 47.9493 332.16 48.184C332.395 48.3973 332.512 48.6747 332.512 49.016V66.68C332.512 67.2133 332.32 67.6613 331.936 68.024C331.573 68.408 331.125 68.6 330.592 68.6H309.408C308.875 68.6 308.416 68.408 308.032 68.024C307.669 67.6613 307.488 67.2133 307.488 66.68V49.016C307.488 48.6747 307.605 48.3973 307.84 48.184C308.075 47.9493 308.352 47.832 308.672 47.832C308.992 47.832 309.269 47.9493 309.504 48.184C309.739 48.3973 309.856 48.6747 309.856 49.016V66.136C309.856 66.264 309.92 66.328 310.048 66.328H329.952C330.08 66.328 330.144 66.264 330.144 66.136V49.016C330.144 48.6747 330.261 48.3973 330.496 48.184C330.731 47.9493 331.008 47.832 331.328 47.832ZM318.656 54.328C318.784 54.328 318.848 54.264 318.848 54.136V50.648C318.848 50.52 318.784 50.456 318.656 50.456H315.264C315.136 50.456 315.072 50.52 315.072 50.648V54.136C315.072 54.264 315.136 54.328 315.264 54.328H318.656ZM324.736 54.328C324.864 54.328 324.928 54.264 324.928 54.136V50.648C324.928 50.52 324.864 50.456 324.736 50.456H321.344C321.216 50.456 321.152 50.52 321.152 50.648V54.136C321.152 54.264 321.216 54.328 321.344 54.328H324.736ZM318.848 56.696C318.848 56.568 318.784 56.504 318.656 56.504H315.264C315.136 56.504 315.072 56.568 315.072 56.696V60.664C315.072 60.792 315.136 60.856 315.264 60.856H318.656C318.784 60.856 318.848 60.792 318.848 60.664V56.696ZM321.344 56.504C321.216 56.504 321.152 56.568 321.152 56.696V60.664C321.152 60.792 321.216 60.856 321.344 60.856H324.736C324.864 60.856 324.928 60.792 324.928 60.664V56.696C324.928 56.568 324.864 56.504 324.736 56.504H321.344ZM359.872 64.312C360.256 64.2693 360.587 64.376 360.864 64.632C361.163 64.888 361.312 65.208 361.312 65.592C361.312 65.9333 361.195 66.232 360.96 66.488C360.747 66.744 360.459 66.8933 360.096 66.936C359.243 67.0213 358.016 67.1067 356.416 67.192C354.837 67.2987 353.035 67.352 351.008 67.352C349.365 67.352 348.021 67.128 346.976 66.68C345.952 66.2107 345.269 65.464 344.928 64.44C344.779 63.992 344.704 63.5333 344.704 63.064C344.704 61.9547 345.227 60.8347 346.272 59.704C347.339 58.5733 349.163 57.3253 351.744 55.96C351.979 55.8747 352.021 55.7467 351.872 55.576C351.403 54.8933 350.688 54.552 349.728 54.552C349.152 54.552 348.523 54.6693 347.84 54.904C347.157 55.1173 346.443 55.416 345.696 55.8C345.611 55.8427 345.515 55.9173 345.408 56.024C345.323 56.088 345.237 56.1627 345.152 56.248C345.067 56.312 344.971 56.376 344.864 56.44C344.693 56.5893 344.469 56.664 344.192 56.664C343.765 56.664 343.435 56.472 343.2 56.088C343.072 55.8533 343.008 55.6293 343.008 55.416C343.008 54.9893 343.179 54.6373 343.52 54.36C344.203 53.8267 344.832 53.2187 345.408 52.536C345.984 51.8533 346.507 51.0747 346.976 50.2C347.019 50.1147 347.04 50.0613 347.04 50.04C347.04 49.8907 346.944 49.8373 346.752 49.88C346.091 49.9653 345.461 50.04 344.864 50.104C344.267 50.1467 343.712 50.1893 343.2 50.232C342.859 50.2533 342.571 50.1467 342.336 49.912C342.101 49.6773 341.984 49.3893 341.984 49.048C341.984 48.7067 342.101 48.4187 342.336 48.184C342.571 47.9493 342.859 47.8213 343.2 47.8C344.8 47.736 346.443 47.576 348.128 47.32C348.277 47.2987 348.384 47.2133 348.448 47.064C348.64 46.5093 348.832 45.9333 349.024 45.336C349.216 44.7387 349.387 44.1093 349.536 43.448C349.6 43.1707 349.749 42.9467 349.984 42.776C350.219 42.6053 350.475 42.52 350.752 42.52C351.115 42.52 351.403 42.648 351.616 42.904C351.851 43.1387 351.968 43.416 351.968 43.736C351.968 43.864 351.957 43.96 351.936 44.024C351.829 44.4293 351.712 44.824 351.584 45.208C351.477 45.592 351.36 45.9653 351.232 46.328C351.232 46.3493 351.221 46.3707 351.2 46.392C351.2 46.4133 351.2 46.4347 351.2 46.456C351.2 46.6267 351.307 46.68 351.52 46.616C352.117 46.4453 352.704 46.264 353.28 46.072C353.877 45.8587 354.443 45.6453 354.976 45.432C355.147 45.368 355.296 45.336 355.424 45.336C355.659 45.336 355.872 45.4 356.064 45.528C356.277 45.6347 356.427 45.8053 356.512 46.04C356.555 46.1253 356.576 46.2107 356.576 46.296C356.576 46.36 356.576 46.424 356.576 46.488C356.576 47.064 356.331 47.448 355.84 47.64C355.029 47.9813 354.144 48.2907 353.184 48.568C352.245 48.8453 351.285 49.0907 350.304 49.304C350.155 49.3253 350.048 49.4 349.984 49.528C349.771 49.9973 349.557 50.4453 349.344 50.872C349.131 51.2987 348.907 51.7147 348.672 52.12C348.629 52.2053 348.608 52.2587 348.608 52.28C348.608 52.3867 348.704 52.4293 348.896 52.408C349.131 52.3653 349.344 52.3333 349.536 52.312C349.749 52.2907 349.952 52.28 350.144 52.28C351.125 52.28 351.936 52.4933 352.576 52.92C353.216 53.3253 353.717 53.8373 354.08 54.456C354.187 54.6267 354.315 54.6693 354.464 54.584C355.253 54.1787 356.075 53.72 356.928 53.208C357.781 52.696 358.677 52.1093 359.616 51.448C359.829 51.2987 360.064 51.224 360.32 51.224C360.747 51.224 361.077 51.4053 361.312 51.768C361.461 51.9813 361.536 52.216 361.536 52.472C361.536 52.92 361.355 53.2613 360.992 53.496C360.267 53.9653 359.605 54.3813 359.008 54.744C358.411 55.1067 357.803 55.448 357.184 55.768C356.565 56.088 355.861 56.44 355.072 56.824C354.923 56.9093 354.859 57.0373 354.88 57.208C355.029 58.168 355.136 59.5227 355.2 61.272C355.2 61.6133 355.083 61.9013 354.848 62.136C354.613 62.3707 354.325 62.488 353.984 62.488C353.643 62.488 353.355 62.3707 353.12 62.136C352.885 61.9013 352.757 61.6133 352.736 61.272C352.715 60.7173 352.693 60.216 352.672 59.768C352.651 59.2987 352.619 58.872 352.576 58.488C352.576 58.232 352.459 58.168 352.224 58.296C350.453 59.2347 349.173 60.0987 348.384 60.888C347.595 61.656 347.2 62.3707 347.2 63.032C347.2 63.224 347.232 63.416 347.296 63.608C347.488 64.0773 347.851 64.4293 348.384 64.664C348.917 64.8987 349.856 65.016 351.2 65.016C352.971 65.016 355.861 64.7813 359.872 64.312ZM397.216 64.824C397.536 65.08 397.696 65.3893 397.696 65.752C397.696 66.0293 397.6 66.264 397.408 66.456C396.875 67.032 396.331 67.4693 395.776 67.768C395.243 68.088 394.613 68.3013 393.888 68.408C393.163 68.536 392.256 68.6 391.168 68.6C389.909 68.6 388.843 68.504 387.968 68.312C387.093 68.1413 386.432 67.7893 385.984 67.256C385.536 66.7227 385.312 65.9333 385.312 64.888V60.504C385.312 60.376 385.248 60.312 385.12 60.312H382.848C382.763 60.312 382.699 60.3653 382.656 60.472C382.101 62.7333 380.917 64.5573 379.104 65.944C377.291 67.3093 374.816 68.2373 371.68 68.728C371.339 68.7707 371.029 68.6747 370.752 68.44C370.475 68.2053 370.336 67.9067 370.336 67.544C370.336 67.2453 370.432 66.9787 370.624 66.744C370.837 66.488 371.104 66.3387 371.424 66.296C372.747 66.104 373.995 65.784 375.168 65.336C376.363 64.8667 377.397 64.248 378.272 63.48C379.147 62.6907 379.787 61.7093 380.192 60.536C380.235 60.3867 380.181 60.312 380.032 60.312H377.056C376.523 60.312 376.064 60.1307 375.68 59.768C375.317 59.384 375.136 58.9253 375.136 58.392V43.8C375.136 43.2667 375.317 42.8187 375.68 42.456C376.064 42.072 376.523 41.88 377.056 41.88H390.944C391.477 41.88 391.925 42.072 392.288 42.456C392.672 42.8187 392.864 43.2667 392.864 43.8V58.392C392.864 58.9253 392.672 59.384 392.288 59.768C391.925 60.1307 391.477 60.312 390.944 60.312H387.904C387.776 60.312 387.712 60.376 387.712 60.504V64.536C387.712 65.1333 387.819 65.56 388.032 65.816C388.245 66.0507 388.661 66.2 389.28 66.264C389.92 66.3067 390.859 66.328 392.096 66.328C392.885 66.328 393.515 66.264 393.984 66.136C394.453 65.9867 394.965 65.6133 395.52 65.016C395.776 64.7173 396.107 64.568 396.512 64.568C396.747 64.568 396.981 64.6533 397.216 64.824ZM390.24 47.256C390.368 47.256 390.432 47.192 390.432 47.064V44.44C390.432 44.312 390.368 44.248 390.24 44.248H377.76C377.632 44.248 377.568 44.312 377.568 44.44V47.064C377.568 47.192 377.632 47.256 377.76 47.256H390.24ZM377.568 52.44C377.568 52.568 377.632 52.632 377.76 52.632H390.24C390.368 52.632 390.432 52.568 390.432 52.44V49.784C390.432 49.656 390.368 49.592 390.24 49.592H377.76C377.632 49.592 377.568 49.656 377.568 49.784V52.44ZM390.432 55.16C390.432 55.032 390.368 54.968 390.24 54.968H377.76C377.632 54.968 377.568 55.032 377.568 55.16V57.784C377.568 57.912 377.632 57.976 377.76 57.976H390.24C390.368 57.976 390.432 57.912 390.432 57.784V55.16ZM415.552 67.64C414.187 67.64 413.099 67.448 412.288 67.064C411.499 66.68 410.933 66.1893 410.592 65.592C410.251 64.9947 410.08 64.3973 410.08 63.8C410.08 63.1387 410.229 62.5413 410.528 62.008C410.848 61.432 411.211 61.016 411.616 60.76C412.021 60.504 412.448 60.376 412.896 60.376C413.493 60.376 414.123 60.5787 414.784 60.984C415.445 61.368 416.117 61.8907 416.8 62.552C417.504 63.192 418.176 63.9067 418.816 64.696C418.901 64.824 419.029 64.8667 419.2 64.824C419.989 64.5253 420.725 64.1413 421.408 63.672C422.091 63.2027 422.667 62.6373 423.136 61.976C423.648 61.208 423.904 60.376 423.904 59.48C423.904 58.456 423.541 57.5173 422.816 56.664C422.112 55.8107 421.024 55.2987 419.552 55.128C419.339 55.0853 419.125 55.064 418.912 55.064C418.72 55.064 418.517 55.064 418.304 55.064C416.491 55.064 414.763 55.4907 413.12 56.344C411.499 57.1973 409.877 58.3493 408.256 59.8C408.021 60.0133 407.723 60.12 407.36 60.12C407.104 60.12 406.88 60.056 406.688 59.928C406.389 59.736 406.24 59.4587 406.24 59.096C406.24 58.904 406.293 58.7227 406.4 58.552C407.808 56.4613 409.269 54.4133 410.784 52.408C412.32 50.4027 413.867 48.5893 415.424 46.968C415.488 46.904 415.52 46.84 415.52 46.776C415.52 46.6907 415.435 46.6587 415.264 46.68C414.667 46.7653 413.963 46.84 413.152 46.904C412.363 46.968 411.552 47 410.72 47C410.443 47 410.176 47 409.92 47C409.664 47 409.408 46.9893 409.152 46.968C408.832 46.9467 408.565 46.8187 408.352 46.584C408.139 46.328 408.032 46.04 408.032 45.72C408.032 45.3787 408.16 45.0907 408.416 44.856C408.693 44.6213 409.003 44.5147 409.344 44.536C410.219 44.6 411.061 44.632 411.872 44.632C412.96 44.632 413.995 44.568 414.976 44.44C415.979 44.312 416.96 44.088 417.92 43.768C418.005 43.7253 418.08 43.704 418.144 43.704C418.229 43.704 418.315 43.704 418.4 43.704C418.635 43.704 418.859 43.768 419.072 43.896C419.307 44.024 419.467 44.2053 419.552 44.44C419.659 44.696 419.712 44.9307 419.712 45.144C419.712 45.6347 419.52 46.0507 419.136 46.392C417.664 47.6933 416.352 49.0053 415.2 50.328C414.048 51.6293 412.939 53.048 411.872 54.584C411.829 54.6693 411.808 54.7227 411.808 54.744C411.808 54.9147 411.925 54.9467 412.16 54.84C413.461 54.1573 414.699 53.6667 415.872 53.368C417.067 53.0693 418.176 52.92 419.2 52.92C420.971 52.92 422.453 53.3147 423.648 54.104C424.843 54.8933 425.643 55.9493 426.048 57.272C426.261 57.9333 426.368 58.6373 426.368 59.384C426.368 60.856 425.909 62.2213 424.992 63.48C424.096 64.7387 422.837 65.752 421.216 66.52C419.595 67.2667 417.707 67.64 415.552 67.64ZM416.32 65.4C416.469 65.4 416.544 65.3467 416.544 65.24C416.544 65.1547 416.512 65.0693 416.448 64.984C415.68 64.088 415.019 63.4693 414.464 63.128C413.931 62.7867 413.493 62.616 413.152 62.616C412.853 62.616 412.629 62.712 412.48 62.904C412.331 63.096 412.256 63.3093 412.256 63.544C412.256 63.608 412.256 63.672 412.256 63.736C412.277 63.8 412.299 63.864 412.32 63.928C412.533 64.4613 413.013 64.856 413.76 65.112C414.507 65.3467 415.36 65.4427 416.32 65.4Z" fill="#EDEDED"/>
<path d="M134 66.95C137.9 66.95 141.2 65.6 143.9 62.9C146.6 60.2 147.95 56.9 147.95 53C147.95 49.1 146.6 45.8 143.9 43.1C141.2 40.4 137.9 39.05 134 39.05C130.1 39.05 126.8 40.4 124.1 43.1C121.4 45.8 120.05 49.1 120.05 53C120.05 56.9 121.4 60.2 124.1 62.9C126.8 65.6 130.1 66.95 134 66.95ZM134 83C129.9 83 126.025 82.2125 122.375 80.6375C118.725 79.0625 115.538 76.9125 112.812 74.1875C110.087 71.4625 107.937 68.275 106.362 64.625C104.787 60.975 104 57.1 104 53C104 48.85 104.787 44.95 106.362 41.3C107.937 37.65 110.087 34.475 112.812 31.775C115.538 29.075 118.725 26.9375 122.375 25.3625C126.025 23.7875 129.9 23 134 23C138.15 23 142.05 23.7875 145.7 25.3625C149.35 26.9375 152.525 29.075 155.225 31.775C157.925 34.475 160.062 37.65 161.637 41.3C163.212 44.95 164 48.85 164 53C164 57.1 163.212 60.975 161.637 64.625C160.062 68.275 157.925 71.4625 155.225 74.1875C152.525 76.9125 149.35 79.0625 145.7 80.6375C142.05 82.2125 138.15 83 134 83Z" fill="white"/>
</svg>
