<svg width="60" height="60" viewBox="0 0 60 60" fill="none" xmlns="http://www.w3.org/2000/svg">
<path d="M30 60C21.6875 60 14.6094 57.0781 8.76562 51.2344C2.92188 45.3906 0 38.3125 0 30C0 21.6875 2.92188 14.6094 8.76562 8.76562C14.6094 2.92188 21.6875 0 30 0C35.3125 0 39.9688 1.07813 43.9688 3.23438C47.9688 5.39063 51.4375 8.34375 54.375 12.0938V0H60V23.8125H36.1875V18.1875H51.9375C49.5625 14.4375 46.5312 11.4063 42.8438 9.09375C39.1562 6.78125 34.875 5.625 30 5.625C23.1875 5.625 17.4219 7.98437 12.7031 12.7031C7.98437 17.4219 5.625 23.1875 5.625 30C5.625 36.8125 7.98437 42.5781 12.7031 47.2969C17.4219 52.0156 23.1875 54.375 30 54.375C35.1875 54.375 39.9375 52.8906 44.25 49.9219C48.5625 46.9531 51.5625 43.0312 53.25 38.1562H59.0625C57.25 44.7188 53.6562 50 48.2812 54C42.9062 58 36.8125 60 30 60Z" fill="#009672"/>
</svg>
