<svg width="530" height="106" viewBox="0 0 530 106" fill="none" xmlns="http://www.w3.org/2000/svg">
<rect width="530" height="106" rx="53" fill="#009672"/>
<path d="M235.872 47.704C235.872 47.832 235.936 47.896 236.064 47.896H239.104C239.637 47.896 240.085 48.0773 240.448 48.44C240.832 48.8027 241.024 49.2613 241.024 49.816C241.024 51.1813 241.013 52.5467 240.992 53.912C240.971 55.2773 240.939 56.5573 240.896 57.752C240.875 58.9467 240.843 59.992 240.8 60.888C240.779 61.7627 240.747 62.4133 240.704 62.84C240.619 64.184 240.405 65.2827 240.064 66.136C239.723 66.9893 239.189 67.6187 238.464 68.024C237.739 68.4293 236.736 68.6427 235.456 68.664C235.115 68.664 234.827 68.536 234.592 68.28C234.357 68.0453 234.229 67.7573 234.208 67.416C234.208 67.096 234.325 66.8187 234.56 66.584C234.795 66.3493 235.072 66.232 235.392 66.232C236.224 66.232 236.832 66.136 237.216 65.944C237.6 65.7307 237.856 65.368 237.984 64.856C238.112 64.3227 238.219 63.576 238.304 62.616C238.347 62.1467 238.389 61.304 238.432 60.088C238.475 58.872 238.507 57.4213 238.528 55.736C238.571 54.0507 238.603 52.2907 238.624 50.456C238.624 50.328 238.56 50.264 238.432 50.264H236.032C235.904 50.264 235.84 50.328 235.84 50.456C235.712 53.656 235.307 56.4507 234.624 58.84C233.963 61.2293 233.152 63.224 232.192 64.824C231.232 66.424 230.261 67.6507 229.28 68.504C229.109 68.6533 228.885 68.728 228.608 68.728C228.203 68.728 227.883 68.5573 227.648 68.216C227.499 68.0027 227.424 67.7573 227.424 67.48C227.424 67.0533 227.584 66.712 227.904 66.456C228.928 65.5173 229.781 64.4187 230.464 63.16C231.168 61.9013 231.723 60.5573 232.128 59.128C232.555 57.6987 232.864 56.248 233.056 54.776C233.269 53.2827 233.408 51.8427 233.472 50.456C233.472 50.328 233.408 50.264 233.28 50.264H230.688C230.368 50.264 230.091 50.1467 229.856 49.912C229.621 49.6773 229.504 49.4 229.504 49.08C229.504 48.7387 229.621 48.4613 229.856 48.248C230.091 48.0133 230.368 47.896 230.688 47.896H233.312C233.44 47.896 233.504 47.832 233.504 47.704V42.232C233.504 41.912 233.611 41.6347 233.824 41.4C234.059 41.1653 234.347 41.048 234.688 41.048C235.008 41.048 235.285 41.1653 235.52 41.4C235.755 41.6347 235.872 41.912 235.872 42.232V47.704ZM228.48 64.792C228.48 65.048 228.405 65.2827 228.256 65.496C228.107 65.7093 227.904 65.848 227.648 65.912C226.56 66.2107 225.333 66.488 223.968 66.744C222.603 67 221.195 67.224 219.744 67.416C218.293 67.608 216.896 67.768 215.552 67.896C215.253 67.9173 214.987 67.8213 214.752 67.608C214.539 67.3947 214.432 67.1387 214.432 66.84C214.432 66.5413 214.528 66.296 214.72 66.104C214.933 65.8907 215.179 65.7733 215.456 65.752C216.203 65.7093 217.035 65.6347 217.952 65.528C218.869 65.4213 219.819 65.2933 220.8 65.144C220.928 65.1013 220.992 65.0267 220.992 64.92V62.904C220.992 62.776 220.928 62.712 220.8 62.712H216.704C216.405 62.712 216.149 62.6053 215.936 62.392C215.723 62.1787 215.616 61.9333 215.616 61.656C215.616 61.3573 215.723 61.112 215.936 60.92C216.149 60.7067 216.405 60.6 216.704 60.6H220.8C220.928 60.6 220.992 60.536 220.992 60.408V59.32C220.992 59.192 220.928 59.128 220.8 59.128H217.664C217.131 59.128 216.672 58.9467 216.288 58.584C215.925 58.2 215.744 57.7413 215.744 57.208V51.768C215.744 51.2347 215.925 50.7867 216.288 50.424C216.672 50.04 217.131 49.848 217.664 49.848H220.8C220.928 49.848 220.992 49.784 220.992 49.656V48.792C220.992 48.664 220.928 48.6 220.8 48.6H215.552C215.253 48.6 214.997 48.4933 214.784 48.28C214.571 48.0667 214.464 47.8107 214.464 47.512C214.464 47.2133 214.571 46.9573 214.784 46.744C214.997 46.5307 215.253 46.424 215.552 46.424H220.8C220.928 46.424 220.992 46.36 220.992 46.232V45.432C220.992 45.2827 220.928 45.2293 220.8 45.272C220.181 45.3573 219.563 45.432 218.944 45.496C218.325 45.56 217.717 45.6133 217.12 45.656C216.779 45.6773 216.48 45.5707 216.224 45.336C215.989 45.1013 215.872 44.8133 215.872 44.472C215.872 44.1947 215.968 43.96 216.16 43.768C216.352 43.5547 216.597 43.4373 216.896 43.416C218.496 43.3093 220.117 43.1173 221.76 42.84C223.424 42.5413 225.056 42.1893 226.656 41.784C226.976 41.6987 227.285 41.7627 227.584 41.976C227.883 42.1893 228.032 42.4773 228.032 42.84C228.032 43.096 227.947 43.3413 227.776 43.576C227.627 43.7893 227.424 43.928 227.168 43.992C226.549 44.1627 225.92 44.3227 225.28 44.472C224.64 44.6 223.989 44.728 223.328 44.856C223.221 44.8987 223.168 44.9627 223.168 45.048V46.232C223.168 46.36 223.232 46.424 223.36 46.424H228.416C228.715 46.424 228.971 46.5307 229.184 46.744C229.397 46.9573 229.504 47.2133 229.504 47.512C229.504 47.8107 229.397 48.0667 229.184 48.28C228.971 48.4933 228.715 48.6 228.416 48.6H223.36C223.232 48.6 223.168 48.664 223.168 48.792V49.656C223.168 49.784 223.232 49.848 223.36 49.848H226.72C227.253 49.848 227.701 50.04 228.064 50.424C228.448 50.7867 228.64 51.2347 228.64 51.768V57.208C228.64 57.7413 228.448 58.2 228.064 58.584C227.701 58.9467 227.253 59.128 226.72 59.128H223.36C223.232 59.128 223.168 59.192 223.168 59.32V60.408C223.168 60.536 223.232 60.6 223.36 60.6H227.264C227.563 60.6 227.808 60.7067 228 60.92C228.213 61.112 228.32 61.3573 228.32 61.656C228.32 61.9333 228.213 62.1787 228 62.392C227.808 62.6053 227.563 62.712 227.264 62.712H223.36C223.232 62.712 223.168 62.776 223.168 62.904V64.504C223.168 64.6533 223.243 64.7173 223.392 64.696C224.757 64.3973 225.995 64.088 227.104 63.768C227.168 63.7467 227.221 63.736 227.264 63.736C227.328 63.7147 227.392 63.704 227.456 63.704C227.733 63.704 227.968 63.8 228.16 63.992C228.373 64.184 228.48 64.4507 228.48 64.792ZM220.8 53.4C220.928 53.4 220.992 53.336 220.992 53.208V52.152C220.992 52.024 220.928 51.96 220.8 51.96H218.176C218.048 51.96 217.984 52.024 217.984 52.152V53.208C217.984 53.336 218.048 53.4 218.176 53.4H220.8ZM226.176 53.4C226.304 53.4 226.368 53.336 226.368 53.208V52.152C226.368 52.024 226.304 51.96 226.176 51.96H223.36C223.232 51.96 223.168 52.024 223.168 52.152V53.208C223.168 53.336 223.232 53.4 223.36 53.4H226.176ZM218.176 55.544C218.048 55.544 217.984 55.608 217.984 55.736V56.792C217.984 56.92 218.048 56.984 218.176 56.984H220.8C220.928 56.984 220.992 56.92 220.992 56.792V55.736C220.992 55.608 220.928 55.544 220.8 55.544H218.176ZM223.36 55.544C223.232 55.544 223.168 55.608 223.168 55.736V56.792C223.168 56.92 223.232 56.984 223.36 56.984H226.176C226.304 56.984 226.368 56.92 226.368 56.792V55.736C226.368 55.608 226.304 55.544 226.176 55.544H223.36ZM248.096 42.232H271.904C272.224 42.232 272.491 42.3493 272.704 42.584C272.939 42.7973 273.056 43.064 273.056 43.384C273.056 43.704 272.939 43.9813 272.704 44.216C272.491 44.4293 272.224 44.536 271.904 44.536H261.344C261.216 44.536 261.152 44.6 261.152 44.728V48.088C261.152 48.216 261.216 48.28 261.344 48.28H265.28C265.813 48.28 266.261 48.472 266.624 48.856C267.008 49.2187 267.2 49.6667 267.2 50.2V61.112C267.2 61.6453 267.008 62.104 266.624 62.488C266.261 62.8507 265.813 63.032 265.28 63.032H254.72C254.187 63.032 253.728 62.8507 253.344 62.488C252.981 62.104 252.8 61.6453 252.8 61.112V50.2C252.8 49.6667 252.981 49.2187 253.344 48.856C253.728 48.472 254.187 48.28 254.72 48.28H258.656C258.784 48.28 258.848 48.216 258.848 48.088V44.728C258.848 44.6 258.784 44.536 258.656 44.536H248.096C247.776 44.536 247.499 44.4293 247.264 44.216C247.051 43.9813 246.944 43.704 246.944 43.384C246.944 43.064 247.051 42.7973 247.264 42.584C247.499 42.3493 247.776 42.232 248.096 42.232ZM271.328 47.832C271.648 47.832 271.925 47.9493 272.16 48.184C272.395 48.3973 272.512 48.6747 272.512 49.016V66.68C272.512 67.2133 272.32 67.6613 271.936 68.024C271.573 68.408 271.125 68.6 270.592 68.6H249.408C248.875 68.6 248.416 68.408 248.032 68.024C247.669 67.6613 247.488 67.2133 247.488 66.68V49.016C247.488 48.6747 247.605 48.3973 247.84 48.184C248.075 47.9493 248.352 47.832 248.672 47.832C248.992 47.832 249.269 47.9493 249.504 48.184C249.739 48.3973 249.856 48.6747 249.856 49.016V66.136C249.856 66.264 249.92 66.328 250.048 66.328H269.952C270.08 66.328 270.144 66.264 270.144 66.136V49.016C270.144 48.6747 270.261 48.3973 270.496 48.184C270.731 47.9493 271.008 47.832 271.328 47.832ZM258.656 54.328C258.784 54.328 258.848 54.264 258.848 54.136V50.648C258.848 50.52 258.784 50.456 258.656 50.456H255.264C255.136 50.456 255.072 50.52 255.072 50.648V54.136C255.072 54.264 255.136 54.328 255.264 54.328H258.656ZM264.736 54.328C264.864 54.328 264.928 54.264 264.928 54.136V50.648C264.928 50.52 264.864 50.456 264.736 50.456H261.344C261.216 50.456 261.152 50.52 261.152 50.648V54.136C261.152 54.264 261.216 54.328 261.344 54.328H264.736ZM258.848 56.696C258.848 56.568 258.784 56.504 258.656 56.504H255.264C255.136 56.504 255.072 56.568 255.072 56.696V60.664C255.072 60.792 255.136 60.856 255.264 60.856H258.656C258.784 60.856 258.848 60.792 258.848 60.664V56.696ZM261.344 56.504C261.216 56.504 261.152 56.568 261.152 56.696V60.664C261.152 60.792 261.216 60.856 261.344 60.856H264.736C264.864 60.856 264.928 60.792 264.928 60.664V56.696C264.928 56.568 264.864 56.504 264.736 56.504H261.344ZM299.872 64.312C300.256 64.2693 300.587 64.376 300.864 64.632C301.163 64.888 301.312 65.208 301.312 65.592C301.312 65.9333 301.195 66.232 300.96 66.488C300.747 66.744 300.459 66.8933 300.096 66.936C299.243 67.0213 298.016 67.1067 296.416 67.192C294.837 67.2987 293.035 67.352 291.008 67.352C289.365 67.352 288.021 67.128 286.976 66.68C285.952 66.2107 285.269 65.464 284.928 64.44C284.779 63.992 284.704 63.5333 284.704 63.064C284.704 61.9547 285.227 60.8347 286.272 59.704C287.339 58.5733 289.163 57.3253 291.744 55.96C291.979 55.8747 292.021 55.7467 291.872 55.576C291.403 54.8933 290.688 54.552 289.728 54.552C289.152 54.552 288.523 54.6693 287.84 54.904C287.157 55.1173 286.443 55.416 285.696 55.8C285.611 55.8427 285.515 55.9173 285.408 56.024C285.323 56.088 285.237 56.1627 285.152 56.248C285.067 56.312 284.971 56.376 284.864 56.44C284.693 56.5893 284.469 56.664 284.192 56.664C283.765 56.664 283.435 56.472 283.2 56.088C283.072 55.8533 283.008 55.6293 283.008 55.416C283.008 54.9893 283.179 54.6373 283.52 54.36C284.203 53.8267 284.832 53.2187 285.408 52.536C285.984 51.8533 286.507 51.0747 286.976 50.2C287.019 50.1147 287.04 50.0613 287.04 50.04C287.04 49.8907 286.944 49.8373 286.752 49.88C286.091 49.9653 285.461 50.04 284.864 50.104C284.267 50.1467 283.712 50.1893 283.2 50.232C282.859 50.2533 282.571 50.1467 282.336 49.912C282.101 49.6773 281.984 49.3893 281.984 49.048C281.984 48.7067 282.101 48.4187 282.336 48.184C282.571 47.9493 282.859 47.8213 283.2 47.8C284.8 47.736 286.443 47.576 288.128 47.32C288.277 47.2987 288.384 47.2133 288.448 47.064C288.64 46.5093 288.832 45.9333 289.024 45.336C289.216 44.7387 289.387 44.1093 289.536 43.448C289.6 43.1707 289.749 42.9467 289.984 42.776C290.219 42.6053 290.475 42.52 290.752 42.52C291.115 42.52 291.403 42.648 291.616 42.904C291.851 43.1387 291.968 43.416 291.968 43.736C291.968 43.864 291.957 43.96 291.936 44.024C291.829 44.4293 291.712 44.824 291.584 45.208C291.477 45.592 291.36 45.9653 291.232 46.328C291.232 46.3493 291.221 46.3707 291.2 46.392C291.2 46.4133 291.2 46.4347 291.2 46.456C291.2 46.6267 291.307 46.68 291.52 46.616C292.117 46.4453 292.704 46.264 293.28 46.072C293.877 45.8587 294.443 45.6453 294.976 45.432C295.147 45.368 295.296 45.336 295.424 45.336C295.659 45.336 295.872 45.4 296.064 45.528C296.277 45.6347 296.427 45.8053 296.512 46.04C296.555 46.1253 296.576 46.2107 296.576 46.296C296.576 46.36 296.576 46.424 296.576 46.488C296.576 47.064 296.331 47.448 295.84 47.64C295.029 47.9813 294.144 48.2907 293.184 48.568C292.245 48.8453 291.285 49.0907 290.304 49.304C290.155 49.3253 290.048 49.4 289.984 49.528C289.771 49.9973 289.557 50.4453 289.344 50.872C289.131 51.2987 288.907 51.7147 288.672 52.12C288.629 52.2053 288.608 52.2587 288.608 52.28C288.608 52.3867 288.704 52.4293 288.896 52.408C289.131 52.3653 289.344 52.3333 289.536 52.312C289.749 52.2907 289.952 52.28 290.144 52.28C291.125 52.28 291.936 52.4933 292.576 52.92C293.216 53.3253 293.717 53.8373 294.08 54.456C294.187 54.6267 294.315 54.6693 294.464 54.584C295.253 54.1787 296.075 53.72 296.928 53.208C297.781 52.696 298.677 52.1093 299.616 51.448C299.829 51.2987 300.064 51.224 300.32 51.224C300.747 51.224 301.077 51.4053 301.312 51.768C301.461 51.9813 301.536 52.216 301.536 52.472C301.536 52.92 301.355 53.2613 300.992 53.496C300.267 53.9653 299.605 54.3813 299.008 54.744C298.411 55.1067 297.803 55.448 297.184 55.768C296.565 56.088 295.861 56.44 295.072 56.824C294.923 56.9093 294.859 57.0373 294.88 57.208C295.029 58.168 295.136 59.5227 295.2 61.272C295.2 61.6133 295.083 61.9013 294.848 62.136C294.613 62.3707 294.325 62.488 293.984 62.488C293.643 62.488 293.355 62.3707 293.12 62.136C292.885 61.9013 292.757 61.6133 292.736 61.272C292.715 60.7173 292.693 60.216 292.672 59.768C292.651 59.2987 292.619 58.872 292.576 58.488C292.576 58.232 292.459 58.168 292.224 58.296C290.453 59.2347 289.173 60.0987 288.384 60.888C287.595 61.656 287.2 62.3707 287.2 63.032C287.2 63.224 287.232 63.416 287.296 63.608C287.488 64.0773 287.851 64.4293 288.384 64.664C288.917 64.8987 289.856 65.016 291.2 65.016C292.971 65.016 295.861 64.7813 299.872 64.312ZM318.848 57.432C318.528 57.624 318.197 57.816 317.856 58.008C317.515 58.2 317.152 58.3813 316.768 58.552C316.683 58.5733 316.64 58.648 316.64 58.776V67.64C316.64 67.9813 316.523 68.2693 316.288 68.504C316.053 68.7387 315.765 68.856 315.424 68.856C315.083 68.856 314.795 68.7387 314.56 68.504C314.347 68.2693 314.24 67.9813 314.24 67.64V59.832C314.24 59.6827 314.165 59.6293 314.016 59.672C313.632 59.8213 313.248 59.96 312.864 60.088C312.48 60.1947 312.075 60.3013 311.648 60.408C311.584 60.4293 311.499 60.44 311.392 60.44C311.093 60.44 310.827 60.3227 310.592 60.088C310.357 59.8533 310.24 59.576 310.24 59.256C310.24 58.9573 310.325 58.7013 310.496 58.488C310.688 58.2533 310.923 58.104 311.2 58.04C311.755 57.8907 312.267 57.7413 312.736 57.592C313.227 57.4427 313.675 57.2933 314.08 57.144C314.187 57.1227 314.24 57.048 314.24 56.92V49.656C314.24 49.528 314.176 49.464 314.048 49.464H311.648C311.328 49.464 311.051 49.3467 310.816 49.112C310.603 48.8773 310.496 48.6 310.496 48.28C310.496 47.96 310.603 47.6827 310.816 47.448C311.051 47.2133 311.328 47.096 311.648 47.096H314.048C314.176 47.096 314.24 47.032 314.24 46.904V42.52C314.24 42.1787 314.347 41.8907 314.56 41.656C314.795 41.4213 315.083 41.304 315.424 41.304C315.765 41.304 316.053 41.4213 316.288 41.656C316.523 41.8907 316.64 42.1787 316.64 42.52V46.904C316.64 47.032 316.704 47.096 316.832 47.096H318.688C319.029 47.096 319.307 47.2133 319.52 47.448C319.755 47.6827 319.872 47.96 319.872 48.28C319.872 48.6 319.755 48.8773 319.52 49.112C319.307 49.3467 319.029 49.464 318.688 49.464H316.832C316.704 49.464 316.64 49.528 316.64 49.656V55.704C316.64 55.768 316.661 55.8213 316.704 55.864C316.747 55.8853 316.8 55.8747 316.864 55.832L317.952 55.192C318.123 55.0853 318.293 55.032 318.464 55.032C318.891 55.032 319.211 55.2453 319.424 55.672C319.488 55.8213 319.52 56.0027 319.52 56.216C319.52 56.4507 319.467 56.6853 319.36 56.92C319.253 57.1333 319.083 57.304 318.848 57.432ZM318.592 52.248C318.592 51.6507 318.88 51.1707 319.456 50.808C320.608 50.168 321.536 49.2933 322.24 48.184C322.944 47.0533 323.403 45.5067 323.616 43.544C323.68 43.0107 323.904 42.5627 324.288 42.2C324.672 41.8373 325.131 41.656 325.664 41.656H330.464C330.997 41.656 331.445 41.8373 331.808 42.2C332.192 42.5627 332.384 43.0213 332.384 43.576V49.016C332.384 49.336 332.491 49.5387 332.704 49.624C332.939 49.688 333.397 49.72 334.08 49.72H335.744C336.064 49.72 336.331 49.8373 336.544 50.072C336.779 50.2853 336.896 50.552 336.896 50.872C336.896 51.192 336.779 51.4693 336.544 51.704C336.331 51.9173 336.064 52.024 335.744 52.024H333.888C332.672 52.024 331.723 51.7893 331.04 51.32C330.357 50.8293 330.016 50.0613 330.016 49.016V44.088C330.016 43.96 329.952 43.896 329.824 43.896H326.176C326.069 43.896 325.995 43.96 325.952 44.088C325.739 46.3707 325.173 48.2693 324.256 49.784C323.339 51.2987 321.995 52.4933 320.224 53.368C320.075 53.4533 319.925 53.496 319.776 53.496C319.477 53.496 319.2 53.3787 318.944 53.144C318.709 52.888 318.592 52.5893 318.592 52.248ZM336.544 66.2C336.843 66.264 337.077 66.4133 337.248 66.648C337.419 66.8613 337.504 67.1067 337.504 67.384C337.504 67.7467 337.387 68.0453 337.152 68.28C336.917 68.536 336.64 68.664 336.32 68.664C336.256 68.664 336.192 68.6533 336.128 68.632C336.085 68.632 336.032 68.6213 335.968 68.6C334.411 68.1947 332.96 67.64 331.616 66.936C330.293 66.232 329.088 65.4427 328 64.568C327.915 64.504 327.829 64.504 327.744 64.568C326.315 65.592 324.832 66.4347 323.296 67.096C321.781 67.7787 320.352 68.312 319.008 68.696C318.944 68.7173 318.848 68.728 318.72 68.728C318.421 68.728 318.155 68.6107 317.92 68.376C317.685 68.1413 317.568 67.8533 317.568 67.512C317.568 67.256 317.653 67.0213 317.824 66.808C317.995 66.5947 318.219 66.4453 318.496 66.36C319.861 65.9973 321.163 65.528 322.4 64.952C323.637 64.3547 324.789 63.6933 325.856 62.968C325.963 62.8613 325.963 62.7653 325.856 62.68C325.152 61.9547 324.512 61.2187 323.936 60.472C323.381 59.704 322.912 58.9573 322.528 58.232C322.443 58.0827 322.4 57.912 322.4 57.72C322.4 57.5067 322.464 57.3147 322.592 57.144C322.72 56.952 322.891 56.8133 323.104 56.728C323.275 56.664 323.435 56.632 323.584 56.632C324.096 56.632 324.469 56.856 324.704 57.304C325.131 58.0293 325.6 58.7333 326.112 59.416C326.624 60.0773 327.168 60.6853 327.744 61.24C327.829 61.3253 327.915 61.3253 328 61.24C329.557 59.832 330.763 58.3173 331.616 56.696C331.659 56.632 331.659 56.5787 331.616 56.536C331.595 56.4933 331.552 56.472 331.488 56.472H320.8C320.48 56.472 320.213 56.3653 320 56.152C319.787 55.9173 319.68 55.64 319.68 55.32C319.68 55.0213 319.787 54.7653 320 54.552C320.213 54.3173 320.48 54.2 320.8 54.2H333.152C333.557 54.2 333.899 54.3387 334.176 54.616C334.453 54.872 334.592 55.1813 334.592 55.544C334.592 55.6933 334.56 55.8533 334.496 56.024C334.005 57.3893 333.355 58.6373 332.544 59.768C331.755 60.8773 330.869 61.8907 329.888 62.808C329.76 62.8933 329.771 62.9787 329.92 63.064C330.923 63.7893 331.989 64.4187 333.12 64.952C334.251 65.4853 335.392 65.9013 336.544 66.2ZM361.664 43.416C361.664 43.544 361.728 43.608 361.856 43.608H368.288C368.608 43.608 368.875 43.7253 369.088 43.96C369.323 44.1733 369.44 44.44 369.44 44.76C369.44 45.08 369.323 45.3573 369.088 45.592C368.875 45.8053 368.608 45.912 368.288 45.912H352.64C352.32 45.912 352.043 45.8053 351.808 45.592C351.595 45.3573 351.488 45.08 351.488 44.76C351.488 44.44 351.595 44.1733 351.808 43.96C352.043 43.7253 352.32 43.608 352.64 43.608H359.104C359.232 43.608 359.296 43.544 359.296 43.416V42.296C359.296 41.976 359.403 41.6987 359.616 41.464C359.851 41.2293 360.139 41.112 360.48 41.112C360.8 41.112 361.077 41.2293 361.312 41.464C361.547 41.6987 361.664 41.976 361.664 42.296V43.416ZM349.024 49.464C349.024 49.592 349.088 49.656 349.216 49.656H351.072C351.392 49.656 351.659 49.7733 351.872 50.008C352.107 50.2213 352.224 50.4773 352.224 50.776C352.224 51.096 352.107 51.3733 351.872 51.608C351.659 51.8213 351.392 51.928 351.072 51.928H349.024V51.96C349.728 52.7493 350.304 53.6667 350.752 54.712C351.221 55.7573 351.573 56.856 351.808 58.008C351.829 58.072 351.84 58.168 351.84 58.296C351.84 58.8933 351.552 59.2987 350.976 59.512C350.848 59.5547 350.741 59.576 350.656 59.576C350.443 59.576 350.24 59.5013 350.048 59.352C349.877 59.2027 349.771 59.0107 349.728 58.776C349.664 58.4133 349.589 58.0827 349.504 57.784C349.44 57.464 349.355 57.1547 349.248 56.856C349.227 56.7707 349.184 56.7387 349.12 56.76C349.056 56.7813 349.024 56.8347 349.024 56.92V67.672C349.024 67.992 348.907 68.2587 348.672 68.472C348.459 68.7067 348.192 68.824 347.872 68.824C347.552 68.824 347.275 68.7067 347.04 68.472C346.805 68.2587 346.688 67.992 346.688 67.672V58.488C346.688 58.3813 346.656 58.328 346.592 58.328C346.549 58.3067 346.507 58.3387 346.464 58.424C346.144 59.1067 345.781 59.7893 345.376 60.472C344.971 61.1547 344.523 61.8267 344.032 62.488C343.84 62.744 343.584 62.872 343.264 62.872C342.987 62.872 342.752 62.776 342.56 62.584C342.325 62.3493 342.208 62.0613 342.208 61.72C342.208 61.464 342.293 61.2187 342.464 60.984C343.531 59.512 344.373 58.008 344.992 56.472C345.611 54.936 346.027 53.4853 346.24 52.12C346.283 51.992 346.219 51.928 346.048 51.928H343.616C343.296 51.928 343.019 51.8213 342.784 51.608C342.571 51.3733 342.464 51.096 342.464 50.776C342.464 50.4773 342.571 50.2213 342.784 50.008C343.019 49.7733 343.296 49.656 343.616 49.656H346.496C346.624 49.656 346.688 49.592 346.688 49.464V45.464C346.688 45.3147 346.613 45.2507 346.464 45.272C346.08 45.3573 345.696 45.4213 345.312 45.464C344.949 45.5067 344.587 45.5493 344.224 45.592C343.925 45.6133 343.659 45.5173 343.424 45.304C343.189 45.0907 343.072 44.8347 343.072 44.536C343.072 44.1947 343.179 43.9067 343.392 43.672C343.627 43.416 343.904 43.2773 344.224 43.256C345.056 43.1493 346.005 43 347.072 42.808C348.16 42.616 349.152 42.3707 350.048 42.072C350.176 42.0293 350.283 42.008 350.368 42.008C350.603 42.008 350.816 42.0827 351.008 42.232C351.2 42.36 351.317 42.5413 351.36 42.776C351.381 42.84 351.392 42.936 351.392 43.064C351.392 43.3413 351.307 43.5973 351.136 43.832C350.987 44.0667 350.773 44.2373 350.496 44.344C350.283 44.408 350.069 44.472 349.856 44.536C349.643 44.6 349.419 44.664 349.184 44.728C349.077 44.7707 349.024 44.8347 349.024 44.92V49.464ZM363.936 53.816H357.024C356.533 53.816 356.117 53.6453 355.776 53.304C355.435 52.9413 355.264 52.5253 355.264 52.056V49.176C355.264 48.6853 355.435 48.2693 355.776 47.928C356.117 47.5867 356.533 47.416 357.024 47.416H363.936C364.427 47.416 364.843 47.5867 365.184 47.928C365.525 48.2693 365.696 48.6853 365.696 49.176V52.056C365.696 52.5253 365.525 52.9413 365.184 53.304C364.843 53.6453 364.427 53.816 363.936 53.816ZM363.424 49.784C363.424 49.656 363.36 49.592 363.232 49.592H357.728C357.6 49.592 357.536 49.656 357.536 49.784V51.448C357.536 51.576 357.6 51.64 357.728 51.64H363.232C363.36 51.64 363.424 51.576 363.424 51.448V49.784ZM354.112 55.384H366.816C367.307 55.384 367.723 55.5547 368.064 55.896C368.405 56.2373 368.576 56.6533 368.576 57.144V65.944C368.576 66.9893 368.299 67.736 367.744 68.184C367.211 68.6533 366.261 68.8773 364.896 68.856C364.576 68.8347 364.299 68.7067 364.064 68.472C363.851 68.2373 363.744 67.96 363.744 67.64C363.744 67.2987 363.861 67.0213 364.096 66.808C364.352 66.5733 364.651 66.4773 364.992 66.52C365.099 66.5413 365.195 66.552 365.28 66.552C365.365 66.552 365.44 66.552 365.504 66.552C365.867 66.552 366.08 66.4987 366.144 66.392C366.208 66.2853 366.24 66.136 366.24 65.944V57.848C366.24 57.72 366.176 57.656 366.048 57.656H354.88C354.752 57.656 354.688 57.72 354.688 57.848V67.672C354.688 67.992 354.571 68.2693 354.336 68.504C354.123 68.7387 353.856 68.856 353.536 68.856C353.216 68.856 352.939 68.7387 352.704 68.504C352.469 68.2693 352.352 67.992 352.352 67.672V57.144C352.352 56.6533 352.523 56.2373 352.864 55.896C353.227 55.5547 353.643 55.384 354.112 55.384ZM364.544 60.888V63.704C364.544 64.1733 364.373 64.5893 364.032 64.952C363.691 65.2933 363.275 65.464 362.784 65.464H358.176C357.685 65.464 357.269 65.2933 356.928 64.952C356.587 64.5893 356.416 64.1733 356.416 63.704V60.888C356.416 60.3973 356.587 59.9813 356.928 59.64C357.269 59.2987 357.685 59.128 358.176 59.128H362.784C363.275 59.128 363.691 59.2987 364.032 59.64C364.373 59.9813 364.544 60.3973 364.544 60.888ZM358.56 63.224C358.56 63.352 358.624 63.416 358.752 63.416H362.176C362.304 63.416 362.368 63.352 362.368 63.224V61.368C362.368 61.24 362.304 61.176 362.176 61.176H358.752C358.624 61.176 358.56 61.24 358.56 61.368V63.224ZM398.816 46.456C399.115 46.52 399.36 46.6693 399.552 46.904C399.744 47.1173 399.84 47.3733 399.84 47.672C399.84 48.0347 399.712 48.3333 399.456 48.568C399.2 48.7813 398.901 48.8667 398.56 48.824C398.027 48.7387 397.461 48.6853 396.864 48.664C396.288 48.6213 395.691 48.6 395.072 48.6C394.453 48.6 393.824 48.6107 393.184 48.632C392.565 48.6533 391.925 48.6853 391.264 48.728C391.072 48.7493 390.976 48.856 390.976 49.048V54.072C390.976 54.136 390.976 54.2 390.976 54.264C390.997 54.3067 391.019 54.36 391.04 54.424C391.573 55.64 391.84 56.952 391.84 58.36C391.84 59.4693 391.648 60.568 391.264 61.656C390.88 62.7227 390.304 63.6933 389.536 64.568C388.768 65.4213 387.797 66.1253 386.624 66.68C385.451 67.2133 384.075 67.512 382.496 67.576C382.176 67.5973 381.888 67.4907 381.632 67.256C381.397 67.0213 381.28 66.7333 381.28 66.392C381.28 66.0293 381.408 65.7307 381.664 65.496C381.92 65.24 382.219 65.112 382.56 65.112C383.797 65.0907 384.928 64.8347 385.952 64.344C386.976 63.8533 387.808 63.1707 388.448 62.296C389.088 61.4213 389.451 60.4187 389.536 59.288C389.536 59.096 389.451 59 389.28 59C389.195 59 389.12 59.0427 389.056 59.128C388.651 59.5973 388.203 59.9387 387.712 60.152C387.221 60.3653 386.731 60.472 386.24 60.472C385.6 60.472 384.981 60.3227 384.384 60.024C383.808 59.704 383.317 59.2773 382.912 58.744C382.507 58.2107 382.261 57.592 382.176 56.888C382.155 56.7813 382.144 56.6747 382.144 56.568C382.144 56.4613 382.144 56.3547 382.144 56.248C382.144 55.3947 382.325 54.6267 382.688 53.944C383.051 53.2613 383.541 52.7173 384.16 52.312C384.779 51.9067 385.461 51.704 386.208 51.704C386.549 51.704 386.901 51.7467 387.264 51.832C387.627 51.9173 387.989 52.0667 388.352 52.28C388.395 52.3013 388.448 52.312 388.512 52.312C388.64 52.312 388.704 52.2267 388.704 52.056L388.672 49.208C388.672 48.9947 388.576 48.9093 388.384 48.952C387.083 49.0373 385.803 49.1333 384.544 49.24C383.285 49.3253 382.08 49.368 380.928 49.368C380.267 49.368 379.616 49.3467 378.976 49.304C378.357 49.2613 377.771 49.1973 377.216 49.112C376.896 49.0693 376.64 48.92 376.448 48.664C376.256 48.408 376.16 48.1307 376.16 47.832C376.16 47.4693 376.288 47.1813 376.544 46.968C376.821 46.7547 377.12 46.6693 377.44 46.712C378.059 46.7973 378.699 46.8613 379.36 46.904C380.021 46.9467 380.693 46.968 381.376 46.968C382.507 46.968 383.659 46.9253 384.832 46.84C386.027 46.7547 387.211 46.6587 388.384 46.552C388.576 46.5093 388.672 46.4027 388.672 46.232L388.64 43.384C388.619 43.064 388.725 42.7867 388.96 42.552C389.195 42.3173 389.472 42.2 389.792 42.2C390.133 42.2 390.411 42.3173 390.624 42.552C390.859 42.7867 390.976 43.064 390.976 43.384V46.072C390.976 46.2853 391.093 46.3707 391.328 46.328C391.947 46.2853 392.555 46.2533 393.152 46.232C393.771 46.1893 394.379 46.168 394.976 46.168C396.32 46.168 397.6 46.264 398.816 46.456ZM384.576 56.952C384.704 57.2933 384.939 57.5813 385.28 57.816C385.643 58.0507 386.027 58.168 386.432 58.168C386.944 58.168 387.424 57.9333 387.872 57.464C388.32 56.9947 388.555 56.1947 388.576 55.064C388.576 54.9573 388.544 54.84 388.48 54.712C388.224 54.3493 387.925 54.0933 387.584 53.944C387.264 53.7947 386.933 53.72 386.592 53.72C386.016 53.72 385.504 53.9227 385.056 54.328C384.629 54.712 384.416 55.2453 384.416 55.928C384.416 56.0773 384.427 56.248 384.448 56.44C384.469 56.6107 384.512 56.7813 384.576 56.952ZM419.552 67.64C418.187 67.64 417.099 67.448 416.288 67.064C415.499 66.68 414.933 66.1893 414.592 65.592C414.251 64.9947 414.08 64.3973 414.08 63.8C414.08 63.1387 414.229 62.5413 414.528 62.008C414.848 61.432 415.211 61.016 415.616 60.76C416.021 60.504 416.448 60.376 416.896 60.376C417.493 60.376 418.123 60.5787 418.784 60.984C419.445 61.368 420.117 61.8907 420.8 62.552C421.504 63.192 422.176 63.9067 422.816 64.696C422.901 64.824 423.029 64.8667 423.2 64.824C423.989 64.5253 424.725 64.1413 425.408 63.672C426.091 63.2027 426.667 62.6373 427.136 61.976C427.648 61.208 427.904 60.376 427.904 59.48C427.904 58.456 427.541 57.5173 426.816 56.664C426.112 55.8107 425.024 55.2987 423.552 55.128C423.339 55.0853 423.125 55.064 422.912 55.064C422.72 55.064 422.517 55.064 422.304 55.064C420.491 55.064 418.763 55.4907 417.12 56.344C415.499 57.1973 413.877 58.3493 412.256 59.8C412.021 60.0133 411.723 60.12 411.36 60.12C411.104 60.12 410.88 60.056 410.688 59.928C410.389 59.736 410.24 59.4587 410.24 59.096C410.24 58.904 410.293 58.7227 410.4 58.552C411.808 56.4613 413.269 54.4133 414.784 52.408C416.32 50.4027 417.867 48.5893 419.424 46.968C419.488 46.904 419.52 46.84 419.52 46.776C419.52 46.6907 419.435 46.6587 419.264 46.68C418.667 46.7653 417.963 46.84 417.152 46.904C416.363 46.968 415.552 47 414.72 47C414.443 47 414.176 47 413.92 47C413.664 47 413.408 46.9893 413.152 46.968C412.832 46.9467 412.565 46.8187 412.352 46.584C412.139 46.328 412.032 46.04 412.032 45.72C412.032 45.3787 412.16 45.0907 412.416 44.856C412.693 44.6213 413.003 44.5147 413.344 44.536C414.219 44.6 415.061 44.632 415.872 44.632C416.96 44.632 417.995 44.568 418.976 44.44C419.979 44.312 420.96 44.088 421.92 43.768C422.005 43.7253 422.08 43.704 422.144 43.704C422.229 43.704 422.315 43.704 422.4 43.704C422.635 43.704 422.859 43.768 423.072 43.896C423.307 44.024 423.467 44.2053 423.552 44.44C423.659 44.696 423.712 44.9307 423.712 45.144C423.712 45.6347 423.52 46.0507 423.136 46.392C421.664 47.6933 420.352 49.0053 419.2 50.328C418.048 51.6293 416.939 53.048 415.872 54.584C415.829 54.6693 415.808 54.7227 415.808 54.744C415.808 54.9147 415.925 54.9467 416.16 54.84C417.461 54.1573 418.699 53.6667 419.872 53.368C421.067 53.0693 422.176 52.92 423.2 52.92C424.971 52.92 426.453 53.3147 427.648 54.104C428.843 54.8933 429.643 55.9493 430.048 57.272C430.261 57.9333 430.368 58.6373 430.368 59.384C430.368 60.856 429.909 62.2213 428.992 63.48C428.096 64.7387 426.837 65.752 425.216 66.52C423.595 67.2667 421.707 67.64 419.552 67.64ZM420.32 65.4C420.469 65.4 420.544 65.3467 420.544 65.24C420.544 65.1547 420.512 65.0693 420.448 64.984C419.68 64.088 419.019 63.4693 418.464 63.128C417.931 62.7867 417.493 62.616 417.152 62.616C416.853 62.616 416.629 62.712 416.48 62.904C416.331 63.096 416.256 63.3093 416.256 63.544C416.256 63.608 416.256 63.672 416.256 63.736C416.277 63.8 416.299 63.864 416.32 63.928C416.533 64.4613 417.013 64.856 417.76 65.112C418.507 65.3467 419.36 65.4427 420.32 65.4Z" fill="white"/>
<path d="M98.36 65.5H103.16V55.1875H113.72V50.5H103.16V40.1875H98.36V50.5H87.8V55.1875H98.36V65.5ZM79.8 78C78.52 78 77.4 77.5312 76.44 76.5937C75.48 75.6562 75 74.5625 75 73.3125V32.6875C75 31.4375 75.48 30.3437 76.44 29.4062C77.4 28.4687 78.52 28 79.8 28H121.4C122.68 28 123.8 28.4687 124.76 29.4062C125.72 30.3437 126.2 31.4375 126.2 32.6875V49.4844L139 36.9844V69.0156L126.2 56.5156V73.3125C126.2 74.5625 125.72 75.6562 124.76 76.5937C123.8 77.5312 122.68 78 121.4 78H79.8Z" fill="white"/>
</svg>
