<svg width="530" height="106" viewBox="0 0 530 106" fill="none" xmlns="http://www.w3.org/2000/svg">
<rect width="530" height="106" rx="53" fill="#009672"/>
<path d="M276.768 61.624C277.408 61.88 277.728 62.328 277.728 62.968C277.728 63.3093 277.611 63.5867 277.376 63.8C277.163 64.0133 276.917 64.12 276.64 64.12C276.576 64.12 276.512 64.12 276.448 64.12C276.405 64.0987 276.352 64.0773 276.288 64.056C275.157 63.608 274.08 63.032 273.056 62.328C272.032 61.6027 271.104 60.8133 270.272 59.96C269.44 59.0853 268.747 58.232 268.192 57.4C268.107 57.272 268.021 57.2827 267.936 57.432C267.339 58.3493 266.581 59.2347 265.664 60.088C264.747 60.92 263.765 61.6773 262.72 62.36C261.675 63.0213 260.661 63.5547 259.68 63.96C259.552 64.024 259.413 64.056 259.264 64.056C258.987 64.056 258.72 63.9493 258.464 63.736C258.208 63.5013 258.08 63.2027 258.08 62.84C258.08 62.2853 258.347 61.9013 258.88 61.688C259.605 61.3893 260.352 61.0053 261.12 60.536C261.909 60.0453 262.656 59.5013 263.36 58.904C264.064 58.3067 264.683 57.6987 265.216 57.08C265.749 56.4613 266.133 55.8533 266.368 55.256C266.453 55.1067 266.411 55.032 266.24 55.032H259.488C259.168 55.032 258.891 54.9253 258.656 54.712C258.421 54.4773 258.304 54.1893 258.304 53.848C258.304 53.528 258.421 53.2613 258.656 53.048C258.891 52.8133 259.168 52.696 259.488 52.696H266.432C266.56 52.696 266.624 52.632 266.624 52.504V48.824C266.624 48.696 266.56 48.632 266.432 48.632H260.736C260.395 48.632 260.107 48.5253 259.872 48.312C259.659 48.0773 259.552 47.8 259.552 47.48C259.552 47.16 259.659 46.8827 259.872 46.648C260.107 46.4133 260.395 46.296 260.736 46.296H268.192C268.277 46.296 268.352 46.264 268.416 46.2C269.099 45.5813 269.685 44.8987 270.176 44.152C270.667 43.384 271.072 42.6267 271.392 41.88C271.605 41.368 271.979 41.112 272.512 41.112C272.853 41.112 273.131 41.2293 273.344 41.464C273.579 41.6773 273.696 41.9333 273.696 42.232C273.696 42.36 273.664 42.488 273.6 42.616C273.173 43.8107 272.544 44.9627 271.712 46.072C271.605 46.2213 271.648 46.296 271.84 46.296H274.912C275.232 46.296 275.509 46.4133 275.744 46.648C275.979 46.8827 276.096 47.16 276.096 47.48C276.096 47.8 275.979 48.0773 275.744 48.312C275.509 48.5253 275.232 48.632 274.912 48.632H269.216C269.088 48.632 269.024 48.696 269.024 48.824V52.504C269.024 52.632 269.088 52.696 269.216 52.696H276.16C276.48 52.696 276.747 52.8133 276.96 53.048C277.195 53.2613 277.312 53.528 277.312 53.848C277.312 54.1893 277.195 54.4773 276.96 54.712C276.747 54.9253 276.48 55.032 276.16 55.032H269.696C269.632 55.032 269.579 55.0533 269.536 55.096C269.515 55.1387 269.525 55.192 269.568 55.256C270.037 56.1093 270.667 56.952 271.456 57.784C272.245 58.616 273.109 59.3733 274.048 60.056C274.987 60.7173 275.893 61.24 276.768 61.624ZM264.256 45.464C263.829 44.568 263.275 43.7573 262.592 43.032C262.379 42.8187 262.272 42.5627 262.272 42.264C262.272 41.9013 262.421 41.624 262.72 41.432C262.976 41.24 263.253 41.144 263.552 41.144C264 41.144 264.352 41.3253 264.608 41.688C264.949 42.0933 265.269 42.552 265.568 43.064C265.867 43.5547 266.133 44.0453 266.368 44.536C266.432 44.664 266.464 44.8133 266.464 44.984C266.464 45.2613 266.357 45.528 266.144 45.784C265.931 46.0187 265.653 46.136 265.312 46.136C264.821 46.136 264.469 45.912 264.256 45.464ZM251.488 45.016C251.211 44.952 250.976 44.8133 250.784 44.6C250.613 44.3653 250.528 44.12 250.528 43.864C250.528 43.5227 250.645 43.2453 250.88 43.032C251.115 42.7973 251.371 42.68 251.648 42.68C251.776 42.68 251.872 42.6907 251.936 42.712C252.661 42.8613 253.451 43.064 254.304 43.32C255.179 43.576 256.021 43.8747 256.832 44.216C257.109 44.3227 257.323 44.504 257.472 44.76C257.621 44.9947 257.696 45.2613 257.696 45.56C257.696 45.9013 257.589 46.168 257.376 46.36C257.163 46.552 256.928 46.648 256.672 46.648C256.608 46.648 256.544 46.648 256.48 46.648C256.416 46.6267 256.352 46.6053 256.288 46.584C255.584 46.2853 254.805 45.9973 253.952 45.72C253.099 45.4427 252.277 45.208 251.488 45.016ZM264.64 66.104H276.32C276.661 66.104 276.949 66.2213 277.184 66.456C277.419 66.6907 277.536 66.9787 277.536 67.32C277.536 67.6613 277.419 67.9493 277.184 68.184C276.949 68.4187 276.661 68.536 276.32 68.536H264.64C262.827 68.536 261.152 68.2587 259.616 67.704C258.08 67.1707 256.779 66.2853 255.712 65.048C255.627 64.92 255.541 64.92 255.456 65.048C254.965 65.688 254.389 66.328 253.728 66.968C253.067 67.5867 252.448 68.1093 251.872 68.536C251.723 68.664 251.541 68.728 251.328 68.728C250.901 68.728 250.581 68.5253 250.368 68.12C250.283 67.9493 250.24 67.7573 250.24 67.544C250.24 67.096 250.421 66.712 250.784 66.392C251.339 65.944 251.936 65.3787 252.576 64.696C253.216 63.992 253.76 63.2773 254.208 62.552C254.251 62.4667 254.272 62.392 254.272 62.328V55.352C254.272 55.224 254.208 55.16 254.08 55.16H251.68C251.339 55.16 251.051 55.0533 250.816 54.84C250.603 54.6053 250.496 54.3173 250.496 53.976C250.496 53.656 250.603 53.3787 250.816 53.144C251.051 52.9093 251.339 52.792 251.68 52.792H254.784C255.317 52.792 255.765 52.984 256.128 53.368C256.512 53.7307 256.704 54.1787 256.704 54.712V62.232C256.704 62.296 256.725 62.3707 256.768 62.456C257.643 63.8213 258.709 64.7707 259.968 65.304C261.248 65.8373 262.805 66.104 264.64 66.104ZM290.272 42.52C290.016 43.6933 289.696 44.888 289.312 46.104C288.928 47.2987 288.459 48.472 287.904 49.624C287.861 49.688 287.84 49.7733 287.84 49.88V67.64C287.84 67.96 287.723 68.2373 287.488 68.472C287.253 68.7067 286.976 68.824 286.656 68.824C286.315 68.824 286.027 68.7067 285.792 68.472C285.579 68.2373 285.472 67.96 285.472 67.64V54.008C285.472 53.9227 285.44 53.8693 285.376 53.848C285.333 53.8267 285.291 53.8587 285.248 53.944C285.056 54.1787 284.853 54.4133 284.64 54.648C284.427 54.8827 284.213 55.1173 284 55.352C283.808 55.5653 283.563 55.672 283.264 55.672C282.923 55.672 282.635 55.5227 282.4 55.224C282.208 54.968 282.112 54.68 282.112 54.36C282.112 53.9973 282.251 53.656 282.528 53.336C283.936 51.8 285.056 50.1147 285.888 48.28C286.72 46.424 287.371 44.3867 287.84 42.168C287.925 41.8693 288.085 41.624 288.32 41.432C288.555 41.24 288.821 41.144 289.12 41.144C289.483 41.144 289.781 41.2827 290.016 41.56C290.251 41.8373 290.336 42.1573 290.272 42.52ZM305.344 44.408H294.176C293.856 44.408 293.579 44.3013 293.344 44.088C293.109 43.8533 292.992 43.576 292.992 43.256C292.992 42.9147 293.109 42.6373 293.344 42.424C293.579 42.1893 293.856 42.072 294.176 42.072H305.344C305.685 42.072 305.963 42.1893 306.176 42.424C306.411 42.6373 306.528 42.9147 306.528 43.256C306.528 43.576 306.411 43.8533 306.176 44.088C305.963 44.3013 305.685 44.408 305.344 44.408ZM290.816 46.488H308.32C308.661 46.488 308.949 46.6053 309.184 46.84C309.419 47.0747 309.536 47.352 309.536 47.672C309.536 48.0133 309.419 48.3013 309.184 48.536C308.949 48.7707 308.661 48.888 308.32 48.888H290.816C290.475 48.888 290.187 48.7707 289.952 48.536C289.717 48.3013 289.6 48.0133 289.6 47.672C289.6 47.352 289.717 47.0747 289.952 46.84C290.187 46.6053 290.475 46.488 290.816 46.488ZM305.312 53.304H293.984C293.643 53.304 293.355 53.1867 293.12 52.952C292.907 52.7173 292.8 52.44 292.8 52.12C292.8 51.8 292.907 51.5227 293.12 51.288C293.355 51.0533 293.643 50.936 293.984 50.936H305.312C305.632 50.936 305.909 51.0533 306.144 51.288C306.379 51.5227 306.496 51.8 306.496 52.12C306.496 52.44 306.379 52.7173 306.144 52.952C305.909 53.1867 305.632 53.304 305.312 53.304ZM305.312 57.72H293.984C293.643 57.72 293.355 57.6133 293.12 57.4C292.907 57.1653 292.8 56.8773 292.8 56.536C292.8 56.216 292.907 55.9387 293.12 55.704C293.355 55.4693 293.643 55.352 293.984 55.352H305.312C305.632 55.352 305.909 55.4693 306.144 55.704C306.379 55.9387 306.496 56.216 306.496 56.536C306.496 56.8773 306.379 57.1653 306.144 57.4C305.909 57.6133 305.632 57.72 305.312 57.72ZM294.336 59.768H304.992C305.525 59.768 305.973 59.96 306.336 60.344C306.72 60.7067 306.912 61.1547 306.912 61.688V66.776C306.912 67.3093 306.72 67.7573 306.336 68.12C305.973 68.504 305.525 68.696 304.992 68.696H294.336C293.803 68.696 293.344 68.504 292.96 68.12C292.597 67.7573 292.416 67.3093 292.416 66.776V61.688C292.416 61.1547 292.597 60.7067 292.96 60.344C293.344 59.96 293.803 59.768 294.336 59.768ZM294.816 66.168C294.816 66.296 294.88 66.36 295.008 66.36H304.32C304.448 66.36 304.512 66.296 304.512 66.168V62.328C304.512 62.2 304.448 62.136 304.32 62.136H295.008C294.88 62.136 294.816 62.2 294.816 62.328V66.168ZM338.816 46.456C339.115 46.52 339.36 46.6693 339.552 46.904C339.744 47.1173 339.84 47.3733 339.84 47.672C339.84 48.0347 339.712 48.3333 339.456 48.568C339.2 48.7813 338.901 48.8667 338.56 48.824C338.027 48.7387 337.461 48.6853 336.864 48.664C336.288 48.6213 335.691 48.6 335.072 48.6C334.453 48.6 333.824 48.6107 333.184 48.632C332.565 48.6533 331.925 48.6853 331.264 48.728C331.072 48.7493 330.976 48.856 330.976 49.048V54.072C330.976 54.136 330.976 54.2 330.976 54.264C330.997 54.3067 331.019 54.36 331.04 54.424C331.573 55.64 331.84 56.952 331.84 58.36C331.84 59.4693 331.648 60.568 331.264 61.656C330.88 62.7227 330.304 63.6933 329.536 64.568C328.768 65.4213 327.797 66.1253 326.624 66.68C325.451 67.2133 324.075 67.512 322.496 67.576C322.176 67.5973 321.888 67.4907 321.632 67.256C321.397 67.0213 321.28 66.7333 321.28 66.392C321.28 66.0293 321.408 65.7307 321.664 65.496C321.92 65.24 322.219 65.112 322.56 65.112C323.797 65.0907 324.928 64.8347 325.952 64.344C326.976 63.8533 327.808 63.1707 328.448 62.296C329.088 61.4213 329.451 60.4187 329.536 59.288C329.536 59.096 329.451 59 329.28 59C329.195 59 329.12 59.0427 329.056 59.128C328.651 59.5973 328.203 59.9387 327.712 60.152C327.221 60.3653 326.731 60.472 326.24 60.472C325.6 60.472 324.981 60.3227 324.384 60.024C323.808 59.704 323.317 59.2773 322.912 58.744C322.507 58.2107 322.261 57.592 322.176 56.888C322.155 56.7813 322.144 56.6747 322.144 56.568C322.144 56.4613 322.144 56.3547 322.144 56.248C322.144 55.3947 322.325 54.6267 322.688 53.944C323.051 53.2613 323.541 52.7173 324.16 52.312C324.779 51.9067 325.461 51.704 326.208 51.704C326.549 51.704 326.901 51.7467 327.264 51.832C327.627 51.9173 327.989 52.0667 328.352 52.28C328.395 52.3013 328.448 52.312 328.512 52.312C328.64 52.312 328.704 52.2267 328.704 52.056L328.672 49.208C328.672 48.9947 328.576 48.9093 328.384 48.952C327.083 49.0373 325.803 49.1333 324.544 49.24C323.285 49.3253 322.08 49.368 320.928 49.368C320.267 49.368 319.616 49.3467 318.976 49.304C318.357 49.2613 317.771 49.1973 317.216 49.112C316.896 49.0693 316.64 48.92 316.448 48.664C316.256 48.408 316.16 48.1307 316.16 47.832C316.16 47.4693 316.288 47.1813 316.544 46.968C316.821 46.7547 317.12 46.6693 317.44 46.712C318.059 46.7973 318.699 46.8613 319.36 46.904C320.021 46.9467 320.693 46.968 321.376 46.968C322.507 46.968 323.659 46.9253 324.832 46.84C326.027 46.7547 327.211 46.6587 328.384 46.552C328.576 46.5093 328.672 46.4027 328.672 46.232L328.64 43.384C328.619 43.064 328.725 42.7867 328.96 42.552C329.195 42.3173 329.472 42.2 329.792 42.2C330.133 42.2 330.411 42.3173 330.624 42.552C330.859 42.7867 330.976 43.064 330.976 43.384V46.072C330.976 46.2853 331.093 46.3707 331.328 46.328C331.947 46.2853 332.555 46.2533 333.152 46.232C333.771 46.1893 334.379 46.168 334.976 46.168C336.32 46.168 337.6 46.264 338.816 46.456ZM324.576 56.952C324.704 57.2933 324.939 57.5813 325.28 57.816C325.643 58.0507 326.027 58.168 326.432 58.168C326.944 58.168 327.424 57.9333 327.872 57.464C328.32 56.9947 328.555 56.1947 328.576 55.064C328.576 54.9573 328.544 54.84 328.48 54.712C328.224 54.3493 327.925 54.0933 327.584 53.944C327.264 53.7947 326.933 53.72 326.592 53.72C326.016 53.72 325.504 53.9227 325.056 54.328C324.629 54.712 324.416 55.2453 324.416 55.928C324.416 56.0773 324.427 56.248 324.448 56.44C324.469 56.6107 324.512 56.7813 324.576 56.952ZM359.552 67.64C358.187 67.64 357.099 67.448 356.288 67.064C355.499 66.68 354.933 66.1893 354.592 65.592C354.251 64.9947 354.08 64.3973 354.08 63.8C354.08 63.1387 354.229 62.5413 354.528 62.008C354.848 61.432 355.211 61.016 355.616 60.76C356.021 60.504 356.448 60.376 356.896 60.376C357.493 60.376 358.123 60.5787 358.784 60.984C359.445 61.368 360.117 61.8907 360.8 62.552C361.504 63.192 362.176 63.9067 362.816 64.696C362.901 64.824 363.029 64.8667 363.2 64.824C363.989 64.5253 364.725 64.1413 365.408 63.672C366.091 63.2027 366.667 62.6373 367.136 61.976C367.648 61.208 367.904 60.376 367.904 59.48C367.904 58.456 367.541 57.5173 366.816 56.664C366.112 55.8107 365.024 55.2987 363.552 55.128C363.339 55.0853 363.125 55.064 362.912 55.064C362.72 55.064 362.517 55.064 362.304 55.064C360.491 55.064 358.763 55.4907 357.12 56.344C355.499 57.1973 353.877 58.3493 352.256 59.8C352.021 60.0133 351.723 60.12 351.36 60.12C351.104 60.12 350.88 60.056 350.688 59.928C350.389 59.736 350.24 59.4587 350.24 59.096C350.24 58.904 350.293 58.7227 350.4 58.552C351.808 56.4613 353.269 54.4133 354.784 52.408C356.32 50.4027 357.867 48.5893 359.424 46.968C359.488 46.904 359.52 46.84 359.52 46.776C359.52 46.6907 359.435 46.6587 359.264 46.68C358.667 46.7653 357.963 46.84 357.152 46.904C356.363 46.968 355.552 47 354.72 47C354.443 47 354.176 47 353.92 47C353.664 47 353.408 46.9893 353.152 46.968C352.832 46.9467 352.565 46.8187 352.352 46.584C352.139 46.328 352.032 46.04 352.032 45.72C352.032 45.3787 352.16 45.0907 352.416 44.856C352.693 44.6213 353.003 44.5147 353.344 44.536C354.219 44.6 355.061 44.632 355.872 44.632C356.96 44.632 357.995 44.568 358.976 44.44C359.979 44.312 360.96 44.088 361.92 43.768C362.005 43.7253 362.08 43.704 362.144 43.704C362.229 43.704 362.315 43.704 362.4 43.704C362.635 43.704 362.859 43.768 363.072 43.896C363.307 44.024 363.467 44.2053 363.552 44.44C363.659 44.696 363.712 44.9307 363.712 45.144C363.712 45.6347 363.52 46.0507 363.136 46.392C361.664 47.6933 360.352 49.0053 359.2 50.328C358.048 51.6293 356.939 53.048 355.872 54.584C355.829 54.6693 355.808 54.7227 355.808 54.744C355.808 54.9147 355.925 54.9467 356.16 54.84C357.461 54.1573 358.699 53.6667 359.872 53.368C361.067 53.0693 362.176 52.92 363.2 52.92C364.971 52.92 366.453 53.3147 367.648 54.104C368.843 54.8933 369.643 55.9493 370.048 57.272C370.261 57.9333 370.368 58.6373 370.368 59.384C370.368 60.856 369.909 62.2213 368.992 63.48C368.096 64.7387 366.837 65.752 365.216 66.52C363.595 67.2667 361.707 67.64 359.552 67.64ZM360.32 65.4C360.469 65.4 360.544 65.3467 360.544 65.24C360.544 65.1547 360.512 65.0693 360.448 64.984C359.68 64.088 359.019 63.4693 358.464 63.128C357.931 62.7867 357.493 62.616 357.152 62.616C356.853 62.616 356.629 62.712 356.48 62.904C356.331 63.096 356.256 63.3093 356.256 63.544C356.256 63.608 356.256 63.672 356.256 63.736C356.277 63.8 356.299 63.864 356.32 63.928C356.533 64.4613 357.013 64.856 357.76 65.112C358.507 65.3467 359.36 65.4427 360.32 65.4Z" fill="white"/>
<path d="M97 76V58.3906L118.855 53L97 47.4656V30L152 53L97 76Z" fill="white"/>
</svg>
