<svg width="530" height="106" viewBox="0 0 530 106" fill="none" xmlns="http://www.w3.org/2000/svg">
<rect width="530" height="106" rx="53" fill="#FF95E1"/>
<path d="M243.584 67.32C243.435 67.384 243.264 67.416 243.072 67.416C242.795 67.416 242.517 67.3093 242.24 67.096C241.984 66.8827 241.856 66.5733 241.856 66.168C241.856 65.6347 242.112 65.2293 242.624 64.952C246.528 63.0747 249.461 60.472 251.424 57.144C253.387 53.816 254.539 49.6133 254.88 44.536C254.923 44.216 255.061 43.9493 255.296 43.736C255.531 43.5227 255.808 43.416 256.128 43.416C256.512 43.416 256.832 43.5653 257.088 43.864C257.344 44.1627 257.461 44.504 257.44 44.888C256.971 50.5627 255.595 55.2347 253.312 58.904C251.029 62.5733 247.787 65.3787 243.584 67.32ZM243.04 55.192C242.165 54.2533 241.355 53.1013 240.608 51.736C239.861 50.3707 239.253 49.0053 238.784 47.64C238.763 47.576 238.741 47.512 238.72 47.448C238.72 47.384 238.72 47.32 238.72 47.256C238.72 46.6587 239.019 46.2533 239.616 46.04C239.68 46.0187 239.733 46.008 239.776 46.008C239.84 45.9867 239.904 45.976 239.968 45.976C240.245 45.976 240.501 46.0613 240.736 46.232C240.971 46.4027 241.131 46.6267 241.216 46.904C241.643 48.2053 242.155 49.4 242.752 50.488C243.349 51.5547 244.011 52.4933 244.736 53.304C244.971 53.5813 245.088 53.9013 245.088 54.264C245.088 54.584 244.981 54.8613 244.768 55.096C244.512 55.3733 244.203 55.512 243.84 55.512C243.52 55.512 243.253 55.4053 243.04 55.192ZM290.176 60.12C289.045 61.592 287.904 62.6907 286.752 63.416C285.621 64.1413 284.587 64.504 283.648 64.504C282.539 64.504 281.632 64.024 280.928 63.064C280.224 62.0827 279.883 60.6213 279.904 58.68V46.552C279.904 46.1893 280.021 45.8907 280.256 45.656C280.512 45.4 280.811 45.272 281.152 45.272C281.515 45.272 281.813 45.4 282.048 45.656C282.304 45.8907 282.432 46.1893 282.432 46.552V58.392C282.432 60.696 282.923 61.848 283.904 61.848C284.416 61.848 285.035 61.56 285.76 60.984C286.507 60.408 287.339 59.5653 288.256 58.456C289.472 57.048 290.517 55.416 291.392 53.56C291.627 53.048 292.032 52.792 292.608 52.792C292.971 52.792 293.269 52.92 293.504 53.176C293.739 53.432 293.856 53.72 293.856 54.04C293.856 54.232 293.813 54.4027 293.728 54.552C293.216 55.5973 292.651 56.5893 292.032 57.528C291.435 58.4453 290.816 59.3093 290.176 60.12ZM268.928 66.904C268.736 67.032 268.533 67.096 268.32 67.096C267.893 67.096 267.563 66.904 267.328 66.52C267.221 66.3067 267.168 66.104 267.168 65.912C267.168 65.464 267.339 65.1013 267.68 64.824C269.088 63.7147 270.229 62.4453 271.104 61.016C271.979 59.5867 272.619 57.88 273.024 55.896C273.451 53.8907 273.664 51.512 273.664 48.76C273.664 48.4187 273.781 48.1307 274.016 47.896C274.251 47.6613 274.528 47.544 274.848 47.544C275.211 47.544 275.52 47.672 275.776 47.928C276.032 48.1627 276.149 48.4613 276.128 48.824C276.021 51.384 275.808 53.6133 275.488 55.512C275.189 57.3893 274.752 59.0213 274.176 60.408C273.621 61.7947 272.907 63.0107 272.032 64.056C271.179 65.1013 270.144 66.0507 268.928 66.904ZM323.296 47.192C322.379 47.192 321.579 46.8613 320.896 46.2C320.235 45.5173 319.904 44.7173 319.904 43.8C319.904 42.8613 320.235 42.0613 320.896 41.4C321.579 40.7387 322.379 40.408 323.296 40.408C324.235 40.408 325.035 40.7387 325.696 41.4C326.357 42.0613 326.688 42.8613 326.688 43.8C326.688 44.7173 326.357 45.5173 325.696 46.2C325.035 46.8613 324.235 47.192 323.296 47.192ZM323.296 45.912C323.893 45.912 324.395 45.7093 324.8 45.304C325.205 44.8773 325.408 44.376 325.408 43.8C325.408 43.2027 325.205 42.7013 324.8 42.296C324.395 41.8907 323.893 41.688 323.296 41.688C322.72 41.688 322.219 41.8907 321.792 42.296C321.387 42.7013 321.184 43.2027 321.184 43.8C321.184 44.376 321.387 44.8773 321.792 45.304C322.219 45.7093 322.72 45.912 323.296 45.912ZM306.304 67.256C306.155 67.32 306.005 67.352 305.856 67.352C305.28 67.352 304.885 67.0853 304.672 66.552C304.608 66.3813 304.576 66.2213 304.576 66.072C304.576 65.5387 304.843 65.144 305.376 64.888C308.789 63.4373 311.52 61.6667 313.568 59.576C315.637 57.4853 317.131 54.904 318.048 51.832C318.176 51.4053 318.272 51.0107 318.336 50.648C318.421 50.264 318.464 49.9333 318.464 49.656C318.464 49.016 318.261 48.536 317.856 48.216C317.472 47.896 316.832 47.6827 315.936 47.576C315.467 47.5333 314.987 47.5013 314.496 47.48C314.027 47.4373 313.536 47.416 313.024 47.416C311.403 47.416 309.696 47.5333 307.904 47.768C306.112 48.0027 304.256 48.3333 302.336 48.76C301.995 48.824 301.675 48.7493 301.376 48.536C301.077 48.3013 300.928 48.0027 300.928 47.64C300.928 47.2773 301.024 46.968 301.216 46.712C301.408 46.456 301.675 46.2853 302.016 46.2C303.104 45.9653 304.299 45.7627 305.6 45.592C306.901 45.4213 308.224 45.2933 309.568 45.208C310.912 45.1013 312.171 45.048 313.344 45.048C313.899 45.048 314.432 45.0693 314.944 45.112C315.456 45.1333 315.925 45.1653 316.352 45.208C317.589 45.3573 318.539 45.656 319.2 46.104C319.861 46.552 320.32 47.0853 320.576 47.704C320.853 48.3227 320.992 48.9733 320.992 49.656C320.992 50.1467 320.939 50.648 320.832 51.16C320.725 51.6507 320.608 52.1093 320.48 52.536C319.435 55.9493 317.76 58.8507 315.456 61.24C313.152 63.6293 310.101 65.6347 306.304 67.256ZM341.12 67.928C340.992 67.992 340.843 68.024 340.672 68.024C340.373 68.024 340.096 67.9067 339.84 67.672C339.584 67.4373 339.456 67.1387 339.456 66.776C339.456 66.1573 339.733 65.7307 340.288 65.496C342.507 64.4507 344.213 63.256 345.408 61.912C346.603 60.568 347.424 59.0853 347.872 57.464C348.341 55.8427 348.576 54.136 348.576 52.344C348.576 50.9573 348.48 49.528 348.288 48.056C348.117 46.584 347.925 45.0907 347.712 43.576C347.669 43.2133 347.765 42.904 348 42.648C348.235 42.392 348.523 42.264 348.864 42.264C349.163 42.264 349.429 42.3493 349.664 42.52C349.899 42.6693 350.048 42.8933 350.112 43.192C350.347 44.216 350.56 45.5067 350.752 47.064C350.965 48.6 351.072 50.1893 351.072 51.832C351.072 53.1547 350.987 54.456 350.816 55.736C350.645 56.9947 350.357 58.1253 349.952 59.128C349.099 61.24 347.915 63.032 346.4 64.504C344.907 65.976 343.147 67.1173 341.12 67.928ZM341.248 58.84C341.035 59.032 340.757 59.128 340.416 59.128C340.011 59.128 339.691 58.968 339.456 58.648C338.837 57.752 338.357 56.728 338.016 55.576C337.696 54.424 337.472 53.2293 337.344 51.992C337.216 50.7333 337.152 49.496 337.152 48.28C337.152 47.1493 337.184 46.0933 337.248 45.112C337.269 44.792 337.397 44.5147 337.632 44.28C337.867 44.0453 338.155 43.928 338.496 43.928C338.859 43.928 339.157 44.056 339.392 44.312C339.627 44.568 339.723 44.8773 339.68 45.24C339.637 45.7733 339.595 46.328 339.552 46.904C339.531 47.4587 339.52 48.0347 339.52 48.632C339.52 50.0827 339.648 51.5547 339.904 53.048C340.181 54.5413 340.704 55.8747 341.472 57.048C341.621 57.2827 341.696 57.5493 341.696 57.848C341.696 58.2747 341.547 58.6053 341.248 58.84ZM390.272 45.272C390.357 45.3787 390.4 45.528 390.4 45.72C390.4 46.0187 390.272 46.2533 390.016 46.424C389.909 46.5093 389.76 46.552 389.568 46.552C389.291 46.552 389.067 46.4347 388.896 46.2C388.555 45.6667 388.16 45.112 387.712 44.536C387.264 43.96 386.837 43.4693 386.432 43.064C386.261 42.8933 386.176 42.7013 386.176 42.488C386.176 42.3173 386.251 42.136 386.4 41.944C386.613 41.7733 386.816 41.688 387.008 41.688C387.243 41.688 387.445 41.7733 387.616 41.944C388.085 42.4133 388.544 42.9467 388.992 43.544C389.461 44.12 389.888 44.696 390.272 45.272ZM387.072 49.336C387.435 49.3147 387.733 49.432 387.968 49.688C388.224 49.9227 388.352 50.2213 388.352 50.584C388.352 50.904 388.235 51.1813 388 51.416C387.787 51.6293 387.52 51.7467 387.2 51.768C386.581 51.7893 385.856 51.8107 385.024 51.832C384.192 51.8533 383.307 51.864 382.368 51.864C382.176 51.864 382.08 51.96 382.08 52.152C382.016 53.816 381.877 55.3947 381.664 56.888C381.451 58.3813 381.067 59.7787 380.512 61.08C379.979 62.3813 379.2 63.5867 378.176 64.696C377.173 65.8053 375.851 66.7973 374.208 67.672C374.059 67.7573 373.888 67.8 373.696 67.8C373.141 67.8 372.768 67.5653 372.576 67.096C372.491 66.9467 372.448 66.776 372.448 66.584C372.448 66.072 372.683 65.6987 373.152 65.464C374.965 64.4613 376.331 63.32 377.248 62.04C378.165 60.7387 378.784 59.2773 379.104 57.656C379.445 56.0133 379.637 54.1787 379.68 52.152C379.68 51.96 379.584 51.864 379.392 51.864H372.704C372.512 51.864 372.416 51.96 372.416 52.152C372.416 53.5813 372.437 54.84 372.48 55.928C372.544 56.9947 372.704 57.9973 372.96 58.936C372.981 58.9787 372.992 59.032 372.992 59.096C372.992 59.16 372.992 59.2133 372.992 59.256C372.992 59.576 372.896 59.8533 372.704 60.088C372.512 60.3227 372.213 60.44 371.808 60.44C371.552 60.44 371.317 60.376 371.104 60.248C370.891 60.0987 370.731 59.896 370.624 59.64C370.347 58.7653 370.165 57.6773 370.08 56.376C369.995 55.0533 369.941 53.6453 369.92 52.152C369.92 51.96 369.824 51.864 369.632 51.864C368.757 51.8853 367.915 51.9067 367.104 51.928C366.315 51.928 365.579 51.9493 364.896 51.992C364.555 52.0133 364.256 51.9067 364 51.672C363.765 51.416 363.648 51.1173 363.648 50.776C363.648 50.456 363.755 50.1787 363.968 49.944C364.203 49.7093 364.48 49.5813 364.8 49.56C365.525 49.5387 366.293 49.528 367.104 49.528C367.915 49.5067 368.757 49.496 369.632 49.496C369.824 49.496 369.92 49.4 369.92 49.208V47.864C369.92 47.2453 369.909 46.6373 369.888 46.04C369.867 45.4427 369.856 44.856 369.856 44.28C369.856 43.9387 369.973 43.6613 370.208 43.448C370.443 43.2133 370.731 43.096 371.072 43.096C371.413 43.096 371.701 43.2133 371.936 43.448C372.171 43.6827 372.299 43.9707 372.32 44.312C372.384 46.1253 372.416 47.7467 372.416 49.176C372.416 49.368 372.512 49.464 372.704 49.464H379.424C379.616 49.464 379.712 49.368 379.712 49.176V46.488C379.712 46.0187 379.712 45.5493 379.712 45.08C379.712 44.5893 379.723 44.0987 379.744 43.608C379.744 43.2667 379.861 42.9787 380.096 42.744C380.352 42.5093 380.651 42.392 380.992 42.392C381.333 42.392 381.611 42.52 381.824 42.776C382.059 43.0107 382.176 43.288 382.176 43.608C382.155 44.568 382.133 45.5173 382.112 46.456C382.112 47.3733 382.112 48.2693 382.112 49.144C382.112 49.336 382.251 49.432 382.528 49.432C383.424 49.4107 384.256 49.4 385.024 49.4C385.792 49.3787 386.475 49.3573 387.072 49.336ZM386.464 47.576C386.123 47.0427 385.717 46.488 385.248 45.912C384.8 45.3147 384.363 44.8133 383.936 44.408C383.765 44.2373 383.68 44.0347 383.68 43.8C383.68 43.5867 383.755 43.4053 383.904 43.256C384.096 43.064 384.309 42.968 384.544 42.968C384.757 42.968 384.949 43.0533 385.12 43.224C385.611 43.6933 386.091 44.2373 386.56 44.856C387.051 45.4747 387.488 46.0827 387.872 46.68C387.957 46.7867 388 46.936 388 47.128C388 47.4267 387.872 47.6613 387.616 47.832C387.509 47.9173 387.36 47.96 387.168 47.96C386.869 47.96 386.635 47.832 386.464 47.576Z" fill="white"/>
<path d="M66 81.3076L105.061 67.3574L79.9502 42.2469L66 81.3076Z" fill="white"/>
<path d="M100.959 54.8859L116.555 39.2895C117.922 37.9224 120.127 37.9224 121.494 39.2895L123.14 40.9357L126.097 37.9782L124.451 36.3321C121.466 33.3467 116.583 33.3467 113.598 36.3321L98.0015 51.9285L100.959 54.8859Z" fill="white"/>
<path d="M88.4879 39.1221L86.8418 40.7682L89.7992 43.7256L91.4454 42.0795C94.4307 39.0942 94.4307 34.2116 91.4454 31.2262L89.7992 29.5801L86.8418 32.5655L88.4879 34.2116C89.8271 35.5508 89.8271 37.7828 88.4879 39.1221Z" fill="white"/>
<path d="M108.018 53.0723L103.582 57.5085L106.539 60.466L110.975 56.0298C112.342 54.6627 114.546 54.6627 115.914 56.0298L120.406 60.5218L123.363 57.5643L118.871 53.0723C115.858 50.087 111.003 50.087 108.018 53.0723Z" fill="white"/>
<path d="M102.438 36.332L92.4214 46.3483L95.3788 49.3057L105.395 39.2895C108.38 36.3041 108.38 31.4215 105.395 28.4362L100.959 24L98.0015 26.9575L102.438 31.3936C103.777 32.7607 103.777 34.9928 102.438 36.332Z" fill="white"/>
</svg>
