<svg width="530" height="106" viewBox="0 0 530 106" fill="none" xmlns="http://www.w3.org/2000/svg">
<rect width="530" height="106" rx="53" fill="#53C5DE"/>
<path d="M259.776 65.304C259.947 65.5813 260.032 65.8373 260.032 66.072C260.032 66.52 259.851 66.8933 259.488 67.192C259.275 67.3627 259.04 67.448 258.784 67.448C258.4 67.448 258.069 67.2773 257.792 66.936C257.109 65.9547 256.309 65.016 255.392 64.12C254.475 63.224 253.493 62.4133 252.448 61.688C251.403 60.9627 250.347 60.3867 249.28 59.96C249.131 59.896 249.003 59.9173 248.896 60.024C247.531 61.304 245.963 62.5627 244.192 63.8C242.421 65.0373 240.416 66.1573 238.176 67.16C238.027 67.224 237.867 67.256 237.696 67.256C237.419 67.256 237.152 67.1493 236.896 66.936C236.661 66.7227 236.544 66.4347 236.544 66.072C236.544 65.7947 236.619 65.5387 236.768 65.304C236.917 65.048 237.131 64.8667 237.408 64.76C239.499 63.8427 241.376 62.7973 243.04 61.624C244.704 60.4293 246.144 59.2133 247.36 57.976C248.597 56.7387 249.621 55.5653 250.432 54.456C251.264 53.3253 251.872 52.3653 252.256 51.576C252.448 51.1707 252.608 50.776 252.736 50.392C252.864 50.008 252.928 49.6667 252.928 49.368C252.928 49.0053 252.821 48.7173 252.608 48.504C252.395 48.2693 252.011 48.152 251.456 48.152C251.221 48.152 250.923 48.184 250.56 48.248C249.835 48.3547 248.864 48.4613 247.648 48.568C246.432 48.6747 245.109 48.76 243.68 48.824C242.251 48.888 240.843 48.92 239.456 48.92C239.136 48.92 238.859 48.8027 238.624 48.568C238.411 48.3333 238.304 48.056 238.304 47.736C238.304 47.3733 238.421 47.0747 238.656 46.84C238.912 46.6053 239.211 46.488 239.552 46.488H240.992C242.891 46.488 244.672 46.424 246.336 46.296C248 46.168 249.291 46.0187 250.208 45.848C250.443 45.8053 250.667 45.7733 250.88 45.752C251.093 45.7307 251.296 45.72 251.488 45.72C252.747 45.72 253.707 46.0613 254.368 46.744C255.029 47.4267 255.36 48.3013 255.36 49.368C255.36 50.3707 255.072 51.4693 254.496 52.664C254.155 53.3893 253.696 54.1787 253.12 55.032C252.565 55.864 251.904 56.728 251.136 57.624C251.093 57.6667 251.072 57.7307 251.072 57.816C251.072 57.9013 251.125 57.976 251.232 58.04C252.32 58.552 253.397 59.2133 254.464 60.024C255.531 60.8133 256.523 61.6667 257.44 62.584C258.357 63.5013 259.136 64.408 259.776 65.304ZM290.176 60.12C289.045 61.592 287.904 62.6907 286.752 63.416C285.621 64.1413 284.587 64.504 283.648 64.504C282.539 64.504 281.632 64.024 280.928 63.064C280.224 62.0827 279.883 60.6213 279.904 58.68V46.552C279.904 46.1893 280.021 45.8907 280.256 45.656C280.512 45.4 280.811 45.272 281.152 45.272C281.515 45.272 281.813 45.4 282.048 45.656C282.304 45.8907 282.432 46.1893 282.432 46.552V58.392C282.432 60.696 282.923 61.848 283.904 61.848C284.416 61.848 285.035 61.56 285.76 60.984C286.507 60.408 287.339 59.5653 288.256 58.456C289.472 57.048 290.517 55.416 291.392 53.56C291.627 53.048 292.032 52.792 292.608 52.792C292.971 52.792 293.269 52.92 293.504 53.176C293.739 53.432 293.856 53.72 293.856 54.04C293.856 54.232 293.813 54.4027 293.728 54.552C293.216 55.5973 292.651 56.5893 292.032 57.528C291.435 58.4453 290.816 59.3093 290.176 60.12ZM268.928 66.904C268.736 67.032 268.533 67.096 268.32 67.096C267.893 67.096 267.563 66.904 267.328 66.52C267.221 66.3067 267.168 66.104 267.168 65.912C267.168 65.464 267.339 65.1013 267.68 64.824C269.088 63.7147 270.229 62.4453 271.104 61.016C271.979 59.5867 272.619 57.88 273.024 55.896C273.451 53.8907 273.664 51.512 273.664 48.76C273.664 48.4187 273.781 48.1307 274.016 47.896C274.251 47.6613 274.528 47.544 274.848 47.544C275.211 47.544 275.52 47.672 275.776 47.928C276.032 48.1627 276.149 48.4613 276.128 48.824C276.021 51.384 275.808 53.6133 275.488 55.512C275.189 57.3893 274.752 59.0213 274.176 60.408C273.621 61.7947 272.907 63.0107 272.032 64.056C271.179 65.1013 270.144 66.0507 268.928 66.904ZM323.776 64.12C323.776 64.44 323.669 64.7173 323.456 64.952C323.264 65.1867 322.997 65.3253 322.656 65.368C320.971 65.5173 319.563 65.6347 318.432 65.72C317.323 65.8053 316.352 65.88 315.52 65.944C314.688 65.9867 313.845 66.0507 312.992 66.136C312.757 66.1573 312.523 66.1787 312.288 66.2C312.075 66.2 311.851 66.2 311.616 66.2C309.845 66.2 308.555 65.816 307.744 65.048C306.955 64.2587 306.539 63.0853 306.496 61.528C306.475 61.1013 306.464 60.2587 306.464 59C306.464 57.7413 306.464 56.3333 306.464 54.776C306.464 54.5413 306.357 54.456 306.144 54.52C305.419 54.7333 304.693 54.9467 303.968 55.16C303.264 55.3733 302.571 55.576 301.888 55.768C301.76 55.8107 301.653 55.832 301.568 55.832C301.269 55.832 301.013 55.7147 300.8 55.48C300.587 55.2453 300.48 54.968 300.48 54.648C300.48 54.3707 300.555 54.1253 300.704 53.912C300.875 53.6773 301.099 53.5173 301.376 53.432C302.123 53.1973 302.901 52.9627 303.712 52.728C304.544 52.472 305.387 52.2373 306.24 52.024C306.411 52.0027 306.496 51.896 306.496 51.704C306.517 50.3387 306.539 49.048 306.56 47.832C306.603 46.616 306.635 45.624 306.656 44.856C306.677 44.4933 306.816 44.1947 307.072 43.96C307.349 43.7253 307.659 43.608 308 43.608C308.341 43.608 308.629 43.736 308.864 43.992C309.099 44.2267 309.205 44.5253 309.184 44.888C309.163 45.5707 309.141 46.4453 309.12 47.512C309.099 48.5787 309.067 49.7093 309.024 50.904C309.024 51.1387 309.131 51.224 309.344 51.16C310.581 50.8187 311.755 50.5093 312.864 50.232C313.973 49.9547 314.944 49.7093 315.776 49.496C316.629 49.2613 317.259 49.0907 317.664 48.984C318.347 48.8133 318.933 48.728 319.424 48.728C320.405 48.728 321.131 48.9733 321.6 49.464C322.091 49.9547 322.336 50.5627 322.336 51.288C322.336 52.2053 321.984 53.112 321.28 54.008C320.704 54.7547 320.075 55.544 319.392 56.376C318.709 57.208 318.059 57.9973 317.44 58.744C316.843 59.4907 316.341 60.1093 315.936 60.6C315.723 60.8773 315.424 61.016 315.04 61.016C314.741 61.016 314.475 60.92 314.24 60.728C313.984 60.472 313.856 60.1627 313.856 59.8C313.856 59.48 313.963 59.2027 314.176 58.968C314.581 58.52 315.072 57.9547 315.648 57.272C316.224 56.5893 316.821 55.864 317.44 55.096C318.059 54.3067 318.613 53.5493 319.104 52.824C319.467 52.312 319.648 51.896 319.648 51.576C319.648 51.2347 319.424 51.064 318.976 51.064C318.72 51.064 318.432 51.1067 318.112 51.192C317.195 51.4267 315.936 51.768 314.336 52.216C312.757 52.6427 311.061 53.112 309.248 53.624C309.077 53.6453 308.992 53.752 308.992 53.944L308.928 60.504C308.928 61.336 309.003 61.9867 309.152 62.456C309.301 62.9253 309.6 63.2667 310.048 63.48C310.496 63.672 311.168 63.768 312.064 63.768C313.067 63.768 314.4 63.6827 316.064 63.512C317.728 63.32 319.851 63.1067 322.432 62.872C322.795 62.8293 323.104 62.936 323.36 63.192C323.637 63.448 323.776 63.7573 323.776 64.12ZM341.12 67.928C340.992 67.992 340.843 68.024 340.672 68.024C340.373 68.024 340.096 67.9067 339.84 67.672C339.584 67.4373 339.456 67.1387 339.456 66.776C339.456 66.1573 339.733 65.7307 340.288 65.496C342.507 64.4507 344.213 63.256 345.408 61.912C346.603 60.568 347.424 59.0853 347.872 57.464C348.341 55.8427 348.576 54.136 348.576 52.344C348.576 50.9573 348.48 49.528 348.288 48.056C348.117 46.584 347.925 45.0907 347.712 43.576C347.669 43.2133 347.765 42.904 348 42.648C348.235 42.392 348.523 42.264 348.864 42.264C349.163 42.264 349.429 42.3493 349.664 42.52C349.899 42.6693 350.048 42.8933 350.112 43.192C350.347 44.216 350.56 45.5067 350.752 47.064C350.965 48.6 351.072 50.1893 351.072 51.832C351.072 53.1547 350.987 54.456 350.816 55.736C350.645 56.9947 350.357 58.1253 349.952 59.128C349.099 61.24 347.915 63.032 346.4 64.504C344.907 65.976 343.147 67.1173 341.12 67.928ZM341.248 58.84C341.035 59.032 340.757 59.128 340.416 59.128C340.011 59.128 339.691 58.968 339.456 58.648C338.837 57.752 338.357 56.728 338.016 55.576C337.696 54.424 337.472 53.2293 337.344 51.992C337.216 50.7333 337.152 49.496 337.152 48.28C337.152 47.1493 337.184 46.0933 337.248 45.112C337.269 44.792 337.397 44.5147 337.632 44.28C337.867 44.0453 338.155 43.928 338.496 43.928C338.859 43.928 339.157 44.056 339.392 44.312C339.627 44.568 339.723 44.8773 339.68 45.24C339.637 45.7733 339.595 46.328 339.552 46.904C339.531 47.4587 339.52 48.0347 339.52 48.632C339.52 50.0827 339.648 51.5547 339.904 53.048C340.181 54.5413 340.704 55.8747 341.472 57.048C341.621 57.2827 341.696 57.5493 341.696 57.848C341.696 58.2747 341.547 58.6053 341.248 58.84ZM386.976 48.92C387.317 48.9413 387.605 49.08 387.84 49.336C388.075 49.5707 388.192 49.8587 388.192 50.2C388.192 50.5413 388.064 50.8293 387.808 51.064C387.573 51.2773 387.296 51.3733 386.976 51.352C385.867 51.288 384.736 51.2453 383.584 51.224C382.432 51.1813 381.259 51.1493 380.064 51.128C379.872 51.128 379.787 51.224 379.808 51.416C379.936 52.9947 380.075 54.7013 380.224 56.536C380.395 58.3493 380.597 60.2587 380.832 62.264C380.896 62.7333 380.928 63.1707 380.928 63.576C380.928 64.9413 380.544 65.9547 379.776 66.616C379.008 67.256 377.643 67.576 375.68 67.576C375.531 67.576 375.371 67.576 375.2 67.576C375.029 67.576 374.859 67.5653 374.688 67.544C374.325 67.5227 374.016 67.3733 373.76 67.096C373.525 66.84 373.408 66.5413 373.408 66.2C373.408 65.8373 373.536 65.5387 373.792 65.304C374.048 65.0693 374.347 64.9733 374.688 65.016C374.987 65.0373 375.253 65.048 375.488 65.048C375.723 65.048 375.947 65.048 376.16 65.048C377.163 65.048 377.803 64.952 378.08 64.76C378.379 64.568 378.528 64.2693 378.528 63.864C378.528 63.7147 378.517 63.5547 378.496 63.384C378.475 63.2133 378.453 63.0213 378.432 62.808C378.304 61.4213 378.176 59.992 378.048 58.52C377.92 57.0267 377.792 55.5547 377.664 54.104C377.664 53.976 377.621 53.9013 377.536 53.88C377.472 53.8587 377.397 53.9013 377.312 54.008C376.395 55.2667 375.307 56.504 374.048 57.72C372.811 58.936 371.499 60.0453 370.112 61.048C368.747 62.0293 367.381 62.8293 366.016 63.448C365.867 63.512 365.707 63.544 365.536 63.544C365.237 63.544 364.96 63.4373 364.704 63.224C364.469 62.9893 364.352 62.6907 364.352 62.328C364.352 62.0933 364.416 61.8693 364.544 61.656C364.672 61.4213 364.853 61.2507 365.088 61.144C366.432 60.504 367.787 59.6827 369.152 58.68C370.539 57.6773 371.829 56.568 373.024 55.352C374.24 54.1147 375.253 52.824 376.064 51.48C376.085 51.4373 376.096 51.3947 376.096 51.352C376.096 51.2027 376.011 51.128 375.84 51.128C374.176 51.1493 372.501 51.2027 370.816 51.288C369.152 51.352 367.499 51.4693 365.856 51.64C365.515 51.6613 365.216 51.5547 364.96 51.32C364.704 51.0853 364.576 50.7973 364.576 50.456C364.576 50.136 364.683 49.8587 364.896 49.624C365.131 49.368 365.419 49.2293 365.76 49.208C367.467 49.0587 369.269 48.952 371.168 48.888C373.088 48.8027 375.019 48.7493 376.96 48.728C377.173 48.728 377.259 48.632 377.216 48.44L376.832 43.224C376.811 42.8827 376.917 42.5947 377.152 42.36C377.387 42.104 377.675 41.9653 378.016 41.944C378.357 41.944 378.645 42.0613 378.88 42.296C379.136 42.5093 379.275 42.7867 379.296 43.128C379.339 43.7893 379.381 44.5787 379.424 45.496C379.467 46.392 379.52 47.3733 379.584 48.44C379.627 48.632 379.733 48.728 379.904 48.728C381.12 48.7493 382.325 48.7813 383.52 48.824C384.715 48.8453 385.867 48.8773 386.976 48.92Z" fill="white"/>
<path d="M112.636 44.7273L115.875 37.6023L123 34.3636L115.875 31.125L112.636 24L109.398 31.125L102.273 34.3636L109.398 37.6023L112.636 44.7273ZM93.2045 46.0227L86.7273 31.7727L80.25 46.0227L66 52.5L80.25 58.9773L86.7273 73.2273L93.2045 58.9773L107.455 52.5L93.2045 46.0227ZM112.636 60.2727L109.398 67.3977L102.273 70.6364L109.398 73.875L112.636 81L115.875 73.875L123 70.6364L115.875 67.3977L112.636 60.2727Z" fill="white"/>
</svg>
